<?xml version="1.0" encoding="UTF-8"?>
<svg width="23px" height="24px" viewBox="0 0 23 24" version="1.1" xmlns="http://www.w3.org/2000/svg" xmlns:xlink="http://www.w3.org/1999/xlink">
    <!-- Generator: Sketch 52.6 (67491) - http://www.bohemiancoding.com/sketch -->
    <title>Group 32</title>
    <desc>Created with Sketch.</desc>
    <g id="Page-1" stroke="none" stroke-width="1" fill="none" fill-rule="evenodd">
        <g id="ICONS" transform="translate(-506.000000, -93.000000)">
            <g id="Group-32" transform="translate(506.000000, 93.000000)">
                <path d="M15.6521739,16.6956522 C15.2976522,16.6956522 14.9496522,16.6857391 14.6086957,16.6678696 L14.6086957,19.2765652 C14.9496522,19.2944348 15.2976522,19.3043478 15.6521739,19.3043478 C19.6863913,19.3043478 22.9565217,18.6035217 22.9565217,17.7391304 L22.9565217,15.1304348 C22.9565217,15.9948261 19.6863913,16.6956522 15.6521739,16.6956522 Z" id="Path" fill="#A4373A"></path>
                <path d="M15.6521739,12.5217391 C15.2976522,12.5217391 14.9496522,12.5118261 14.6086957,12.4939565 L14.6086957,15.6243913 C14.9496522,15.6422609 15.2976522,15.6521739 15.6521739,15.6521739 C19.6863913,15.6521739 22.9565217,14.9513478 22.9565217,14.0869565 L22.9565217,12 L22.9565217,10.9565217 C22.9565217,11.820913 19.6863913,12.5217391 15.6521739,12.5217391 Z" id="Path" fill="#A4373A"></path>
                <path d="M15.6521739,8.34782609 C15.2976522,8.34782609 14.9496522,8.33791304 14.6086957,8.32017391 L14.6086957,11.4506087 C14.9496522,11.4683478 15.2976522,11.4782609 15.6521739,11.4782609 C19.6863913,11.4782609 22.9565217,10.7774348 22.9565217,9.91304348 L22.9565217,7.82608696 L22.9565217,6.7826087 C22.9565217,7.647 19.6863913,8.34782609 15.6521739,8.34782609 Z" id="Path" fill="#A4373A"></path>
                <path d="M15.6521739,4.17391304 C15.2976522,4.17391304 14.9496522,4.17965217 14.6086957,4.19008696 L14.6086957,7.28817391 C14.9496522,7.2986087 15.2976522,7.30434783 15.6521739,7.30434783 C19.6863913,7.30434783 22.9565217,6.60352174 22.9565217,5.73913043 C22.9565217,4.87473913 19.6863913,4.17391304 15.6521739,4.17391304 Z" id="Path" fill="#A4373A"></path>
                <polygon id="Path" fill="#A4373A" points="13.5652174 24 0 19.826087 0 4.17391304 13.5652174 0"></polygon>
                <path d="M5.11121739,13.3063043 L5.95695652,10.1976522 L6.83008696,13.353913 L5.11121739,13.3063043 M7.08678261,7.95652174 L4.87904348,8.19065217 L2.60869565,16.0438696 L4.34791304,16.2283043 L4.65913043,15.1031739 L7.33591304,15.305087 L7.69865217,16.5838696 L9.98204348,16.8259565 L7.08678261,7.95652174" id="Shape" fill="#FFFFFF" fill-rule="nonzero"></path>
            </g>
        </g>
    </g>
</svg>