<?xml version="1.0" encoding="UTF-8"?>
<svg width="20px" height="19px" viewBox="0 0 20 19" version="1.1" xmlns="http://www.w3.org/2000/svg" xmlns:xlink="http://www.w3.org/1999/xlink">
    <!-- Generator: Sketch 52.4 (67378) - http://www.bohemiancoding.com/sketch -->
    <title>Path</title>
    <desc>Created with Sketch.</desc>
    <g id="Page-1" stroke="none" stroke-width="1" fill="none" fill-rule="evenodd">
        <g id="Artboard" transform="translate(-1177.000000, -822.000000)" fill="#FFFFFF">
            <g id="Group-7" transform="translate(1167.000000, 811.000000)">
                <g id="button">
                    <path d="M18.9189189,12.0135135 L18.9189189,19.361512 L11.0810811,19.361512 C10.484027,19.361512 10,19.8152671 10,20.3750306 C10,20.9347941 10.484027,21.3885441 11.0810811,21.3885441 L18.9189189,21.3885441 L18.9189189,28.7364919 C18.9189189,29.2962301 19.4029189,29.7500054 20,29.7500054 C20.5970811,29.7500054 21.0810811,29.2962301 21.0810811,28.7364919 L21.0810811,21.3885441 L28.9189189,21.3885441 C29.515973,21.3885441 30,20.9347941 30,20.3750306 C30,19.8152671 29.515973,19.361512 28.9189189,19.361512 L21.0810811,19.361512 L21.0810811,12.0135135 C21.0810811,11.4537753 20.5970811,11 20,11 C19.4029189,11 18.9189189,11.4537753 18.9189189,12.0135135 Z" id="Path"></path>
                </g>
            </g>
        </g>
    </g>
</svg>