<svg xmlns="http://www.w3.org/2000/svg" width="32" height="35" viewBox="0 0 32 35">
  <path d="M2.9502475,2.522345 C-0.367286,5.839845 -0.3672805,11.225645 2.9502605,14.543195 L20.981481,32.5744 C23.319672,34.9126 27.128573,34.9126 29.466761,32.5744 C31.804953,30.2362 31.804952,26.4273 29.466764,24.0891 L11.435524,6.057845 C10.076692,4.699045 7.8446325,4.699045 6.4857925,6.057895 C5.1269395,7.416745 5.126924,9.648745 6.4857935,11.007645 L22.0421405,26.564 C22.2936325,26.8222124 22.6646145,26.9251182 23.0131851,26.8333557 C23.3617558,26.7415932 23.6339813,26.4693607 23.7257348,26.1207877 C23.8174883,25.7722147 23.7145729,25.4012353 23.456354,25.14975 L7.8999915,9.593395 C7.300151,8.993545 7.300165,8.071945 7.900005,7.472095 C8.4998205,6.872195 9.4214865,6.872295 10.0213265,7.472095 L28.0525485,25.5033 C29.6317305,27.0825 29.63173,29.581 28.0525485,31.1602 C26.473366,32.73935 23.974876,32.73935 22.395695,31.1602 L4.3644715,13.128945 C1.8059465,10.570445 1.8059395,6.495045 4.3644605,3.936545 C6.922981,1.378045 10.998334,1.378045 13.556859,3.936595 L29.820315,20.2 C30.0716889,20.458736 30.4429221,20.5620463 30.7918154,20.4703585 C31.1407086,20.3786708 31.4131868,20.1061956 31.5048784,19.7573033 C31.59657,19.408411 31.4932637,19.0371768 31.2345305,18.7858 L14.9710565,2.522295 C11.653515,-0.795255 6.2677805,-0.795205 2.9502475,2.522345 Z"/>
</svg>
