<?xml version="1.0" encoding="UTF-8"?>
<svg width="13px" height="16px" viewBox="0 0 13 16" version="1.1" xmlns="http://www.w3.org/2000/svg" xmlns:xlink="http://www.w3.org/1999/xlink">
    <!-- Generator: Sketch 57.1 (83088) - https://sketch.com -->
    <title>Shape</title>
    <desc>Created with Sketch.</desc>
    <g id="Page-1" stroke="none" stroke-width="1" fill="none" fill-rule="evenodd">
        <g id="announcement" transform="translate(-1279.000000, -196.000000)" fill="#000000" fill-rule="nonzero">
            <path d="M1280.59888,207.341184 C1279.49777,207.730485 1278.83726,208.85644 1279.03476,210.007524 C1279.23225,211.158607 1280.2303,212 1281.3982,212 C1282.56611,212 1283.56415,211.158607 1283.76165,210.007524 C1283.95914,208.85644 1283.29864,207.730485 1282.19753,207.341184 L1282.19753,204.799326 L1289.39147,204.799326 C1289.83292,204.799326 1290.19079,204.441456 1290.19079,204 L1290.19079,200.658816 C1291.2919,200.269515 1291.95241,199.14356 1291.75491,197.992476 C1291.55742,196.841393 1290.55937,196 1289.39147,196 C1288.22357,196 1287.22552,196.841393 1287.02802,197.992476 C1286.83053,199.14356 1287.49103,200.269515 1288.59214,200.658816 L1288.59214,203.200674 L1282.19753,203.200674 L1282.19753,200.658816 C1283.29864,200.269515 1283.95914,199.14356 1283.76165,197.992476 C1283.56415,196.841393 1282.56611,196 1281.3982,196 C1280.2303,196 1279.23225,196.841393 1279.03476,197.992476 C1278.83726,199.14356 1279.49777,200.269515 1280.59888,200.658816 L1280.59888,207.341184 Z M1289.39147,197.605389 C1289.83292,197.605389 1290.19079,197.963259 1290.19079,198.404715 C1290.19079,198.846171 1289.83292,199.204042 1289.39147,199.204042 C1288.95001,199.204042 1288.59214,198.846171 1288.59214,198.404715 C1288.59214,197.963259 1288.95001,197.605389 1289.39147,197.605389 Z M1281.3982,210.394611 C1280.95675,210.394611 1280.59888,210.036741 1280.59888,209.595285 C1280.59888,209.153829 1280.95675,208.795958 1281.3982,208.795958 C1281.83966,208.795958 1282.19753,209.153829 1282.19753,209.595285 C1282.19753,210.036741 1281.83966,210.394611 1281.3982,210.394611 Z M1281.3982,197.605389 C1281.83966,197.605389 1282.19753,197.963259 1282.19753,198.404715 C1282.19753,198.846171 1281.83966,199.204042 1281.3982,199.204042 C1280.95675,199.204042 1280.59888,198.846171 1280.59888,198.404715 C1280.59888,197.963259 1280.95675,197.605389 1281.3982,197.605389 Z" id="Shape"></path>
        </g>
    </g>
</svg>