<?xml version="1.0" encoding="UTF-8"?>
<svg width="16px" height="14px" viewBox="0 0 16 14" version="1.1" xmlns="http://www.w3.org/2000/svg" xmlns:xlink="http://www.w3.org/1999/xlink">
    <!-- Generator: Sketch 57.1 (83088) - https://sketch.com -->
    <title>Shape</title>
    <desc>Created with Sketch.</desc>
    <g id="Page-1" stroke="none" stroke-width="1" fill="none" fill-rule="evenodd">
        <g id="announcement" transform="translate(-1279.000000, -458.000000)" fill="#231F20" fill-rule="nonzero">
            <path d="M1279.91359,459.83908 L1294.08641,459.83908 C1294.59097,459.83908 1295,459.427388 1295,458.91954 C1295,458.411692 1294.59097,458 1294.08641,458 L1279.91359,458 C1279.40903,458 1279,458.411692 1279,458.91954 C1279,459.427388 1279.40903,459.83908 1279.91359,459.83908 Z M1282.50209,464.436782 C1282.50209,463.67501 1281.88855,463.057471 1281.13171,463.057471 C1280.37487,463.057471 1279.76132,463.67501 1279.76132,464.436782 C1279.76132,465.198554 1280.37487,465.816092 1281.13171,465.816092 C1281.49516,465.816092 1281.84372,465.670772 1282.10072,465.412101 C1282.35771,465.15343 1282.50209,464.802597 1282.50209,464.436782 L1282.50209,464.436782 Z M1294.07423,465.356322 C1294.57879,465.356322 1294.98782,464.94463 1294.98782,464.436782 C1294.98782,463.928934 1294.57879,463.517241 1294.07423,463.517241 L1286.00419,463.517241 C1285.49963,463.517241 1285.0906,463.928934 1285.0906,464.436782 C1285.0906,464.94463 1285.49963,465.356322 1286.00419,465.356322 L1294.07423,465.356322 Z M1294.07423,470.873563 C1294.57879,470.873563 1294.98782,470.461871 1294.98782,469.954023 C1294.98782,469.446175 1294.57879,469.034483 1294.07423,469.034483 L1286.00419,469.034483 C1285.49963,469.034483 1285.0906,469.446175 1285.0906,469.954023 C1285.0906,470.461871 1285.49963,470.873563 1286.00419,470.873563 L1294.07423,470.873563 Z M1282.50209,469.954023 C1282.50209,469.192251 1281.88855,468.574713 1281.13171,468.574713 C1280.37487,468.574713 1279.76132,469.192251 1279.76132,469.954023 C1279.76132,470.715795 1280.37487,471.333333 1281.13171,471.333333 C1281.49516,471.333333 1281.84372,471.188014 1282.10072,470.929343 C1282.35771,470.670672 1282.50209,470.319839 1282.50209,469.954023 Z" id="Shape"></path>
        </g>
    </g>
</svg>