<?xml version="1.0" encoding="UTF-8"?>
<svg width="9px" height="10px" viewBox="0 0 9 10" version="1.1" xmlns="http://www.w3.org/2000/svg" xmlns:xlink="http://www.w3.org/1999/xlink">
    <!-- Generator: Sketch 52.2 (67145) - http://www.bohemiancoding.com/sketch -->
    <title>noun_1076081_cc copy</title>
    <desc>Created with Sketch.</desc>
    <g id="Page-1" stroke="none" stroke-width="1" fill="none" fill-rule="evenodd" opacity="0.87">
        <g id="Department-Homepage" transform="translate(-1084.000000, -1340.000000)" fill="#000000" fill-rule="nonzero">
            <g id="noun_1076081_cc-copy" transform="translate(1084.000000, 1340.000000)">
                <path d="M1.94805195,10 L7.05194805,10 C8.12987013,10 9,9.13436693 9,8.0620155 L9,2.90697674 C9,1.83462532 8.12987013,0.968992248 7.05194805,0.968992248 L6.84415584,0.968992248 L6.84415584,0.387596899 C6.84415584,0.167958656 6.67532468,0 6.45454545,0 C6.23376623,0 6.06493506,0.167958656 6.06493506,0.387596899 L6.06493506,0.968992248 L2.93506494,0.968992248 L2.93506494,0.387596899 C2.93506494,0.167958656 2.76623377,0 2.54545455,0 C2.32467532,0 2.15584416,0.167958656 2.15584416,0.387596899 L2.15584416,0.968992248 L1.94805195,0.968992248 C0.87012987,0.968992248 0,1.83462532 0,2.90697674 L0,8.04909561 C4.61391387e-16,9.13436693 0.883116883,10 1.94805195,10 Z M7.06493506,9.2248062 L1.94805195,9.2248062 C1.2987013,9.2248062 0.779220779,8.70801034 0.779220779,8.0620155 L0.779220779,4.5994832 L8.22077922,4.5994832 L8.22077922,8.04909561 C8.23376623,8.70801034 7.7012987,9.2248062 7.06493506,9.2248062 Z M1.94805195,1.74418605 L2.15584416,1.74418605 L2.15584416,2.58397933 C2.15584416,2.80361757 2.32467532,2.97157623 2.54545455,2.97157623 C2.76623377,2.97157623 2.93506494,2.80361757 2.93506494,2.58397933 L2.93506494,1.74418605 L6.07792208,1.74418605 L6.07792208,2.58397933 C6.07792208,2.80361757 6.24675325,2.97157623 6.46753247,2.97157623 C6.68831169,2.97157623 6.85714286,2.80361757 6.85714286,2.58397933 L6.85714286,1.74418605 L7.06493506,1.74418605 C7.71428571,1.74418605 8.23376623,2.26098191 8.23376623,2.90697674 L8.23376623,3.82428941 L0.779220779,3.82428941 L0.779220779,2.90697674 C0.779220779,2.27390181 1.31168831,1.74418605 1.94805195,1.74418605 Z" id="Shape"></path>
            </g>
        </g>
    </g>
</svg>