<?xml version="1.0" encoding="UTF-8"?>
<svg width="18px" height="18px" viewBox="0 0 18 18" version="1.1" xmlns="http://www.w3.org/2000/svg" xmlns:xlink="http://www.w3.org/1999/xlink">
    <!-- Generator: Sketch 52.6 (67491) - http://www.bohemiancoding.com/sketch -->
    <title>Group 4</title>
    <desc>Created with Sketch.</desc>
    <g id="Page-1" stroke="none" stroke-width="1" fill="none" fill-rule="evenodd">
        <g id="Group-4" fill="#000000">
            <g id="Group-3">
                <g id="Group-2">
                    <path d="M6.31705361,8.97328666 C6.61305465,8.80863323 6.88190169,8.60106086 7.11518424,8.35898002 C7.71890226,9.35381683 8.16688,10.8225488 8.16688,11.8891733 L8.16688,15.999904 L9.83312,14.750024 L9.83312,11.8891733 C9.83312,10.6811477 10.4080456,8.95622985 11.1327045,7.98915834 L15.9999532,1.5 L1.99997659,1.5 L3.10805292,2.97749276 C2.80894853,3.13204424 2.53572528,3.32969038 2.2965969,3.56221748 L0.599994381,1.29999251 C0.352789548,0.970373201 0.587981655,0.5 1,0.5 L17,0.5 C17.4120313,0.5 17.6472199,0.970399217 17.3999888,1.30001499 L11.9328213,8.58900257 C11.3379226,9.38290662 10.83312,10.8974382 10.83312,11.8891733 L10.83312,15 C10.83312,15.1573651 10.7590356,15.3055482 10.6331507,15.399977 L7.96691072,17.399977 C7.63729743,17.6472265 7.16688,17.4120404 7.16688,17 L7.16688,11.8891733 C7.16688,11.0399699 6.79696279,9.80825724 6.31705361,8.97328666 Z" id="Shape" fill-rule="nonzero"></path>
                    <path d="M4.9,9.8 C2.74608948,9.8 1,8.05391052 1,5.9 C1,3.74608948 2.74608948,2 4.9,2 C7.05391052,2 8.8,3.74608948 8.8,5.9 C8.8,8.05391052 7.05391052,9.8 4.9,9.8 Z M4.9,8.88235294 C6.54710805,8.88235294 7.88235294,7.54710805 7.88235294,5.9 C7.88235294,4.25289195 6.54710805,2.91764706 4.9,2.91764706 C3.25289195,2.91764706 1.91764706,4.25289195 1.91764706,5.9 C1.91764706,7.54710805 3.25289195,8.88235294 4.9,8.88235294 Z" id="Oval" fill-rule="nonzero"></path>
                    <g id="Group" transform="translate(3.000000, 4.000000)">
                        <g id="Path">
                            <path d="M2.00000008,2.43646342 L0.52775029,3.90871306 C0.40694643,4.02951692 0.21099888,4.0300533 0.0904727842,3.90952722 C-0.0308935462,3.78816088 -0.0296888238,3.59322548 0.0912869402,3.4722497 L1.56353657,2.00000008 L0.0912869402,0.52775029 C-0.029516919,0.40694643 -0.0300533114,0.21099888 0.0904727842,0.0904727842 C0.211839114,-0.0308935462 0.406774682,-0.0296888238 0.52775029,0.0912869402 L2.00000008,1.56353657 L3.4722497,0.0912869402 C3.59305358,-0.029516919 3.78900128,-0.0300533114 3.90952722,0.0904727842 C4.03089354,0.211839114 4.02968882,0.406774682 3.90871306,0.52775029 L2.43646342,2.00000008 L3.90871306,3.4722497 C4.02951692,3.59305358 4.0300533,3.78900128 3.90952722,3.90952722 C3.78816088,4.03089354 3.59322548,4.02968882 3.4722497,3.90871306 L2.00000008,2.43646342 Z"></path>
                        </g>
                    </g>
                </g>
            </g>
        </g>
    </g>
</svg>