<?xml version="1.0" encoding="UTF-8"?>
<svg width="14px" height="16px" viewBox="0 0 14 16" version="1.1" xmlns="http://www.w3.org/2000/svg" xmlns:xlink="http://www.w3.org/1999/xlink">
    <!-- Generator: Sketch 55 (78076) - https://sketchapp.com -->
    <title>delete-filled</title>
    <desc>Created with Sketch.</desc>
    <g id="Page-1" stroke="none" stroke-width="1" fill="none" fill-rule="evenodd">
        <g id="delete-filled" fill="#000000" fill-rule="nonzero">
            <path d="M9.14819138,0 L4.9008168,0 C4.16569428,0 3.56126021,0.584771575 3.56126021,1.3319797 L3.56126021,2.24162437 L0.604434075,2.24162437 C0.270614352,2.24162437 -4.08811252e-17,2.51070805 0,2.8426396 L0,2.8426396 C4.08811252e-17,3.17457114 0.270614352,3.44365483 0.604434075,3.44365483 L1.06184364,3.44365483 L1.06184364,13.4984771 C1.06184364,14.8791878 2.18903151,16 3.57759627,16 L10.4714119,16 C11.8436406,16 12.9544924,14.8791878 12.9544924,13.4984771 L12.9544924,3.44365483 L13.3955659,3.44365483 C13.7293857,3.44365483 14,3.17457114 14,2.8426396 L14,2.8426396 C14,2.51070805 13.7293857,2.24162437 13.3955659,2.24162437 L10.487748,2.24162437 L10.487748,1.3319797 C10.487748,0.601015232 9.88331388,0 9.14819138,0 Z M9.84315442,12.919797 L9.80095293,12.919797 C9.47878686,12.919797 9.2176196,12.660107 9.2176196,12.3397631 L9.2176196,5.80033842 C9.2176196,5.47999457 9.47878686,5.22030457 9.80095293,5.22030457 L9.84315442,5.22030457 C10.1653205,5.22030457 10.4264877,5.47999457 10.4264877,5.80033842 L10.4264877,12.3397631 C10.4264877,12.660107 10.1653205,12.919797 9.84315442,12.919797 Z M4.12553481,12.919797 L4.08333333,12.919797 C3.76116723,12.919797 3.5,12.660107 3.5,12.3397631 L3.5,5.80033842 C3.5,5.47999457 3.76116723,5.22030457 4.08333333,5.22030457 L4.12553481,5.22030457 C4.44770092,5.22030457 4.70886814,5.47999457 4.70886814,5.80033842 L4.70886814,12.3397631 C4.70886814,12.660107 4.44770092,12.919797 4.12553481,12.919797 Z M6.98434462,12.919797 L6.92580706,12.919797 C6.60364098,12.919797 6.34247373,12.660107 6.34247373,12.3397631 L6.34247373,5.80033842 C6.34247373,5.47999457 6.60364098,5.22030457 6.92580706,5.22030457 L6.98434462,5.22030457 C7.30651069,5.22030457 7.56767795,5.47999457 7.56767795,5.80033842 L7.56767795,12.3397631 C7.56767795,12.660107 7.30651069,12.919797 6.98434462,12.919797 Z M5.25,1.16006768 L8.75,1.16006768 C9.07216607,1.16006768 9.33333333,1.41975768 9.33333333,1.74010152 L9.33333333,1.74010152 C9.33333333,2.06044537 9.07216607,2.32013537 8.75,2.32013537 L5.25,2.32013537 C4.9278339,2.32013537 4.66666667,2.06044537 4.66666667,1.74010152 L4.66666667,1.74010152 C4.66666667,1.41975768 4.9278339,1.16006768 5.25,1.16006768 Z" id="Shape"></path>
        </g>
    </g>
</svg>