<?xml version="1.0" encoding="UTF-8"?>
<svg width="136px" height="136px" viewBox="0 0 136 136" version="1.1" xmlns="http://www.w3.org/2000/svg" xmlns:xlink="http://www.w3.org/1999/xlink">
    <!-- Generator: Sketch 52.4 (67378) - http://www.bohemiancoding.com/sketch -->
    <title>iconfinder_microsoft_office_word_1784854 2</title>
    <desc>Created with Sketch.</desc>
    <g id="Page-1" stroke="none" stroke-width="1" fill="none" fill-rule="evenodd">
        <g id="iconfinder_microsoft_office_word_1784854-2" fill="#2B7ABE">
            <g id="iconfinder_microsoft_office_word_1784854" transform="translate(0.809882, 0.989881)">
                <path d="M14.4499181,107.239392 L14.4999178,26.8398478 L75.499572,16.399907 L75.499572,117.649333 L14.4499181,107.239392 Z M110.549373,80.0995459 L77.9095583,80.0995459 L77.9095583,73.7795817 L110.549373,73.7795817 L110.549373,69.5696056 L77.9095583,69.5696056 L77.9095583,63.2596414 L110.549373,63.2596414 L110.549373,59.0496652 L77.9095583,59.0496652 L77.9095583,52.7297011 L110.549373,52.7297011 L110.549373,48.5197249 L77.9095583,48.5197249 L77.9095583,42.1997608 L110.549373,42.1997608 L110.549373,37.9897846 L77.9095583,37.9897846 L77.969558,28.049841 L117.479334,28.049841 C119.599322,27.9698414 120.02932,28.389839 119.94932,30.519827 L119.94932,103.189415 L119.94932,103.889411 C119.97932,105.159404 119.589322,106.249398 117.479334,106.009399 L77.969558,106.009399 L77.9095583,94.8394623 L110.549373,94.8394623 L110.549373,90.6294862 L77.9095583,90.6294862 L77.9095583,84.309522 L110.549373,84.309522 L110.549373,80.0995459 Z M0,134.939235 L135.119234,134.939235 L134.939235,0 L0,0 L0,134.939235 Z" id="Shape"></path>
                <path d="M56.8496777,48.3397259 L52.0197051,74.2795789 L47.0197334,49.1597213 L40.2497718,49.5497191 L35.449799,73.369584 L31.389822,50.2897149 L25.4098559,50.3597145 L31.6298207,83.779525 L37.9097851,84.1195231 L43.0697558,61.0196541 L45.8197402,72.7295877 C46.6197357,76.7095651 47.4297311,80.5195435 48.1697269,84.5795205 L55.2696867,85.3095164 L63.49964,48.0897274 L56.8496777,48.3397259 Z" id="Path"></path>
            </g>
        </g>
    </g>
</svg>