<?xml version="1.0" encoding="UTF-8"?>
<svg width="12px" height="15px" viewBox="0 0 12 15" version="1.1" xmlns="http://www.w3.org/2000/svg" xmlns:xlink="http://www.w3.org/1999/xlink">
    <!-- Generator: Sketch 53.2 (72643) - https://sketchapp.com -->
    <title>Group 3</title>
    <desc>Created with Sketch.</desc>
    <defs>
        <polygon id="path-1" points="0 0 12 0 12 15 0 15"></polygon>
    </defs>
    <g id="Page-1" stroke="none" stroke-width="1" fill="none" fill-rule="evenodd">
        <g id="Group-3">
            <mask id="mask-2" fill="white">
                <use xlink:href="#path-1"></use>
            </mask>
            <g id="Clip-2"></g>
            <path d="M11.512987,0 C10.6166883,0.0724637681 9.72077922,0.362318841 8.86344156,0.634057971 C7.92857143,0.942028986 6.95454545,1.26811594 6.01948052,1.26811594 C5.08441558,1.26811594 4.12987013,0.942028986 3.17532468,0.634057971 C2.31818182,0.344202899 1.42207792,0.0543478261 0.525974026,0 L0.506493506,0 L0.487012987,0 L0.448051948,0 L0.38961039,0 C0.37012987,0 0.350649351,0 0.331168831,0.018115942 C0.311688312,0.018115942 0.292207792,0.018115942 0.292207792,0.0362318841 C0.272727273,0.0362318841 0.253246753,0.0543478261 0.253246753,0.0543478261 C0.233766234,0.0543478261 0.233766234,0.0724637681 0.214285714,0.0724637681 C0.194805195,0.0905797101 0.175324675,0.0905797101 0.175324675,0.108695652 L0.155844156,0.126811594 C0.136363636,0.144927536 0.136363636,0.163043478 0.116883117,0.163043478 L0.0974025974,0.18115942 C0.0779220779,0.199275362 0.0779220779,0.217391304 0.0584415584,0.235507246 C0.0584415584,0.235507246 0.0584415584,0.253623188 0.038961039,0.253623188 C0.0194805195,0.27173913 0.0194805195,0.307971014 0.0194805195,0.326086957 C0.0194805195,0.362318841 0,0.380434783 0,0.416666667 L0,7.5 L0,14.5471014 C0,14.8007246 0.214285714,15 0.487012987,15 C0.75974026,15 0.974025974,14.8007246 0.974025974,14.5471014 L0.974025974,8.02536232 C1.57792208,8.13405797 2.2012987,8.33333333 2.84415584,8.55072464 C3.85714286,8.87681159 4.90909091,9.22101449 6,9.22101449 C7.09090909,9.22101449 8.14285714,8.87681159 9.15564935,8.55072464 C9.99350649,8.27898551 10.7922078,8.00724638 11.5519481,7.97101449 C11.8051948,7.95289855 12,7.75362319 12,7.51811594 L12,0.452898551 C12,0.326086957 11.9415584,0.199275362 11.8441558,0.126811594 C11.7855195,0.0362318841 11.6493506,0 11.512987,0" id="Fill-1" fill="#000000" mask="url(#mask-2)"></path>
        </g>
    </g>
</svg>