<?xml version="1.0" encoding="UTF-8"?>
<svg width="24px" height="15px" viewBox="0 0 24 15" version="1.1" xmlns="http://www.w3.org/2000/svg" xmlns:xlink="http://www.w3.org/1999/xlink">
    <!-- Generator: Sketch 57.1 (83088) - https://sketch.com -->
    <title>folder</title>
    <desc>Created with Sketch.</desc>
    <g id="Page-1" stroke="none" stroke-width="1" fill="none" fill-rule="evenodd" opacity="0.87">
        <g id="sprite-icons" transform="translate(-37.000000, -74.000000)" fill="#152938" fill-rule="nonzero">
            <g id="sprite-icons-(3)">
                <g id="folder" transform="translate(37.000000, 74.000000)">
                    <path d="M0.580451873,14.7638017 L19.5770586,14.7638017 C19.9464372,14.7638017 20.3685839,14.4546121 20.5005048,14.093891 L23.7193742,5.48811474 C23.8512951,5.12739359 23.6666059,4.81820403 23.2972275,4.81820403 L4.3006207,4.81820403 C3.93124223,4.81820403 3.50909542,5.12739359 3.37717453,5.48811474 L0.131920881,14.093891 C-4.4408921e-16,14.4546121 0.184689232,14.7638017 0.580451873,14.7638017 Z" id="Shape"></path>
                    <path d="M19.6825954,1.52018202 L7.20288007,1.52018202 C6.9390383,1.52018202 6.70158072,1.39135303 6.59604401,1.15946086 L6.2794339,0.566847532 C6.1738972,0.334955361 5.93643962,0.206126376 5.67259786,0.206126376 L1.10813539,0.206126376 C0.844293635,0.206126376 0.60683605,0.334955361 0.501299345,0.566847532 L0.0791525282,1.39135303 C0.026384176,1.46865042 0,1.57171361 0,1.6747768 L0,3.29802201 L0,3.52991418 L0,12.5737089 L3.00779607,4.61207766 C3.11333277,4.35441968 3.35079036,4.1740591 3.6410163,4.1740591 L19.6825954,4.1740591 C20.0519738,4.1740591 20.3685839,3.89063534 20.3685839,3.50414839 L20.3685839,2.19009274 C20.3421997,1.80360578 20.0519738,1.52018202 19.6825954,1.52018202 Z" id="Shape"></path>
                </g>
            </g>
        </g>
    </g>
</svg>