<?xml version="1.0" encoding="UTF-8"?>
<svg width="16px" height="13px" viewBox="0 0 16 13" version="1.1" xmlns="http://www.w3.org/2000/svg" xmlns:xlink="http://www.w3.org/1999/xlink">
    <!-- Generator: Sketch 52.6 (67491) - http://www.bohemiancoding.com/sketch -->
    <title>Combined Shape</title>
    <desc>Created with Sketch.</desc>
    <g id="Page-1" stroke="none" stroke-width="1" fill="none" fill-rule="evenodd">
        <g id="Group-17" transform="translate(-7.000000, -8.000000)" fill="#000000">
            <path d="M22.0825278,15.0951111 L20.7341389,19.8211528 C20.5358889,20.5152083 19.8936528,21 19.1726944,21 L11.875,21 C11.5756389,21 11.3333333,20.7575139 11.3333333,20.4583333 L11.3333333,12.875 C11.3333333,12.7583611 11.3708889,12.6449722 11.4407639,12.5514444 L14.36125,8.62995833 C14.6853472,8.22406944 15.1519028,8 15.6524028,8 C16.5564444,8 17.2916667,8.73522222 17.2916667,9.63926389 L17.2916667,12.3333333 L20.0010833,12.3333333 C20.6861111,12.3333333 21.3155278,12.6469583 21.7280972,13.1942222 C22.14175,13.7420278 22.2708472,14.435 22.0825278,15.0951111 Z M9.70833333,12.3333333 C10.0076944,12.3333333 10.25,12.5758194 10.25,12.875 L10.25,20.4583333 C10.25,20.7575139 10.0076944,21 9.70833333,21 L7.54166667,21 C7.24230556,21 7,20.7575139 7,20.4583333 L7,12.875 C7,12.5758194 7.24230556,12.3333333 7.54166667,12.3333333 L9.70833333,12.3333333 Z" id="Combined-Shape"></path>
        </g>
    </g>
</svg>