<svg xmlns="http://www.w3.org/2000/svg" width="238" height="117" viewBox="0 0 238 117">
  <g fill="none" fill-rule="evenodd" transform="translate(1)">
    <path fill="#FFF" fill-rule="nonzero" d="M14.5 8.5C14.8 8.6 14.9 9 14.7 9.3 14.6 9.4 14.6 9.5 14.5 9.5L3.1 16.5C2.6 16.8 2.3 16.6 2.3 16L2.3 2C2.3 1.5 2.7 1.2 3.1 1.5L14.5 8.5zM22 1L24.2 1C24.8 1 25.2 1.4 25.2 2L25.2 16C25.2 16.6 24.8 17 24.2 17L22 17C21.4 17 21 16.6 21 16L21 2C21 1.5 21.4 1 22 1zM31.8 1L34 1C34.6 1 35 1.4 35 2L35 16C35 16.6 34.6 17 34 17L31.8 17C31.2 17 30.8 16.6 30.8 16L30.8 2C30.8 1.5 31.2 1 31.8 1zM79 1.4C79 .8 79.4.4 80 .4L85.4.4C86 .4 86.1.7 85.7 1.1L79.7 7.1C79.3 7.5 79 7.4 79 6.8L79 1.4zM79 17.2C79 17.8 79.4 18.2 80 18.2L85.4 18.2C86 18.2 86.1 17.9 85.7 17.5L79.7 11.5C79.3 11.1 79 11.2 79 11.8L79 17.2zM96.8 1.4C96.8.8 96.4.4 95.8.4L90.4.4C89.8.4 89.7.7 90.1 1.1L96.1 7.1C96.5 7.5 96.8 7.4 96.8 6.8L96.8 1.4zM96.8 17.2C96.8 17.8 96.4 18.2 95.8 18.2L90.4 18.2C89.8 18.2 89.7 17.9 90.1 17.5L96.1 11.5C96.5 11.1 96.8 11.2 96.8 11.8L96.8 17.2zM110.7 5C110.7 5.6 111.1 6 111.7 6L115.8 6C116.4 6 116.5 5.7 116.1 5.3L111.4.6C111 .2 110.7.3 110.7.9L110.7 5zM103.6 6C104.2 6 104.6 5.6 104.6 5L104.6.9C104.6.3 104.3.2 103.9.6L99.2 5.3C98.8 5.7 98.9 6 99.5 6L103.6 6zM104.6 13.1C104.6 12.5 104.2 12.1 103.6 12.1L99.5 12.1C98.9 12.1 98.8 12.4 99.2 12.8L103.9 17.5C104.3 17.9 104.6 17.8 104.6 17.2L104.6 13.1zM111.7 12.1C111.1 12.1 110.7 12.5 110.7 13.1L110.7 17.2C110.7 17.7 111 17.9 111.4 17.5L116.1 12.8C116.5 12.4 116.4 12.1 115.8 12.1L111.7 12.1zM65 5.8C64.5 6.2 63.8 6.4 63.2 6.4L60 6.4C59.4 6.4 59 6.8 59 7.4L59 13.1C59 13.7 59.4 14.1 60 14.1L64.2 14.1C64.5 14.3 64.7 14.5 65 14.7L68.5 17.3C68.9 17.6 69.3 17.4 69.3 16.9L69.3 3.5C69.3 3 68.9 2.8 68.5 3.1L65 5.8z"/>
    <path stroke="#FFF" stroke-linecap="round" stroke-width="1.5" d="M71.9,2.5 C71.9,2.5 75.8,1.7 75.8,10.2 C75.8,18.7 71.9,18 71.9,18"/>
    <path stroke="#FFF" stroke-linecap="round" stroke-width="1.5" d="M70.6,6.4 C70.6,6.4 73.2,6 73.2,10.2 C73.2,14.4 70.6,14.1 70.6,14.1"/>
    <path fill="#FFF" fill-rule="nonzero" d="M45,5.8 C44.5,6.2 43.8,6.4 43.2,6.4 L40,6.4 C39.4,6.4 39,6.8 39,7.4 L39,13.1 C39,13.7 39.4,14.1 40,14.1 L44.2,14.1 C44.5,14.3 44.7,14.5 45,14.7 L48.5,17.3 C48.9,17.6 49.3,17.4 49.3,16.9 L49.3,3.5 C49.3,3 48.9,2.8 48.5,3.1 L45,5.8 Z"/>
    <path stroke="#FFF" stroke-linecap="round" stroke-width="2" d="M50.8,7 L56.2,12.4 M50.8,12.4 L56.2,7"/>
    <path stroke="#FFF" d="M126.7,8.6 C120.5,4.4 120.2,16.4 126.7,12.5 M133.2,8.6 C127,4.4 126.7,16.4 133.2,12.5"/>
    <path fill="#FFF" fill-rule="nonzero" d="M120.2 3.4L135.9 3.4 135.9 16.5 120.2 16.5 120.2 3.4zM118.8 2L118.8 17.7 137.1 17.7 137.1 2 118.8 2zM141.2 3L155.2 3C156.3 3 157.2 3.9 157.2 5L157.2 15C157.2 16.1 156.3 17 155.2 17L141.2 17C140.1 17 139.2 16.1 139.2 15L139.2 5C139.2 3.9 140.1 3 141.2 3z"/>
    <path fill="#FFF" fill-rule="nonzero" d="M144.4 13.8C143.6 13.8 142.8 13.4 142.3 12.8 141.2 11.4 141.3 9.4 142.4 8 142.9 7.4 144.4 6.3 147 8.2L146.4 9C145 8 143.8 7.9 143.1 8.7 142.3 9.7 142.3 11.1 143 12.2 143.7 13.1 144.9 13 146.4 12.1L146.9 13C146.2 13.5 145.3 13.7 144.4 13.8zM151.9 13.8C151.1 13.8 150.3 13.4 149.8 12.8 148.7 11.4 148.8 9.4 149.9 8 150.4 7.4 151.9 6.3 154.5 8.2L154 9C152.6 8 151.4 7.9 150.7 8.7 149.9 9.7 149.9 11.1 150.6 12.2 151.3 13.1 152.5 13 154 12.1L154.5 13C153.7 13.5 152.8 13.7 151.9 13.8zM39.804 65.5374486C40.212 65.6728708 40.348 66.0791376 40.212 66.4854043 40.144 66.6885377 40.008 66.8239599 39.804 66.8916711L19.2 78.7411175C18.52 79.1473843 18.044 78.8088287 18.044 78.0640063L18.044 54.3651133C18.044 53.620291 18.588 53.3494465 19.2 53.6880021L39.804 65.5374486z"/>
    <path stroke="#FFF" stroke-width="3" d="M0.5,66.8916711 C0.5,52.8754686 11.924,41.5 26,41.5 C40.076,41.5 51.5,52.8754686 51.5,66.8916711 C51.5,80.9078735 40.076,92.2833421 26,92.2833421 C11.924,92.2833421 0.5,80.9078735 0.5,66.8916711 Z" opacity=".75"/>
    <path fill="#FFF" fill-rule="nonzero" d="M119.804,65.5374486 C120.212,65.6728708 120.348,66.0791376 120.212,66.4854043 C120.144,66.6885377 120.008,66.8239599 119.804,66.8916711 L99.2,78.7411175 C98.52,79.1473843 98.044,78.8088287 98.044,78.0640063 L98.044,54.3651133 C98.044,53.620291 98.588,53.3494465 99.2,53.6880021 L119.804,65.5374486 Z"/>
    <path stroke="#FFF" stroke-width="3" d="M80.5,66.8916711 C80.5,52.8754686 91.924,41.5 106,41.5 C120.076,41.5 131.5,52.8754686 131.5,66.8916711 C131.5,80.9078735 120.076,92.2833421 106,92.2833421 C91.924,92.2833421 80.5,80.9078735 80.5,66.8916711 Z"/>
    <circle cx="199.9" cy="47.1" r="8.1" fill="#FFF" fill-rule="nonzero"/>
    <circle cx="231.9" cy="79" r="5" fill="#FFF" fill-rule="nonzero" opacity=".4"/>
    <circle cx="199.9" cy="110.9" r="6" fill="#FFF" fill-rule="nonzero" opacity=".6"/>
    <circle cx="168.1" cy="79" r="7" fill="#FFF" fill-rule="nonzero" opacity=".8"/>
    <circle cx="176.2" cy="56.3" r="7.5" fill="#FFF" fill-rule="nonzero" opacity=".9"/>
    <circle cx="224.3" cy="56.1" r="4.5" fill="#FFF" fill-rule="nonzero" opacity=".3"/>
    <circle cx="223.8" cy="102.8" r="5.5" fill="#FFF" fill-rule="nonzero" opacity=".5"/>
    <circle cx="176.2" cy="102.8" r="6.5" fill="#FFF" fill-rule="nonzero" opacity=".7"/>
    <path fill="#FFF" fill-rule="nonzero" d="M176,9.4 C176,9.8 175.6,10.1 175.1,10.1 C175,10.1 174.9,10.1 174.9,10 L170,8.2 C169.5,8 169.4,7.6 169.9,7.4 L176.1,3.8 C176.6,3.5 176.9,3.7 176.8,4.3 L176,9.4 Z"/>
    <path fill="#FFF" fill-rule="nonzero" d="M167.4 15.9C166.4 15.9 165.4 15.7 164.5 15.2 162.5 14.2 161.3 12.2 161.3 10 161.4 6.6 164.2 4 167.6 4 170.1 4.1 172.4 5.7 173.2 8.1L173.3 8 175.4 9.1C174.8 4.7 170.7 1.6 166.3 2.2 162.4 2.8 159.4 6.1 159.3 10.1 159.3 13 161 15.7 163.6 17.1 164.8 17.7 166.1 18 167.4 18.1 170 18.1 172.4 16.9 174 14.8L172.2 13.9C171 15.1 169.2 15.9 167.4 15.9zM181.4 3.2C182.2 3.2 182.9 3.9 182.9 4.7 182.9 5.5 182.2 6.2 181.4 6.2 180.6 6.2 179.9 5.5 179.9 4.7 179.9 3.8 180.6 3.2 181.4 3.2zM186.5 3.2L195 3.2C195.9 3.2 196.5 3.9 196.5 4.7 196.5 5.5 195.8 6.2 195 6.2L186.5 6.2C185.6 6.2 185 5.5 185 4.7 184.9 3.8 185.6 3.2 186.5 3.2zM181.4 8.2C182.2 8.2 182.9 8.9 182.9 9.7 182.9 10.5 182.2 11.2 181.4 11.2 180.6 11.2 179.9 10.5 179.9 9.7 179.9 8.8 180.6 8.2 181.4 8.2zM186.5 8.2L195 8.2C195.9 8.2 196.5 8.9 196.5 9.7 196.5 10.5 195.8 11.2 195 11.2L186.5 11.2C185.6 11.2 185 10.5 185 9.7 184.9 8.8 185.6 8.2 186.5 8.2zM181.4 13.2C182.2 13.2 182.9 13.9 182.9 14.7 182.9 15.5 182.2 16.2 181.4 16.2 180.6 16.2 179.9 15.5 179.9 14.7 179.9 13.8 180.6 13.2 181.4 13.2zM186.5 13.2L195 13.2C195.9 13.2 196.5 13.9 196.5 14.7 196.5 15.5 195.8 16.2 195 16.2L186.5 16.2C185.6 16.2 185 15.5 185 14.7 184.9 13.8 185.6 13.2 186.5 13.2z"/>
  </g>
</svg>
