<?xml version="1.0" encoding="UTF-8"?>
<svg width="15px" height="13px" viewBox="0 0 15 13" version="1.1" xmlns="http://www.w3.org/2000/svg" xmlns:xlink="http://www.w3.org/1999/xlink">
    <!-- Generator: Sketch 57.1 (83088) - https://sketch.com -->
    <title>Group</title>
    <desc>Created with Sketch.</desc>
    <g id="Page-1" stroke="none" stroke-width="1" fill="none" fill-rule="evenodd" opacity="0.54">
        <g id="Artboard" transform="translate(-691.000000, -916.000000)" fill="#000000" fill-rule="nonzero">
            <g id="Group" transform="translate(691.000000, 916.000000)">
                <g>
                    <g>
                        <path d="M1.06666667,1.13333333 C0.772533333,1.13333333 0.533333333,1.37253333 0.533333333,1.66666667 L0.533333333,11.2666667 C0.533333333,11.5608 0.772533333,11.8 1.06666667,11.8 L13.3333333,11.8 C13.6274667,11.8 13.8666667,11.5608 13.8666667,11.2666667 L13.8666667,3.26666667 C13.8666667,2.97253333 13.6274667,2.73333333 13.3333333,2.73333333 L5.73893333,2.73333333 C5.56933333,2.73333333 5.41093333,2.65733333 5.30506667,2.5248 L4.27146667,1.2328 C4.2208,1.1696 4.14533333,1.13333333 4.06426667,1.13333333 L1.06666667,1.13333333 Z M13.3333333,12.3333333 L1.06666667,12.3333333 C0.4784,12.3333333 0,11.8549333 0,11.2666667 L0,1.66666667 C0,1.0784 0.4784,0.6 1.06666667,0.6 L4.06426667,0.6 C4.308,0.6 4.53546667,0.709333333 4.68773333,0.899733333 L5.72133333,2.19146667 L13.3333333,2.2 C13.9216,2.2 14.4,2.6784 14.4,3.26666667 L14.4,11.2666667 C14.4,11.8549333 13.9216,12.3333333 13.3333333,12.3333333 L13.3333333,12.3333333 Z" id="Shape"></path>
                        <path d="M12.5333333,4.33333333 L8.26666667,4.33333333 C8.1192,4.33333333 8,4.21386667 8,4.06666667 C8,3.91946667 8.1192,3.8 8.26666667,3.8 L12.5333333,3.8 C12.6808,3.8 12.8,3.91946667 12.8,4.06666667 C12.8,4.21386667 12.6808,4.33333333 12.5333333,4.33333333" id="Path"></path>
                        <path d="M12.5333333,5.4 L10.4,5.4 C10.2525333,5.4 10.1333333,5.28053333 10.1333333,5.13333333 C10.1333333,4.98613333 10.2525333,4.86666667 10.4,4.86666667 L12.5333333,4.86666667 C12.6808,4.86666667 12.8,4.98613333 12.8,5.13333333 C12.8,5.28053333 12.6808,5.4 12.5333333,5.4" id="Path"></path>
                    </g>
                </g>
            </g>
        </g>
    </g>
</svg>