<?xml version="1.0" encoding="UTF-8"?>
<svg width="24px" height="24px" viewBox="0 0 24 24" version="1.1" xmlns="http://www.w3.org/2000/svg" xmlns:xlink="http://www.w3.org/1999/xlink">
    <!-- Generator: Sketch 52.6 (67491) - http://www.bohemiancoding.com/sketch -->
    <title>iconfinder_outlook_2916273</title>
    <desc>Created with Sketch.</desc>
    <g id="Page-1" stroke="none" stroke-width="1" fill="none" fill-rule="evenodd">
        <g id="ICONS" transform="translate(-63.000000, -184.000000)">
            <g id="iconfinder_outlook_2916273" transform="translate(63.000000, 184.000000)">
                <g id="Layer_x0020_1" fill="#0072C6">
                    <g id="_394369904">
                        <path d="M14.4755369,10.4785066 L14.4755369,5.90382478 L14.4755369,5.65345068 L14.7270188,5.65345068 L22.5803826,5.65363533 L22.5803826,5.6526198 C22.8060147,5.6526198 23.1152895,5.80799575 23.3350131,6.06649408 C23.5069144,6.2686767 23.6329324,6.53705335 23.6329324,6.84651277 L23.6329324,6.97982405 L23.5220551,7.05460392 L16.6417529,11.6934487 L16.5768513,11.7248378 C16.5309679,11.7393321 16.470867,11.7461639 16.4155668,11.7461639 C16.3620207,11.7461639 16.3017352,11.7391475 16.2559441,11.725761 L16.1920581,11.6973262 L14.5934306,10.6905675 L14.4755369,10.6164339 L14.4755369,10.4785066 Z" id="Path"></path>
                        <path d="M14.8684544,11.336998 L16.3274928,12.3392329 L16.3343245,12.3441259 C16.3971027,12.390194 16.4898851,12.3425564 16.5082569,12.3323088 L23.2441694,7.84505487 L23.6341325,7.5854487 L23.6341325,8.0543462 L23.6341325,16.4621888 C23.6341325,16.9581364 23.4800491,17.3269581 23.234845,17.5828714 C22.95142,17.878575 22.5549944,18.0127172 22.1377965,18.0127172 L14.7260033,18.0127172 L14.4746137,18.0127172 L14.474706,17.7612353 L14.474706,11.5441659 L14.474706,11.2927763 L14.7260033,11.2927763 L14.7270188,11.2927763 L14.8684544,11.336998 Z" id="Path"></path>
                        <path d="M7.18099114,9.14087005 C6.92913992,9.14087005 6.7052619,9.19866289 6.50991103,9.31406392 C6.30782073,9.43325012 6.12945688,9.61586072 5.97518878,9.86161877 L5.97463485,9.86134181 C5.81335036,10.1190092 5.69093294,10.4237603 5.60756723,10.7754103 C5.52272439,11.1336152 5.48025681,11.538719 5.48025681,11.9904448 C5.48025681,12.4492793 5.52272439,12.857522 5.60756723,13.2151729 C5.69019437,13.5632225 5.81242715,13.8624343 5.97398861,14.1128084 C6.12825671,14.3523809 6.30329701,14.5296369 6.49874021,14.6450379 C6.68689006,14.7559153 6.89968957,14.8113078 7.13750803,14.8113078 L7.13750803,14.8125079 C7.38529714,14.8125079 7.6058516,14.757577 7.79898678,14.6478076 C7.99535318,14.5361917 8.16836242,14.3652135 8.31810681,14.1347807 C8.47523686,13.8927155 8.59433073,13.5992276 8.67520378,13.254317 C8.75829253,12.899805 8.79992922,12.4916546 8.79992922,12.0302351 C8.79992922,11.5466586 8.7594927,11.1193054 8.67825037,10.7484527 C8.59959302,10.3892323 8.48326877,10.084112 8.32946227,9.83327627 C8.18387232,9.59638102 8.01529448,9.42069448 7.8234518,9.3064013 C7.63696372,9.19533934 7.4227794,9.13966988 7.18099114,9.13966988 L7.18099114,9.14087005 Z" id="Path"></path>
                        <path d="M14.1177014,23.6909099 L14.1177014,0.304197136 L14.1177014,0 L13.8190435,0.0577005189 L0.204305997,2.69309094 L0,2.73260426 L0,2.93958756 L0,20.8365344 L0,21.0400095 L0.200428523,21.0820155 L13.8150737,23.9364833 L14.1177014,24 L14.1177014,23.6909099 Z M7.21173398,7.6572743 C7.70149598,7.6572743 8.14592846,7.75799633 8.54447748,7.95971734 C8.94182634,8.16079211 9.29107604,8.46092713 9.59176498,8.86021472 L9.59222659,8.85984544 C9.88866877,9.25285521 10.110608,9.70670442 10.2579521,10.2214854 C10.4032651,10.7292499 10.4759216,11.2956382 10.4759216,11.9207426 L10.474906,11.9207426 C10.4753676,12.5624647 10.4003108,13.1440859 10.2500125,13.6656063 C10.0974985,14.1948816 9.86789659,14.6613787 9.56148375,15.0648208 C9.24971631,15.4749099 8.88920346,15.7833538 8.48012986,15.9900601 C8.06874824,16.1976897 7.61231406,16.3017352 7.11073499,16.3017352 L7.11073499,16.300812 C6.61903425,16.3006274 6.17266303,16.200367 5.77115974,15.9999385 C5.37021038,15.7996946 5.01569839,15.5006674 4.70753146,15.1028569 C4.40462681,14.710955 4.17751757,14.260891 4.02648069,13.7526648 C3.87719791,13.2502548 3.80241804,12.6930063 3.80241804,12.0806422 C3.80241804,11.435412 3.87775183,10.8496363 4.02851175,10.3235922 C4.18084112,9.79163958 4.41090463,9.3206187 4.71870228,8.91071422 C5.03111597,8.49453191 5.3955986,8.18165662 5.81215019,7.97208834 C6.23064051,7.76168916 6.69722999,7.6563511 7.21173398,7.6563511 L7.21173398,7.6572743 Z" id="Shape"></path>
                    </g>
                </g>
                <rect id="Rectangle" x="9.23208303e-05" y="0.169316403" width="23.6339479" height="23.6339479"></rect>
            </g>
        </g>
    </g>
</svg>