<?xml version="1.0" encoding="UTF-8"?>
<svg width="32px" height="32px" viewBox="0 0 32 32" version="1.1" xmlns="http://www.w3.org/2000/svg" xmlns:xlink="http://www.w3.org/1999/xlink">
    <!-- Generator: Sketch 52.4 (67378) - http://www.bohemiancoding.com/sketch -->
    <title>Untitled</title>
    <desc>Created with Sketch.</desc>
    <g id="Page-1" stroke="none" stroke-width="1" fill="none" fill-rule="evenodd">
        <g id="Group">
            <path d="M0.000111887767,15.9538625 C-0.028687897,7.06849026 7.43685632,-0.231007734 16.441589,0.00559447855 C24.7615269,0.229407382 32.0350725,7.09406888 31.9998728,16.0721636 C31.9671778,24.9013389 24.7772827,32.032317 15.9407928,31.9996491 C7.1043028,31.9669811 -0.0325831251,24.7830378 0.000111887767,15.9538625 Z" id="Shape" fill="#DCBF83" fill-rule="nonzero" opacity="0.541093"></path>
            <path d="M22.9151407,15.4582768 C19.7151646,13.561196 16.5045219,11.6790361 13.2832126,9.81179699 C12.4800186,9.3417899 11.8400234,9.6711146 11.8400234,10.5887475 C11.8080237,14.3701198 11.8080237,18.1514921 11.8400234,21.9328644 C11.8400234,22.856892 12.4800186,23.2117953 13.2800127,22.7417882 C16.5269217,20.8660229 19.7610309,18.9689421 22.9823402,17.0505458 C23.2191384,16.9002714 23.3599373,16.574144 23.6447352,16.2352273 C23.4333106,15.9465527 23.189225,15.6854791 22.9151407,15.4582768 Z" id="Path" fill="#FFFFFF"></path>
        </g>
    </g>
</svg>