<?xml version="1.0" encoding="UTF-8"?>
<svg width="136px" height="135px" viewBox="0 0 136 135" version="1.1" xmlns="http://www.w3.org/2000/svg" xmlns:xlink="http://www.w3.org/1999/xlink">
    <!-- Generator: Sketch 52.4 (67378) - http://www.bohemiancoding.com/sketch -->
    <title>iconfinder_microsoft_office_power_point_1784851 2</title>
    <desc>Created with Sketch.</desc>
    <g id="Page-1" stroke="none" stroke-width="1" fill="none" fill-rule="evenodd">
        <g id="iconfinder_microsoft_office_power_point_1784851-2">
            <g id="iconfinder_microsoft_office_power_point_1784851" transform="translate(0.850120, 0.000000)">
                <path d="M13.759922,27.509844 L75.4495723,16.1899082 L75.4495723,117.859332 L13.7399221,108.699384 L13.759922,27.509844 Z M77.969558,49.029722 L78.0195577,42.6697581 L112.539362,42.679758 L112.539362,98.069444 L77.969558,98.069444 L77.9895579,92.419476 L101.959422,92.419476 L101.959422,87.489504 L77.969558,87.489504 L77.969558,83.249528 L101.959422,83.249528 L101.959422,78.669554 L77.969558,78.669554 L77.969558,74.0695801 C93.2294715,76.559566 96.1794547,66.149625 95.959456,61.379652 L82.549532,61.379652 L82.549532,48.329726 C80.969541,48.5197249 79.2095509,48.6297243 77.969558,49.029722 Z M77.969558,35.9597961 L120.319318,35.979796 L120.299318,86.42951 L116.41934,86.42951 L116.41934,39.509776 L77.969558,39.509776 L77.969558,35.9597961 Z M0,134.759236 L134.779236,134.759236 L134.759236,0 L0,0 L0,134.759236 Z" id="Shape" fill="#EE781A"></path>
                <path d="M42.2197606,56.1396817 C47.1197329,55.6696844 49.5097193,56.4596799 49.2797206,61.6596504 C49.0797218,66.1096252 46.5997358,66.9396205 42.149761,66.6896219 L42.2197606,56.1396817 Z M36.2897943,50.2197153 L36.159795,84.489521 L41.9497622,84.8595189 L42.1297612,72.9695863 C46.9397339,72.5195889 50.6497129,72.4395893 53.1296988,69.7096048 C55.4096859,67.199619 56.5396795,62.7296444 55.9996825,58.2596697 C54.6596901,47.3497316 45.9697394,50.0397163 36.2897943,50.2197153 Z" id="Shape" fill="#EE781A"></path>
                <path d="M84.66952,59.259664 L97.719446,59.259664 C97.719446,51.859706 93.839468,46.559736 84.6895199,46.559736 L84.66952,59.259664 Z" id="Path" fill="#EE781A"></path>
                <path d="M42.149761,66.6896219 C46.5997358,66.9396205 49.0797218,66.1096252 49.2797206,61.6596504 C49.5097193,56.4596799 47.1197329,55.6696844 42.2197606,56.1396817 L42.149761,66.6896219 Z" id="Path"></path>
            </g>
        </g>
    </g>
</svg>