<?xml version="1.0" encoding="UTF-8"?>
<svg width="24px" height="24px" viewBox="0 0 24 24" version="1.1" xmlns="http://www.w3.org/2000/svg" xmlns:xlink="http://www.w3.org/1999/xlink">
    <!-- Generator: Sketch 52.6 (67491) - http://www.bohemiancoding.com/sketch -->
    <title>iconfinder_logo_brand_brands_logos_powerpoint_2993675</title>
    <desc>Created with Sketch.</desc>
    <defs>
        <linearGradient x1="-45%" y1="25%" x2="93.536377%" y2="101.964654%" id="linearGradient-1">
            <stop stop-color="#000000" stop-opacity="0.1" offset="0%"></stop>
            <stop stop-color="#000000" stop-opacity="0" offset="100%"></stop>
        </linearGradient>
        <linearGradient x1="-0.00582517571%" y1="49.9977372%" x2="100.000358%" y2="49.9977372%" id="linearGradient-2">
            <stop stop-color="#FFFFFF" offset="0%"></stop>
            <stop stop-color="#000000" offset="100%"></stop>
        </linearGradient>
    </defs>
    <g id="Page-1" stroke="none" stroke-width="1" fill="none" fill-rule="evenodd">
        <g id="ICONS" transform="translate(-415.000000, -93.000000)">
            <g id="iconfinder_logo_brand_brands_logos_powerpoint_2993675" transform="translate(415.000000, 93.000000)">
                <rect id="Rectangle" fill="#FFFFFF" x="12" y="3.5" width="11.5" height="17"></rect>
                <path d="M23.5,21 L13.5,21 C13.2236328,21 13,20.7763672 13,20.5 C13,20.2236328 13.2236328,20 13.5,20 L23,20 L23,4 L13.5,4 C13.2236328,4 13,3.7763672 13,3.5 C13,3.2236328 13.2236328,3 13.5,3 L23.5,3 C23.7763672,3 24,3.2236328 24,3.5 L24,20.5 C24,20.7763672 23.7763672,21 23.5,21 Z" id="Path" fill="#CC5334"></path>
                <polygon id="Path" fill="#CC5334" points="14 0 0 2.6086957 0 21.391304 14 24"></polygon>
                <polygon id="Path" fill="#FFFFFF" opacity="0.2" points="0 2.6087036 0 2.8587036 14 0.25 14 0"></polygon>
                <polygon id="Path" fill="#000000" opacity="0.1" points="0 21.3912964 14 24 14 23.75 0 21.1412964"></polygon>
                <path d="M16.5,6 C14.5670166,6 13,7.5670166 13,9.5 C13,11.4329834 14.5670166,13 16.5,13 C18.4329834,13 20,11.4329834 20,9.5 L16.5,9.5 L16.5,6 Z" id="Path" fill="#CC5334"></path>
                <path d="M17.5,5 L17.5,8.5 L21,8.5 C21,6.5670166 19.4329834,5 17.5,5 Z" id="Path" fill="#CC5334"></path>
                <rect id="Rectangle" fill="#CC5334" x="13.5" y="14.5" width="8" height="1"></rect>
                <rect id="Rectangle" fill="#CC5334" x="13.5" y="17.5" width="8" height="1"></rect>
                <path d="M23.5,21 C23.7763672,21 24,20.7763672 24,20.5 L24,13 L14,3 L14,21 L23.5,21 Z" id="Path" fill="url(#linearGradient-1)"></path>
                <path d="M6.25,13.25 L6.5,13.25 C8.0166016,13.25 9.25,12.0166016 9.25,10.5 C9.25,8.9833984 8.0166016,7.75 6.5,7.75 L4.75,7.75 L4.75,16.3035889 L6.25,16.4107056 L6.25,13.25 Z M6.25,9.25 L6.5,9.25 C7.1894531,9.25 7.75,9.8105469 7.75,10.5 C7.75,11.1894531 7.1894531,11.75 6.5,11.75 L6.25,11.75 L6.25,9.25 Z" id="Shape" fill="#FFFFFF" fill-rule="nonzero"></path>
                <polygon id="Path" fill="url(#linearGradient-2)" opacity="0.05" points="14 0 0 2.6086957 0 21.3913037 14 24"></polygon>
                <path d="M23.5,3 L14,3 L14,0 L0,2.6087036 L0,21.3912964 L14,24 L14,21 L23.5,21 C23.7763672,21 24,20.7763672 24,20.5 L24,3.5 C24,3.2236328 23.7763672,3 23.5,3 Z" id="Path"></path>
            </g>
        </g>
    </g>
</svg>