<?xml version="1.0" encoding="UTF-8"?>
<svg width="13px" height="13px" viewBox="0 0 13 13" version="1.1" xmlns="http://www.w3.org/2000/svg" xmlns:xlink="http://www.w3.org/1999/xlink">
    <!-- Generator: Sketch 53.2 (72643) - https://sketchapp.com -->
    <title>reject</title>
    <desc>Created with Sketch.</desc>
    <g id="Page-1" stroke="none" stroke-width="1" fill="none" fill-rule="evenodd">
        <g id="reject" fill="#FFFFFF" fill-rule="nonzero">
            <g id="noun_Error_1102749">
                <path d="M12.1412308,10.6356923 C12.5612308,11.0556923 12.5612308,11.7384615 12.1390769,12.1584615 L12.1390769,12.1584615 C11.7190769,12.5784615 11.0363077,12.5763077 10.6163077,12.1563077 L0.781846154,2.28738462 C0.361846154,1.86523077 0.361846154,1.18461538 0.784,0.762461538 L0.784,0.762461538 C1.20615385,0.344615385 1.88676923,0.344615385 2.30676923,0.766769231 L12.1412308,10.6356923 Z" id="Path"></path>
                <g id="Path-2" transform="translate(0.467115, 0.449342)">
                    <path d="M0.314731286,10.1863508 C-0.105268714,10.6063508 -0.105268714,11.28912 0.316885132,11.70912 C0.736885132,12.12912 1.41965436,12.1269662 1.83965436,11.7069662 L11.6719621,1.83588929 C12.0919621,1.41373544 12.0919621,0.733120056 11.6698082,0.31096621 C11.2476544,-0.104726097 10.5691928,-0.104726097 10.1491928,0.317427749 L0.314731286,10.1863508 Z" id="Path"></path>
                </g>
            </g>
        </g>
    </g>
</svg>