<?xml version="1.0" encoding="UTF-8"?>
<svg width="20px" height="20px" viewBox="0 0 20 20" version="1.1" xmlns="http://www.w3.org/2000/svg" xmlns:xlink="http://www.w3.org/1999/xlink">
    <!-- Generator: Sketch 52.6 (67491) - http://www.bohemiancoding.com/sketch -->
    <title>Group 2</title>
    <desc>Created with Sketch.</desc>
    <g id="Page-1" stroke="none" stroke-width="1" fill="none" fill-rule="evenodd">
        <g id="Group-2" transform="translate(-2.000000, -1.000000)" fill-rule="nonzero">
            <g id="Group">
                <rect id="Rectangle" x="0" y="0" width="24" height="22"></rect>
                <g id="search" transform="translate(2.000000, 1.000000)" fill="#FFFFFF">
                    <path d="M19.63421,17.8663896 L14.682219,12.9076009 C15.663492,11.5650904 16.2491307,9.91507746 16.2491307,8.12506347 C16.2491307,3.63752841 12.6121705,0 8.12456536,0 C3.63758523,2.2204634e-15 0,3.63752841 0,8.12506347 C0,12.6125985 3.63758523,16.250127 8.12456536,16.250127 C9.9189824,16.250127 11.5715211,15.6619974 12.9159276,14.6763646 L17.8660436,19.6339034 C18.35418,20.1220323 19.1454486,20.1220323 19.633585,19.6339034 C20.1217215,19.1457746 20.1223465,18.3545184 19.63421,17.8663896 Z M2.50005857,8.12506347 C2.50005857,5.0181642 5.01824257,2.50001954 8.12456536,2.50001954 C11.2315131,2.50001954 13.7496971,5.0181642 13.7496971,8.12506347 C13.7496971,11.2319627 11.2315131,13.7501074 8.12456536,13.7501074 C5.01824257,13.7501074 2.50005857,11.2319627 2.50005857,8.12506347 Z" id="Shape"></path>
                </g>
            </g>
        </g>
    </g>
</svg>