<?xml version="1.0" encoding="UTF-8"?>
<svg width="31px" height="32px" viewBox="0 0 31 32" version="1.1" xmlns="http://www.w3.org/2000/svg" xmlns:xlink="http://www.w3.org/1999/xlink">
    <!-- Generator: Sketch 53.1 (72631) - https://sketchapp.com -->
    <title>Shape</title>
    <desc>Created with Sketch.</desc>
    <g id="Page-1" stroke="none" stroke-width="1" fill="none" fill-rule="evenodd">
        <path d="M23.5708866,7.24256151 L26.609384,5.46300737 C26.8843057,5.30206946 27.2366257,5.39763745 27.3959753,5.67723599 L30.0404767,10.3241851 C30.1991258,10.6027178 30.1049169,10.9615419 29.829645,11.1224798 L26.9116228,12.8313349 C24.6001793,14.1845635 24.6138379,17.8250289 26.9144245,19.1715072 L29.829645,20.878586 C30.1045667,21.0398792 30.1991258,21.3987033 30.0411771,21.677236 L27.3959753,26.3241851 C27.2380266,26.601652 26.8843057,26.6986411 26.609384,26.5377032 L23.8156894,24.9020339 C22.6998927,24.2476241 21.4142398,24.2625455 20.3114011,24.9411138 C20.2175425,24.9979572 20.125435,25.052669 20.0301755,25.1080913 C18.9189315,25.7433165 18.2797824,26.8542499 18.2797824,28.1477929 L18.2797824,31.4166445 C18.2797824,31.7378098 18.0206206,32 17.7036726,32 L12.4136191,32 C12.0977218,32 11.83856,31.738165 11.83856,31.4166445 L11.83856,28.1477929 C11.83856,26.8549605 11.1983602,25.7443823 10.0878167,25.1080913 C9.99325764,25.0548006 9.89939903,24.9979572 9.80659107,24.9411138 C8.70340215,24.261835 7.41844973,24.2476241 6.30125206,24.9020339 L3.50790768,26.5377032 C3.23333622,26.6979305 2.88031576,26.6030731 2.72131647,26.3231193 L0.0771652573,21.6768807 C-0.0818340343,21.398348 0.0127250158,21.0405898 0.288697354,20.8792966 L3.20426806,19.171152 C5.51255954,17.8189893 5.52166523,14.1881162 3.20706981,12.8320455 L0.288697354,11.1221245 C0.0130752345,10.9611866 -0.0807833782,10.6030731 0.0771652573,10.3245404 L2.72271735,5.67688072 C2.88066598,5.39834799 3.23438687,5.30206946 3.50895834,5.4626521 L6.54780603,7.24256151 C8.85154466,8.59223732 11.83856,6.84536815 11.83856,4.14424016 L11.83856,0.584421352 C11.83856,0.262545519 12.0977218,0 12.4146698,0 L17.7043731,0 C18.021321,0 18.2804828,0.262190248 18.2804828,0.584421352 L18.2804828,4.14424016 C18.2797824,6.84536815 21.2678484,8.59152678 23.5708866,7.24256151 L23.5708866,7.24256151 L23.5708866,7.24256151 Z M15.0591712,10.2694733 C11.8595731,10.2694733 9.26550317,12.9009681 9.26550317,16.1460165 C9.26550317,19.3910649 11.8595731,22.0225597 15.0591712,22.0225597 C18.2584191,22.0225597 20.852489,19.3910649 20.852489,16.1460165 C20.852489,12.9006128 18.2587693,10.2694733 15.0591712,10.2694733 Z" id="Shape" fill="#C99E3B" fill-rule="nonzero"></path>
    </g>
</svg>