<?xml version="1.0" encoding="UTF-8"?>
<svg width="24px" height="24px" viewBox="0 0 24 24" version="1.1" xmlns="http://www.w3.org/2000/svg" xmlns:xlink="http://www.w3.org/1999/xlink">
    <!-- Generator: Sketch 52.6 (67491) - http://www.bohemiancoding.com/sketch -->
    <title>txt-attachment-icon</title>
    <desc>Created with Sketch.</desc>
    <g id="Page-1" stroke="none" stroke-width="1" fill="none" fill-rule="evenodd">
        <g id="txt-attachment-icon" fill="#344D62" fill-rule="nonzero">
            <path d="M0,2.4 L0,21.6 C0,22.92 1.08,24 2.4,24 L21.6,24 C22.92,24 24,22.92 24,21.6 L24,2.4 C24,1.08 22.92,0 21.6,0 L2.4,0 C1.08,0 0,1.08 0,2.4 Z M16,8.4 L6,8.4 L6,6 L16,6 L16,8.4 Z M18,13.2 L6,13.2 L6,10.8 L18,10.8 L18,13.2 Z M14.4,18 L6,18 L6,15.6 L14.4,15.6 L14.4,18 Z" id="Shape"></path>
        </g>
    </g>
</svg>