<?xml version="1.0" encoding="UTF-8"?>
<svg width="24px" height="24px" viewBox="0 0 24 24" version="1.1" xmlns="http://www.w3.org/2000/svg" xmlns:xlink="http://www.w3.org/1999/xlink">
    <!-- Generator: Sketch 52.6 (67491) - http://www.bohemiancoding.com/sketch -->
    <title>Group 32</title>
    <desc>Created with Sketch.</desc>
    <g id="Page-1" stroke="none" stroke-width="1" fill="none" fill-rule="evenodd">
        <g id="Artboard" transform="translate(-662.000000, -1767.000000)" fill="#757575">
            <g id="Group-32" transform="translate(662.000000, 1767.000000)">
                <g id="Group-31">
                    <g id="Group-30">
                        <g id="Group-29">
                            <g id="Group">
                                <path d="M8.19310345,23.8758621 C8.77241379,23.8758621 9.22758621,23.4206897 9.22758621,22.8413793 C9.22758621,22.262069 8.77241379,21.8068966 8.19310345,21.8068966 C4.75862069,21.8068966 2.19310345,19.0344828 2.19310345,15.3931034 L2.19310345,8.60689655 C2.19310345,5.08965517 5.08965517,2.19310345 8.60689655,2.19310345 L15.4344828,2.19310345 C18.9517241,2.19310345 21.8482759,5.08965517 21.8482759,8.60689655 L21.8482759,15.4344828 C21.8482759,19.0758621 19.2827586,21.8482759 15.8482759,21.8482759 C15.2689655,21.8482759 14.8137931,22.3034483 14.8137931,22.8827586 C14.8137931,23.462069 15.2689655,23.9172414 15.8482759,23.9172414 C20.3586207,23.9172414 23.9172414,20.1931034 23.9172414,15.4344828 L23.9172414,8.60689655 C23.9172414,3.93103448 20.1103448,0.124137931 15.4344828,0.124137931 L8.60689655,0.124137931 C3.93103448,0.124137931 0.124137931,3.93103448 0.124137931,8.60689655 L0.124137931,15.4344828 C0.124137931,20.1517241 3.64137931,23.8758621 8.19310345,23.8758621 Z" id="Path"></path>
                                <path d="M12,23.8758621 C12.5793103,23.8758621 13.0344828,23.4206897 13.0344828,22.8413793 L13.0344828,11.9586207 L16.3448276,15.2689655 C16.7586207,15.6827586 17.4206897,15.6827586 17.7931034,15.2689655 C18.2068966,14.8551724 18.2068966,14.1931034 17.7931034,13.8206897 L12.7448276,8.73103448 C12.537931,8.52413793 12.2896552,8.44137931 12,8.44137931 C11.7103448,8.44137931 11.462069,8.52413793 11.2551724,8.73103448 L6.20689655,13.8206897 C5.79310345,14.2344828 5.79310345,14.8965517 6.20689655,15.2689655 C6.62068966,15.6827586 7.28275862,15.6827586 7.65517241,15.2689655 L10.9655172,11.9586207 L10.9655172,22.8413793 C10.9655172,23.4206897 11.4206897,23.8758621 12,23.8758621 Z" id="Path"></path>
                            </g>
                        </g>
                    </g>
                </g>
            </g>
        </g>
    </g>
</svg>