<?xml version="1.0" encoding="UTF-8"?>
<svg width="135px" height="135px" viewBox="0 0 135 135" version="1.1" xmlns="http://www.w3.org/2000/svg" xmlns:xlink="http://www.w3.org/1999/xlink">
    <!-- Generator: Sketch 52.4 (67378) - http://www.bohemiancoding.com/sketch -->
    <title>iconfinder_microsoft_office_excel_1784856 2</title>
    <desc>Created with Sketch.</desc>
    <g id="Page-1" stroke="none" stroke-width="1" fill="none" fill-rule="evenodd">
        <g id="iconfinder_microsoft_office_excel_1784856-2" fill="#069E40">
            <g id="iconfinder_microsoft_office_excel_1784856">
                <path d="M75.149574,15.169914 L75.149574,117.819332 L14.11992,107.239392 L14.11992,25.749854 L75.149574,15.169914 Z M78.0495575,27.0198468 L118.579328,27.0198468 C120.819315,27.0198468 121.249313,27.4598443 121.249313,29.6898317 L121.249313,103.289414 C121.249313,105.519402 120.819315,105.959399 118.579328,105.959399 L78.0495575,105.959399 L78.0495575,99.0194386 L93.5194698,99.0194386 L93.5194698,88.3594991 L78.0495575,88.3594991 L78.0495575,85.1595172 L93.5194698,85.1595172 L93.5194698,74.4895777 L78.0495575,74.4895777 L78.0495575,71.2895958 L93.5194698,71.2895958 L93.5194698,60.6196563 L78.0495575,60.6196563 L78.0495575,57.4196745 L93.5194698,57.4196745 L93.5194698,46.7597349 L78.0495575,46.7597349 L78.0495575,43.559753 L93.5194698,43.559753 L93.5194698,32.8898135 L78.0495575,32.8898135 L78.0495575,27.0198468 Z M0.0199998866,134.759236 L134.759236,134.759236 L134.779236,0 L0,0 L0.0199998866,134.759236 Z" id="Shape"></path>
                <polygon id="Path" points="50.4797138 47.4397311 44.9197453 60.1596589 40.5997698 48.2097267 33.6498092 48.5197249 40.5497701 65.9296262 32.7798142 82.9595297 39.6097754 83.4695268 45.0897444 71.2195962 50.1897155 84.1795228 58.0496709 84.6095203 49.5297192 65.8596266 57.679673 46.919734"></polygon>
                <polygon id="Path" points="96.7194517 99.0194386 114.319352 99.0194386 114.319352 88.3594991 96.7194517 88.3594991"></polygon>
                <polygon id="Path" points="96.7194517 85.1595172 114.319352 85.1595172 114.319352 74.4895777 96.7194517 74.4895777"></polygon>
                <polygon id="Path" points="96.7194517 71.2895958 114.319352 71.2895958 114.319352 60.6196563 96.7194517 60.6196563"></polygon>
                <polygon id="Path" points="96.7194517 43.559753 114.319352 43.559753 114.319352 32.8898135 96.7194517 32.8898135"></polygon>
                <polygon id="Path" points="96.7194517 57.4196745 114.319352 57.4196745 114.319352 46.7597349 96.7194517 46.7597349"></polygon>
            </g>
        </g>
    </g>
</svg>