<?xml version="1.0" encoding="UTF-8"?>
<svg width="22px" height="23px" viewBox="0 0 22 23" version="1.1" xmlns="http://www.w3.org/2000/svg" xmlns:xlink="http://www.w3.org/1999/xlink">
    <!-- Generator: Sketch 52.6 (67491) - http://www.bohemiancoding.com/sketch -->
    <title>iconfinder_file-zip-alt_285690</title>
    <desc>Created with Sketch.</desc>
    <g id="Page-1" stroke="none" stroke-width="1" fill="none" fill-rule="evenodd">
        <g id="ICONS" transform="translate(-148.000000, -184.000000)">
            <g id="iconfinder_file-zip-alt_285690" transform="translate(148.000000, 184.000000)">
                <g id="Group" transform="translate(0.000000, 0.553846)">
                    <path d="M2.2,3.44615385 C0.9845,3.44615385 0,4.26043956 0,5.25567766 L0,12.4937729 L0,14.3032967 L0,15.2080586 L0,20.63663 C0,21.6409158 0.9845,22.4461538 2.2,22.4461538 L4.4,22.4461538 L17.6,22.4461538 L19.8,22.4461538 C21.0155,22.4461538 22,21.6409158 22,20.63663 L22,15.2080586 L22,14.3032967 L22,12.4937729 L22,8.87472527 L22,5.25567766 C22,4.26043956 21.0155,3.44615385 19.8,3.44615385 L17.6,3.44615385 L15.4,3.44615385 L13.2,3.44615385 L4.4,3.44615385 L2.2,3.44615385 Z" id="Path" fill="#E67E22"></path>
                    <path d="M2.2,2.44615385 C0.9845,2.44615385 0,3.25591575 0,4.25567766 L0,11.4937729 L0,13.3032967 L0,14.2080586 L0,19.63663 C0,20.6363919 0.9845,21.4461538 2.2,21.4461538 L4.4,21.4461538 L17.6,21.4461538 L19.8,21.4461538 C21.0155,21.4461538 22,20.6363919 22,19.63663 L22,14.2080586 L22,13.3032967 L22,11.4937729 L22,7.87472527 L22,4.25567766 C22,3.25591575 21.0155,2.44615385 19.8,2.44615385 L17.6,2.44615385 L15.4,2.44615385 L13.2,2.44615385 L4.4,2.44615385 L2.2,2.44615385 Z" id="Path" fill="#F39C12"></path>
                    <path d="M2.2,1.44615385 C0.9845,1.44615385 0,2.25591575 0,3.25567766 L0,10.4937729 L0,12.3032967 L0,13.2080586 L0,18.63663 C0,19.6363919 0.9845,20.4461538 2.2,20.4461538 L4.4,20.4461538 L17.6,20.4461538 L19.8,20.4461538 C21.0155,20.4461538 22,19.6363919 22,18.63663 L22,13.2080586 L22,12.3032967 L22,10.4937729 L22,6.87472527 L22,3.25567766 C22,2.25591575 21.0155,1.44615385 19.8,1.44615385 L17.6,1.44615385 L15.4,1.44615385 L13.2,1.44615385 L4.4,1.44615385 L2.2,1.44615385 Z" id="Path" fill="#E67E22"></path>
                    <path d="M2.2,0.446153846 C0.9845,0.446153846 0,1.25591575 0,2.25567766 L0,9.49377289 L0,11.3032967 L0,12.2080586 L0,17.63663 C0,18.6363919 0.9845,19.4461538 2.2,19.4461538 L4.4,19.4461538 L17.6,19.4461538 L19.8,19.4461538 C21.0155,19.4461538 22,18.6363919 22,17.63663 L22,12.2080586 L22,11.3032967 L22,9.49377289 L22,5.87472527 L22,2.25567766 C22,1.25591575 21.0155,0.446153846 19.8,0.446153846 L17.6,0.446153846 L15.4,0.446153846 L13.2,0.446153846 L4.4,0.446153846 L2.2,0.446153846 Z" id="Path" fill="#F1C40F"></path>
                </g>
                <path d="M14.8461538,12 C13.8261538,12 13,12.8307692 13,13.8461538 L13,17.5384615 C13,18.5538462 13.8261538,19.3846154 14.8461538,19.3846154 C15.8661538,19.3846154 16.6923077,18.5538462 16.6923077,17.5384615 L16.6923077,13.8461538 C16.6923077,12.8307692 15.8661538,12 14.8461538,12 Z M14.8461538,12.9230769 C15.3556923,12.9230769 15.7692308,13.2923077 15.7692308,13.8461538 C15.7692308,14.3076923 15.3556923,14.7692308 14.8461538,14.7692308 C14.3366154,14.7692308 13.9230769,14.3076923 13.9230769,13.8461538 C13.9230769,13.2923077 14.3366154,12.9230769 14.8461538,12.9230769 Z M14.8461538,15.6923077 C15.3556923,15.6923077 15.7692308,16.0615385 15.7692308,16.6153846 L15.7692308,17.5384615 C15.7692308,18 15.3556923,18.4615385 14.8461538,18.4615385 C14.3366154,18.4615385 13.9230769,18 13.9230769,17.5384615 L13.9230769,16.6153846 C13.9230769,16.0615385 14.3366154,15.6923077 14.8461538,15.6923077 Z" id="Shape" fill="#F39C12" fill-rule="nonzero"></path>
                <g id="Group" transform="translate(13.000000, 0.553846)">
                    <path d="M0,0.369230769 L0,9.6 C0,10.6153846 0.826153846,11.4461538 1.84615385,11.4461538 C2.86615385,11.4461538 3.69230769,10.6153846 3.69230769,9.6 L3.69230769,0.369230769 L0,0.369230769 Z" id="Path" fill="#34495E"></path>
                    <path d="M1.84615385,0.369230769 L1.84615385,1.29230769 L2.76923077,1.29230769 L2.76923077,0.369230769 L1.84615385,0.369230769 Z M1.84615385,1.29230769 L0.923076923,1.29230769 L0.923076923,2.21538462 L1.84615385,2.21538462 L1.84615385,1.29230769 Z M1.84615385,2.21538462 L1.84615385,3.13846154 L2.76923077,3.13846154 L2.76923077,2.21538462 L1.84615385,2.21538462 Z M1.84615385,3.13846154 L0.923076923,3.13846154 L0.923076923,4.06153846 L1.84615385,4.06153846 L1.84615385,3.13846154 Z M1.84615385,4.06153846 L1.84615385,4.98461538 L2.76923077,4.98461538 L2.76923077,4.06153846 L1.84615385,4.06153846 Z M1.84615385,4.98461538 L0.923076923,4.98461538 L0.923076923,5.90769231 L1.84615385,5.90769231 L1.84615385,4.98461538 Z M1.84615385,5.90769231 L1.84615385,6.83076923 L2.76923077,6.83076923 L2.76923077,5.90769231 L1.84615385,5.90769231 Z M1.84615385,6.83076923 L0.923076923,6.83076923 L0.923076923,7.75384615 L1.84615385,7.75384615 L1.84615385,6.83076923 Z M1.84615385,7.75384615 L1.84615385,8.67692308 L2.76923077,8.67692308 L2.76923077,7.75384615 L1.84615385,7.75384615 Z M1.84615385,8.67692308 L0.923076923,8.67692308 L0.923076923,9.6 L1.84615385,9.6 L1.84615385,8.67692308 Z M1.84615385,9.6 L1.84615385,10.5230769 C2.35569231,10.5230769 2.76923077,10.0615385 2.76923077,9.6 L1.84615385,9.6 Z" id="Shape" fill="#95A5A6" fill-rule="nonzero"></path>
                    <path d="M0.923076923,0.369230769 L0.923076923,1.29230769 L1.92307692,1.29230769 L1.92307692,0.369230769 L0.923076923,0.369230769 Z M0.923076923,2.21538462 L0.923076923,3.13846154 L1.92307692,3.13846154 L1.92307692,2.21538462 L0.923076923,2.21538462 Z M0.923076923,4.06153846 L0.923076923,4.98461538 L1.92307692,4.98461538 L1.92307692,4.06153846 L0.923076923,4.06153846 Z M0.923076923,5.90769231 L0.923076923,6.83076923 L1.92307692,6.83076923 L1.92307692,5.90769231 L0.923076923,5.90769231 Z M0.923076923,7.75384615 L0.923076923,8.67692308 L1.92307692,8.67692308 L1.92307692,7.75384615 L0.923076923,7.75384615 Z M0.923076923,9.6 C0.923076923,10.0615385 1.37107692,10.5230769 1.92307692,10.5230769 L1.92307692,9.6 L0.923076923,9.6 Z" id="Shape" fill="#ECF0F1" fill-rule="nonzero"></path>
                </g>
                <path d="M14.8461538,11.0769231 C13.8261538,11.0769231 13,11.9076923 13,12.9230769 L13,16.6153846 C13,17.6307692 13.8261538,18.4615385 14.8461538,18.4615385 C15.8661538,18.4615385 16.6923077,17.6307692 16.6923077,16.6153846 L16.6923077,12.9230769 C16.6923077,11.9076923 15.8661538,11.0769231 14.8461538,11.0769231 Z M14.8461538,12 C15.3556923,12 15.7692308,12.3692308 15.7692308,12.9230769 C15.7692308,13.3846154 15.3556923,13.8461538 14.8461538,13.8461538 C14.3366154,13.8461538 13.9230769,13.3846154 13.9230769,12.9230769 C13.9230769,12.3692308 14.3366154,12 14.8461538,12 Z M14.8461538,14.7692308 C15.3556923,14.7692308 15.7692308,15.1384615 15.7692308,15.6923077 L15.7692308,16.6153846 C15.7692308,17.0769231 15.3556923,17.5384615 14.8461538,17.5384615 C14.3366154,17.5384615 13.9230769,17.0769231 13.9230769,16.6153846 L13.9230769,15.6923077 C13.9230769,15.1384615 14.3366154,14.7692308 14.8461538,14.7692308 Z" id="Shape" fill="#ECF0F1" fill-rule="nonzero"></path>
            </g>
        </g>
    </g>
</svg>