<svg xmlns="http://www.w3.org/2000/svg" width="48" height="48" viewBox="0 0 48 48">
  <defs>
    <linearGradient id="zip-a" x1="50%" x2="50%" y1="100%" y2="0%">
      <stop offset="0%" stop-color="#D0B200"/>
      <stop offset="100%" stop-color="#FAE485"/>
    </linearGradient>
  </defs>
  <g fill="none" fill-rule="evenodd">
    <rect width="48" height="48" fill="#F2F2F2" rx="2"/>
    <rect width="25" height="25" x="12" y="12" fill="url(#zip-a)" rx="2"/>
    <rect width="8" height="18" x="16" y="12" fill="#1D1D1D" rx="1"/>
    <g fill="#FFF" fill-rule="nonzero" transform="translate(18 15)">
      <path d="M2.26645194 1L3.7333003 1C3.88065436 1 4 .776355597 4 .500581801 4 .223877124 3.88065436 0 3.7333003 0L2.26645194 0C2.1192218 0 2.0000001.223877124 2.0000001.500581801 1.99987617.776355597 2.1192218 1 2.26645194 1zM1.73413485 2L.266360932 2C.119360436 2 0 2.2236444 0 2.49988364 0 2.77682104.119484383 3 .266360932 3L1.73413485 3C1.88138324 3 2 2.77682104 2 2.49988364 2 2.2236444 1.88138324 2 1.73413485 2zM2.26592317 5L3.73333333 5C3.88054523 5 4 4.77609506 4 4.50023299 4 4.22343896 3.88042131 4 3.73333333 4L2.26592317 4C2.11945477 4 2 4.22367195 2 4.50023299 2 4.77609506 2.11957869 5 2.26592317 5zM1.73365557 6L.266096548 6C.118981223 6 0 6.22354036 0 6.49965108 0 6.77576181.119105162 7 .266096548 7L1.73365557 7C1.88089484 7 2 6.77552919 2 6.49965108 2 6.22354036 1.8807709 6 1.73365557 6zM2.26592317 9L3.73333333 9C3.88054523 9 4 8.7773383 4 8.49976733 4 8.22429037 3.88042131 8 3.73333333 8L2.26592317 8C2.11945477 8 2 8.22452303 2 8.49976733 2 8.7773383 2.11957869 9 2.26592317 9zM3.56 11L.446666667 11C.217333333 11 0 11.2328 0 11.5084L0 17.4858C0 17.761.217333333 18 .446666667 18L3.56 18C3.78933333 18 4 17.761 4 17.4858L4 11.5084C4 11.2328 3.78933333 11 3.56 11zM3.66666667 16.5872C3.66666667 16.8106 3.455 17 3.26833333 17L.738333333 17C.551666667 17 .333333333 16.8106.333333333 16.5872L.333333333 16.1708C.333333333 15.947.551666667 15.8.738333333 15.8L3.26833333 15.8C3.455 15.8 3.66666667 15.947 3.66666667 16.1708L3.66666667 16.5872z"/>
    </g>
  </g>
</svg>
