<?xml version="1.0" encoding="UTF-8"?>
<svg width="24px" height="24px" viewBox="0 0 24 24" version="1.1" xmlns="http://www.w3.org/2000/svg" xmlns:xlink="http://www.w3.org/1999/xlink">
    <!-- Generator: Sketch 54.1 (76490) - https://sketchapp.com -->
    <title>Group 11</title>
    <desc>Created with Sketch.</desc>
    <g id="Page-1" stroke="none" stroke-width="1" fill="none" fill-rule="evenodd">
        <g id="Branch-Chart-Maximize-Mode" transform="translate(-1353.000000, -136.000000)" fill="#757575" fill-rule="nonzero">
            <g id="Group-11" transform="translate(1353.000000, 136.000000)">
                <path d="M24,0.936037437 C24,0.419078231 23.5809175,0 23.0639597,0 L14.7519531,0 L14.7519531,1.87207487 L22.1279195,1.87207487 L22.1279195,9.24804985 L24,9.24804985 L24,0.936037437 Z M9.24804692,22.1279251 L1.87208051,22.1279251 L1.87208051,14.7519501 L0,14.7519501 L0,23.0639625 C0,23.5809217 0.419082547,24 0.936040257,24 L9.24804692,24 L9.24804692,22.1279251 Z" id="Shape"></path>
                <g id="Group" transform="translate(3.000000, 3.000000)">
                    <path d="M12.6959378,12.0277306 C12.3718673,11.7026568 11.8952931,11.6070468 11.4949707,11.7600227 L10.6562001,10.9186553 C11.8762301,9.77133596 12.6196859,8.12684498 12.6196859,6.32937809 C12.6196859,2.84917624 9.79836642,0 6.30984297,0 C2.82131952,0 0,2.84917624 0,6.32937809 C0,9.80957994 2.84038248,12.6587562 6.30984297,12.6587562 C7.64425085,12.6587562 8.88334388,12.2380724 9.91274424,11.5114369 C9.91274424,11.5305589 9.93180721,11.5305589 9.93180721,11.5496809 L10.8087038,12.4292923 C10.6562001,12.8308541 10.7515149,13.3089038 11.0755854,13.6339776 L14.9644312,17.5348632 C15.1931868,17.764327 15.4791314,17.8790589 15.7650759,17.8790589 C16.0510205,17.8790589 16.356028,17.764327 16.5657207,17.5348632 C17.004169,17.0950574 17.004169,16.3684219 16.5657207,15.9094942 L12.6959378,12.0277306 Z M6.30984297,1.41502713 C9.01678467,1.41502713 11.2090262,3.61405577 11.2090262,6.32937809 C11.2090262,9.04470041 9.01678467,11.243729 6.30984297,11.243729 C3.60290127,11.243729 1.41065976,9.04470041 1.41065976,6.32937809 C1.41065976,3.61405577 3.60290127,1.41502713 6.30984297,1.41502713 Z" id="Shape"></path>
                </g>
            </g>
        </g>
    </g>
</svg>