<?xml version="1.0" encoding="UTF-8"?>
<svg width="19px" height="14px" viewBox="0 0 19 14" version="1.1" xmlns="http://www.w3.org/2000/svg" xmlns:xlink="http://www.w3.org/1999/xlink">
    <!-- Generator: Sketch 52.6 (67491) - http://www.bohemiancoding.com/sketch -->
    <title>Group 7</title>
    <desc>Created with Sketch.</desc>
    <defs>
        <polygon id="path-1" points="0 0.0131327434 14.4599558 0.0131327434 14.4599558 10.825977 0 10.825977"></polygon>
        <polygon id="path-3" points="0.0715734513 0.0780035398 14.5650796 0.0780035398 14.5650796 10.0353487 0.0715734513 10.0353487"></polygon>
    </defs>
    <g id="Page-1" stroke="none" stroke-width="1" fill="none" fill-rule="evenodd">
        <g id="Group-24" transform="translate(-4.000000, -7.000000)">
            <g id="Group-7" transform="translate(4.000000, 7.000000)">
                <g id="Group-3" transform="translate(0.000000, 0.110761)">
                    <mask id="mask-2" fill="white">
                        <use xlink:href="#path-1"></use>
                    </mask>
                    <g id="Clip-2"></g>
                    <path d="M7.27485841,6.95169381 C7.27485841,6.95169381 7.97275221,6.89631327 9.01618584,7.13493274 C9.92284071,7.31569381 10.670292,7.62034867 11.3059912,8.02312743 C12.3377788,8.59873805 13.4420442,9.47962301 14.4599558,10.825977 C14.2260442,8.60096814 13.7960088,3.31095044 6.28730088,2.56027788 C6.20354867,2.56027788 6.07779646,2.43440177 6.07779646,2.35052566 L6.07779646,0.254738053 C6.07779646,0.0452336283 5.76335398,-0.0386424779 5.65853982,0.0452336283 L0.0628761062,4.48831327 C-0.021,4.55112743 -0.021,4.67687965 0.0628761062,4.73969381 L5.65853982,9.47615398 C5.86816814,9.6857823 6.07779646,9.41333982 6.07779646,9.26664956 L6.07779646,7.17086195 C6.07779646,7.08710973 6.20354867,6.96123363 6.28730088,6.96123363 C6.6329646,6.94624248 6.9609115,6.94438407 7.27535398,6.95256106 L7.27485841,6.95169381 Z" id="Fill-1" fill="#FFFFFF" mask="url(#mask-2)"></path>
                </g>
                <g id="Group-6" transform="translate(4.088496, 3.951469)">
                    <mask id="mask-4" fill="white">
                        <use xlink:href="#path-3"></use>
                    </mask>
                    <g id="Clip-5"></g>
                    <path d="M12.7972018,0.0780035398 L8.53488319,0.0780035398 C11.7754496,2.55018053 11.5712726,8.72318938 11.5712726,8.72318938 C11.2812372,9.89510088 10.5892903,8.89056991 10.5892903,8.89056991 C9.24987434,6.52456991 8.21201593,5.96655221 8.21201593,5.96655221 C6.84571504,5.07810973 4.11621062,4.76403894 3.51706018,4.64658761 C2.91803363,4.52913628 2.94144956,5.0107115 2.94144956,5.0107115 L2.94144956,6.50251681 C2.62576814,7.5128708 1.88562655,7.09002124 1.73447611,6.9907823 C1.71589204,6.97901239 1.70536106,6.97108319 1.70536106,6.97108319 L0.0715734513,5.73127788 L0.0715734513,8.26750796 C0.0715734513,9.23982655 0.867095575,10.0353487 1.83953805,10.0353487 L12.7972018,10.0353487 C13.7695204,10.0353487 14.5651664,9.23982655 14.5651664,8.26750796 L14.5651664,1.84596814 C14.5651664,0.873649558 13.7695204,0.0780035398 12.7972018,0.0780035398" id="Fill-4" fill="#FFFFFF" mask="url(#mask-4)"></path>
                </g>
            </g>
        </g>
    </g>
</svg>