<?xml version="1.0" encoding="UTF-8"?>
<svg width="17px" height="11px" viewBox="0 0 17 11" version="1.1" xmlns="http://www.w3.org/2000/svg" xmlns:xlink="http://www.w3.org/1999/xlink">
    <!-- Generator: Sketch 52.6 (67491) - http://www.bohemiancoding.com/sketch -->
    <title>Path</title>
    <desc>Created with Sketch.</desc>
    <g id="Page-1" stroke="none" stroke-width="1" fill="none" fill-rule="evenodd">
        <g id="Group-25" transform="translate(-5.833333, -8.000000)" fill="#FFFFFF">
            <path d="M6.31186128,12.8816753 L12.705836,8.08619423 C12.8555944,7.98466815 13.0484988,7.9719069 13.2103261,8.05282057 C13.3721534,8.13373424 13.4776871,8.29571449 13.4863212,8.47643682 L13.4863212,11.0030074 C20.4556536,11.0030074 21.7764747,15.8435165 21.9916084,18.4251213 C22.0019003,18.6361994 21.8784573,18.8309808 21.6831859,18.9117827 C21.4879145,18.9925847 21.2629321,18.9419794 21.1210673,18.7853452 C18.0316468,15.1806044 13.4863212,16.0061176 13.4863212,16.0061176 L13.4863212,18.5326882 C13.4776871,18.7134105 13.3721534,18.8753908 13.2103261,18.9563044 C13.0484988,19.0372181 12.8555944,19.0244568 12.705836,18.9229308 L6.31186128,14.1274497 C6.11556785,13.9805583 6,13.7497322 6,13.5045625 C6,13.2593928 6.11556785,13.0285667 6.31186128,12.8816753 Z" id="Path" transform="translate(13.996103, 13.504563) scale(-1, 1) translate(-13.996103, -13.504563) "></path>
        </g>
    </g>
</svg>