<?xml version="1.0" encoding="UTF-8"?>
<svg width="20px" height="20px" viewBox="0 0 20 20" version="1.1" xmlns="http://www.w3.org/2000/svg" xmlns:xlink="http://www.w3.org/1999/xlink">
    <!-- Generator: Sketch 52.4 (67378) - http://www.bohemiancoding.com/sketch -->
    <title>Untitled</title>
    <desc>Created with Sketch.</desc>
    <g id="Page-1" stroke="none" stroke-width="1" fill="none" fill-rule="evenodd">
        <path d="M8.91891892,1.08108108 L8.91891892,8.91894595 L1.08108108,8.91894595 C0.484027027,8.91894595 0,9.40295135 0,10.0000324 C0,10.5971135 0.484027027,11.0811135 1.08108108,11.0811135 L8.91891892,11.0811135 L8.91891892,18.9189243 C8.91891892,19.5159784 9.40291892,20.0000054 10,20.0000054 C10.5970811,20.0000054 11.0810811,19.5159784 11.0810811,18.9189243 L11.0810811,11.0811135 L18.9189189,11.0811135 C19.515973,11.0811135 20,10.5971135 20,10.0000324 C20,9.40295135 19.515973,8.91894595 18.9189189,8.91894595 L11.0810811,8.91894595 L11.0810811,1.08108108 C11.0810811,0.484027027 10.5970811,0 10,0 C9.40291892,3.07261724e-14 8.91891892,0.484027027 8.91891892,1.08108108 Z" id="Path" fill="#FFFFFF"></path>
    </g>
</svg>