<svg xmlns="http://www.w3.org/2000/svg" width="30" height="30" viewBox="0 0 30 30">
  <path fill="#FFF" d="M7.78920308,6.59383033 C7.78920308,7.24935733 7.24935733,7.78920308 6.59383033,7.78920308 L1.19537275,7.78920308 C0.539845758,7.78920308 0,7.24935733 0,6.59383033 L0,1.19537275 C0,0.539845758 0.539845758,0 1.19537275,0 L6.59383033,0 C7.24935733,0 7.78920308,0.539845758 7.78920308,1.19537275 L7.78920308,6.59383033 Z M18.8946015,1.19537275 C18.8946015,0.539845758 18.3547558,0 17.6992288,0 L12.3007712,0 C11.6452442,0 11.1053985,0.539845758 11.1053985,1.19537275 L11.1053985,6.59383033 C11.1053985,7.24935733 11.6452442,7.78920308 12.3007712,7.78920308 L17.6992288,7.78920308 C18.3547558,7.78920308 18.8946015,7.24935733 18.8946015,6.59383033 L18.8946015,1.19537275 Z M30,1.19537275 C30,0.539845758 29.4601542,0 28.8046272,0 L23.4061697,0 C22.7506427,0 22.2107969,0.539845758 22.2107969,1.19537275 L22.2107969,6.59383033 C22.2107969,7.24935733 22.7506427,7.78920308 23.4061697,7.78920308 L28.8046272,7.78920308 C29.4601542,7.78920308 30,7.24935733 30,6.59383033 L30,1.19537275 Z M6.59383033,22.2107969 L1.19537275,22.2107969 C0.539845758,22.2107969 0,22.7506427 0,23.4061697 L0,28.8046272 C0,29.4601542 0.539845758,30 1.19537275,30 L6.59383033,30 C7.24935733,30 7.78920308,29.4601542 7.78920308,28.8046272 L7.78920308,23.4061697 C7.78920308,22.7506427 7.24935733,22.2107969 6.59383033,22.2107969 Z M7.78920308,12.3007712 C7.78920308,11.6452442 7.24935733,11.1053985 6.59383033,11.1053985 L1.19537275,11.1053985 C0.539845758,11.1053985 0,11.6452442 0,12.3007712 L0,17.6992288 C0,18.3547558 0.539845758,18.8946015 1.19537275,18.8946015 L6.59383033,18.8946015 C7.24935733,18.8946015 7.78920308,18.3547558 7.78920308,17.6992288 L7.78920308,12.3007712 Z M17.6992288,22.2107969 L12.3007712,22.2107969 C11.6452442,22.2107969 11.1053985,22.7506427 11.1053985,23.4061697 L11.1053985,28.8046272 C11.1053985,29.4601542 11.6452442,30 12.3007712,30 L17.6992288,30 C18.3547558,30 18.8946015,29.4601542 18.8946015,28.8046272 L18.8946015,23.4061697 C18.8946015,22.7506427 18.3547558,22.2107969 17.6992288,22.2107969 Z M18.8946015,12.3007712 C18.8946015,11.6452442 18.3547558,11.1053985 17.6992288,11.1053985 L12.3007712,11.1053985 C11.6452442,11.1053985 11.1053985,11.6452442 11.1053985,12.3007712 L11.1053985,17.6992288 C11.1053985,18.3547558 11.6452442,18.8946015 12.3007712,18.8946015 L17.6992288,18.8946015 C18.3547558,18.8946015 18.8946015,18.3547558 18.8946015,17.6992288 L18.8946015,12.3007712 Z M23.4061697,30 L28.8046272,30 C29.4601542,30 30,29.4601542 30,28.8046272 L30,23.4061697 C30,22.7506427 29.4601542,22.2107969 28.8046272,22.2107969 L23.4061697,22.2107969 C22.7506427,22.2107969 22.2107969,22.7506427 22.2107969,23.4061697 L22.2107969,28.8046272 C22.2107969,29.4601542 22.7506427,30 23.4061697,30 Z M30,12.3007712 C30,11.6452442 29.4601542,11.1053985 28.8046272,11.1053985 L23.4061697,11.1053985 C22.7506427,11.1053985 22.2107969,11.6452442 22.2107969,12.3007712 L22.2107969,17.6992288 C22.2107969,18.3547558 22.7506427,18.8946015 23.4061697,18.8946015 L28.8046272,18.8946015 C29.4601542,18.8946015 30,18.3547558 30,17.6992288 L30,12.3007712 Z"/>
</svg>
