<svg xmlns="http://www.w3.org/2000/svg" width="17" height="10" viewBox="0 0 17 10">
  <path fill="#FFF" d="M11.9641915,0.000304700155 C11.8062569,0.00615562922 11.6677437,0.110527527 11.6145901,0.26373476 C11.5614366,0.416941993 11.6043832,0.588027061 11.7229854,0.695545915 L15.6184645,4.37659985 L0.404387431,4.37659985 L0.36820651,4.37659985 C0.166106508,4.38633323 -0.00910618886,4.58444718 0.000367153188,4.79250308 C0.00984057242,5.00053911 0.20229121,5.18095421 0.404387431,5.17116124 L15.6184645,5.17116124 L11.7229854,8.84600766 C11.6199589,8.9411889 11.5742726,9.08583689 11.6032224,9.22519026 C11.6321723,9.36454363 11.7313337,9.47730421 11.8631659,9.5207827 C11.9949982,9.56426118 12.1393524,9.5318125 12.2415786,9.43572119 L16.8727364,5.06563355 C16.9537601,4.99030081 17,4.88316768 17,4.77077679 C17,4.6583859 16.9537601,4.55125277 16.8727364,4.47592002 L12.2415786,0.105832385 C12.1663928,0.0341419388 12.0665968,-0.00382395678 11.9641915,0.000304700155 Z" transform="matrix(-1 0 0 1 17 0)"/>
</svg>
