<?xml version="1.0" encoding="UTF-8"?>
<svg width="22px" height="19px" viewBox="0 0 22 19" version="1.1" xmlns="http://www.w3.org/2000/svg" xmlns:xlink="http://www.w3.org/1999/xlink">
    <!-- Generator: Sketch 52.4 (67378) - http://www.bohemiancoding.com/sketch -->
    <title>Group 6</title>
    <desc>Created with Sketch.</desc>
    <g id="Page-1" stroke="none" stroke-width="1" fill="none" fill-rule="evenodd">
        <g id="Group-6" fill="#000000" fill-rule="nonzero">
            <g id="Group-4">
                <g id="Group">
                    <g id="Shape">
                        <path d="M13.3982705,14.0482867 L19.6856283,7.84258293 C19.8288206,7.70125033 19.8288206,7.47210492 19.6856283,7.33077233 L14.5001786,2.21266611 C14.3569863,2.07133351 14.1248258,2.07133351 13.9816336,2.21266611 L7.69427582,8.4183699 L13.3982705,14.0482867 Z M12.3611805,15.071908 L6.65718586,9.44199119 L2.31437172,13.7284051 C2.17117949,13.8697377 2.17117949,14.0988831 2.31437172,14.2402157 L5.52270505,17.4068824 C5.59146839,17.4747527 5.68473148,17.5128819 5.78197752,17.5128819 L9.73621028,17.5128819 C9.83345633,17.5128819 9.92671946,17.4747527 9.99548275,17.4068824 L12.3611805,15.071908 Z M9.73621028,18.9605009 L5.78197752,18.9605009 C5.29574729,18.9605009 4.82943179,18.7698552 4.48561509,18.4305036 L1.27728176,15.2638369 C0.561320557,14.557174 0.561320557,13.4114469 1.27728176,12.7047838 L12.9445436,1.18904484 C13.6605048,0.482381844 14.8213073,0.482381844 15.5372685,1.18904484 L20.7227182,6.30715107 C21.4386794,7.01381407 21.4386794,8.15954113 20.7227182,8.86620415 L11.0325727,18.4305036 C10.688756,18.7698552 10.2224405,18.9605009 9.73621028,18.9605009 Z"></path>
                    </g>
                </g>
                <rect id="Rectangle" x="6" y="18" width="16" height="1"></rect>
            </g>
        </g>
    </g>
</svg>