<?xml version="1.0" encoding="UTF-8"?>
<svg width="26px" height="26px" viewBox="0 0 26 26" version="1.1" xmlns="http://www.w3.org/2000/svg" xmlns:xlink="http://www.w3.org/1999/xlink">
    <!-- Generator: Sketch 52.6 (67491) - http://www.bohemiancoding.com/sketch -->
    <title>clear</title>
    <desc>Created with Sketch.</desc>
    <g id="Page-1" stroke="none" stroke-width="1" fill="none" fill-rule="evenodd">
        <g id="clear" transform="translate(1.000000, 1.000000)">
            <g id="Group-7" stroke-linecap="round" stroke-linejoin="round" stroke="#757575">
                <g id="button">
                    <g id="noun_677965_cc">
                        <path d="M13.99968,21 L13.99968,16.33376 C13.99968,14.6832 14.80992,12.25376 15.79904,10.93376 L24,0 L0,0 L8.2,10.93376 C9.19008,12.25376 10.00032,14.68288 10.00032,16.33376 L10.00032,24 L13.99968,21 Z" id="Shape"></path>
                    </g>
                </g>
            </g>
            <circle id="Oval" stroke="#757575" stroke-width="0.8" fill="#FFFFFF" cx="5.5" cy="7.5" r="4.5"></circle>
            <g id="Group" transform="translate(3.000000, 5.000000)" fill="#757575">
                <g id="Path">
                    <path d="M2.5000001,3.04557928 L0.659687863,4.88589132 C0.508683038,5.03689615 0.2637486,5.03756663 0.11309098,4.88690902 C-0.0386169328,4.7352011 -0.0371110298,4.49153185 0.114108675,4.34031213 L1.95442072,2.5000001 L0.114108675,0.659687863 C-0.0368961488,0.508683038 -0.0375666393,0.2637486 0.11309098,0.11309098 C0.264798893,-0.0386169328 0.508468352,-0.0371110298 0.659687863,0.114108675 L2.5000001,1.95442072 L4.34031213,0.114108675 C4.49131697,-0.0368961488 4.7362516,-0.0375666393 4.88690902,0.11309098 C5.03861693,0.264798893 5.03711103,0.508468352 4.88589132,0.659687863 L3.04557928,2.5000001 L4.88589132,4.34031213 C5.03689615,4.49131697 5.03756663,4.7362516 4.88690902,4.88690902 C4.7352011,5.03861693 4.49153185,5.03711103 4.34031213,4.88589132 L2.5000001,3.04557928 Z"></path>
                </g>
            </g>
        </g>
    </g>
</svg>