<svg xmlns="http://www.w3.org/2000/svg" width="28" height="18" viewBox="0 0 28 18">
  <path fill="#152938" d="M26.0090533,14.9765314 C26.4228999,14.1061229 26.6616136,13.133792 26.6616136,12.1037181 C26.6616136,8.45001742 23.7414635,5.47760709 20.1520013,5.47760709 C17.959414,5.47760709 16.0211501,6.58983886 14.8409068,8.28570165 C13.8586399,7.77337747 12.7560643,7.49086285 11.6123706,7.49086285 C8.46645138,7.49086285 5.74580043,9.55759874 4.83054087,12.5769011 C4.76696002,12.5738008 4.70490207,12.5722506 4.64360557,12.5722506 C2.0048102,12.5722506 0.0330426065,15.3175642 0.0330426065,17.7718372 C0.0330426065,20.4582451 2.14453577,22.727663 4.64360557,22.727663 L24.1450305,22.727663 C26.1247933,22.727663 27.8620352,20.836869 27.8620352,18.6817746 C27.8620352,17.1006228 27.1150554,15.7206028 26.0090533,14.9765314 Z M20.1520013,6.64021869 C23.1113659,6.64021869 25.5194428,9.09100395 25.5194428,12.1037181 C25.5194428,12.9648258 25.3176593,13.7767162 24.9673935,14.5017983 C24.7027906,14.4324292 24.4282889,14.3925129 24.1454112,14.3925129 C24.0445195,14.3925129 23.943247,14.3967758 23.8419745,14.4053016 C23.0043826,12.4610274 21.1148513,11.1860301 18.9999316,11.1860301 C18.6195887,11.1860301 18.2422916,11.2274965 17.8729897,11.3096544 C17.3647237,10.3458494 16.6542934,9.5300836 15.8128942,8.90072318 C16.7894503,7.53426701 18.3683111,6.64021869 20.1520013,6.64021869 Z M24.1454112,21.5650514 L4.64398629,21.5650514 C2.7963346,21.5650514 1.17559417,19.7924562 1.17559417,17.7718372 C1.17559417,15.9050705 2.69049343,13.7348622 4.64398629,13.7348622 C4.80350949,13.7348622 4.97026643,13.7492011 5.16862343,13.7798165 C5.46444568,13.8255459 5.74313537,13.6329399 5.81090417,13.3376366 C6.44480899,10.5795343 8.83080388,8.65347445 11.6127513,8.65347445 C12.551235,8.65347445 13.4546922,8.88328401 14.264872,9.29523605 C14.607904,9.46962779 14.9345649,9.67541005 15.238763,9.91335789 C16.0051597,10.5124904 16.6344958,11.3019037 17.0475809,12.2339306 C17.1667474,12.5028815 17.4652347,12.6385195 17.7420208,12.5486109 C18.1486336,12.4164607 18.5719983,12.3490292 18.9999316,12.3490292 C20.7847639,12.3490292 22.3655284,13.508153 22.9324258,15.233081 C23.0253224,15.5152081 23.315053,15.6787488 23.5967885,15.6163553 C23.7783937,15.5760515 23.9630446,15.5551245 24.1450305,15.5551245 C24.1979511,15.5551245 24.2489681,15.5609375 24.3011272,15.5644253 C24.7085015,15.5942657 25.0903673,15.7384295 25.425404,15.9728896 C26.1971308,16.513504 26.7194836,17.5238134 26.7194836,18.6813871 C26.7198643,20.1908444 25.4927921,21.5650514 24.1454112,21.5650514 Z" transform="translate(0 -5)"/>
</svg>
