<?xml version="1.0" encoding="UTF-8"?>
<svg width="17px" height="14px" viewBox="0 0 17 14" version="1.1" xmlns="http://www.w3.org/2000/svg" xmlns:xlink="http://www.w3.org/1999/xlink">
    <!-- Generator: Sketch 57.1 (83088) - https://sketch.com -->
    <title>Group</title>
    <desc>Created with Sketch.</desc>
    <g id="Page-1" stroke="none" stroke-width="1" fill="none" fill-rule="evenodd" opacity="0.54">
        <g id="Artboard" transform="translate(-792.000000, -916.000000)" fill="#000000" fill-rule="nonzero">
            <g id="Group" transform="translate(792.000000, 916.000000)">
                <g>
                    <g>
                        <path d="M1.06666667,2.13333333 C0.772533333,2.13333333 0.533333333,2.37253333 0.533333333,2.66666667 L0.533333333,12.2666667 C0.533333333,12.5608 0.772533333,12.8 1.06666667,12.8 L13.3333333,12.8 C13.6274667,12.8 13.8666667,12.5608 13.8666667,12.2666667 L13.8666667,4.26666667 C13.8666667,3.97253333 13.6274667,3.73333333 13.3333333,3.73333333 L5.73893333,3.73333333 C5.56933333,3.73333333 5.41093333,3.65733333 5.30506667,3.5248 L4.27146667,2.2328 C4.2208,2.1696 4.14533333,2.13333333 4.06426667,2.13333333 L1.06666667,2.13333333 Z M13.3333333,13.3333333 L1.06666667,13.3333333 C0.4784,13.3333333 0,12.8549333 0,12.2666667 L0,2.66666667 C0,2.0784 0.4784,1.6 1.06666667,1.6 L4.06426667,1.6 C4.308,1.6 4.53546667,1.70933333 4.68773333,1.89973333 L5.72133333,3.19146667 L13.3333333,3.2 C13.9216,3.2 14.4,3.6784 14.4,4.26666667 L14.4,12.2666667 C14.4,12.8549333 13.9216,13.3333333 13.3333333,13.3333333 L13.3333333,13.3333333 Z" id="Shape"></path>
                        <path d="M12.5333333,5.33333333 L8.26666667,5.33333333 C8.1192,5.33333333 8,5.21386667 8,5.06666667 C8,4.91946667 8.1192,4.8 8.26666667,4.8 L12.5333333,4.8 C12.6808,4.8 12.8,4.91946667 12.8,5.06666667 C12.8,5.21386667 12.6808,5.33333333 12.5333333,5.33333333" id="Path"></path>
                        <path d="M12.5333333,6.4 L10.4,6.4 C10.2525333,6.4 10.1333333,6.28053333 10.1333333,6.13333333 C10.1333333,5.98613333 10.2525333,5.86666667 10.4,5.86666667 L12.5333333,5.86666667 C12.6808,5.86666667 12.8,5.98613333 12.8,6.13333333 C12.8,6.28053333 12.6808,6.4 12.5333333,6.4" id="Path"></path>
                        <path d="M14.4,11.7333333 L14.1333333,11.7333333 C13.9858667,11.7333333 13.8666667,11.6138667 13.8666667,11.4666667 C13.8666667,11.3194667 13.9858667,11.2 14.1333333,11.2 L14.4,11.2 C14.5474667,11.2 14.6666667,11.3194667 14.6666667,11.4666667 C14.6666667,11.6138667 14.5474667,11.7333333 14.4,11.7333333" id="Path"></path>
                        <path d="M15.7940872,10.28816 C15.6327853,10.28816 15.502402,10.1686933 15.502402,10.0214933 L15.502402,9.53456 C15.502402,9.38736 15.6327853,9.26789333 15.7940872,9.26789333 C15.9553891,9.26789333 16.0857724,9.38736 16.0857724,9.53456 L16.0857724,10.0214933 C16.0857724,10.1686933 15.9553891,10.28816 15.7940872,10.28816 M15.3775607,11.6148267 C15.2795545,11.6148267 15.1838817,11.56976 15.1290449,11.48816 C15.0447479,11.36256 15.0873339,11.1982933 15.224426,11.1212267 C15.3265158,11.0636267 15.4061459,10.9798933 15.4542739,10.8796267 C15.5187364,10.7452267 15.6893722,10.6830933 15.8381317,10.7420267 C15.9857244,10.80096 16.0533953,10.9580267 15.9886412,11.0932267 C15.8929685,11.29376 15.7342917,11.4604267 15.5304038,11.57536 C15.4825674,11.6020267 15.4297724,11.6148267 15.3775607,11.6148267" id="Shape"></path>
                        <path d="M3.80442667,0.533333333 L3.31749333,0.533333333 C3.17002667,0.533333333 3.05082667,0.413866667 3.05082667,0.266666667 C3.05082667,0.119466667 3.17002667,0 3.31749333,0 L3.80442667,0 C3.95189333,0 4.07109333,0.119466667 4.07109333,0.266666667 C4.07109333,0.413866667 3.95189333,0.533333333 3.80442667,0.533333333 M5.26549333,0.533333333 L4.77856,0.533333333 C4.63136,0.533333333 4.51189333,0.413866667 4.51189333,0.266666667 C4.51189333,0.119466667 4.63136,0 4.77856,0 L5.26549333,0 C5.41296,0 5.53216,0.119466667 5.53216,0.266666667 C5.53216,0.413866667 5.41296,0.533333333 5.26549333,0.533333333 M1.98789333,0.9096 C1.93936,0.9096 1.89056,0.896533333 1.84656,0.8688 C1.72149333,0.790666667 1.68389333,0.6264 1.76202667,0.501333333 C1.87802667,0.315733333 2.04576,0.172 2.24709333,0.0856 C2.38122667,0.0277333333 2.53909333,0.0901333333 2.59722667,0.225866667 C2.65509333,0.361066667 2.59242667,0.517866667 2.45696,0.576 C2.35776,0.6184 2.27162667,0.692533333 2.21402667,0.784266667 C2.16362667,0.865066667 2.07669333,0.9096 1.98789333,0.9096 M6.44576,1.19013333 C6.36736,1.19013333 6.29002667,1.156 6.23722667,1.09013333 L5.93296,0.709866667 C5.84122667,0.594666667 5.85989333,0.426933333 5.97482667,0.334933333 C6.09002667,0.242666667 6.25722667,0.2616 6.34976,0.3768 L6.65402667,0.757066667 C6.74576,0.872 6.72709333,1.03973333 6.61216,1.13173333 C6.56309333,1.1712 6.50416,1.19013333 6.44576,1.19013333 M7.47216,2.13333333 L7.33909333,2.13333333 C7.16922667,2.13333333 7.01082667,2.05733333 6.90496,1.9248 L6.84576,1.85093333 C6.75376,1.736 6.77242667,1.568 6.88736,1.476 C7.00256,1.38373333 7.17029333,1.40293333 7.26202667,1.5176 L7.32122667,1.59146667 L7.47216,1.6 C7.61962667,1.6 7.73882667,1.71946667 7.73882667,1.86666667 C7.73882667,2.01386667 7.61962667,2.13333333 7.47216,2.13333333 M8.93296,2.13333333 L8.44602667,2.13333333 C8.29882667,2.13333333 8.17936,2.01386667 8.17936,1.86666667 C8.17936,1.71946667 8.29882667,1.6 8.44602667,1.6 L8.93296,1.6 C9.08042667,1.6 9.19962667,1.71946667 9.19962667,1.86666667 C9.19962667,2.01386667 9.08042667,2.13333333 8.93296,2.13333333 M10.3942933,2.13333333 L9.90709333,2.13333333 C9.75962667,2.13333333 9.64042667,2.01386667 9.64042667,1.86666667 C9.64042667,1.71946667 9.75962667,1.6 9.90709333,1.6 L10.3942933,1.6 C10.54176,1.6 10.66096,1.71946667 10.66096,1.86666667 C10.66096,2.01386667 10.54176,2.13333333 10.3942933,2.13333333 M11.8550933,2.13333333 L11.36816,2.13333333 C11.22096,2.13333333 11.1014933,2.01386667 11.1014933,1.86666667 C11.1014933,1.71946667 11.22096,1.6 11.36816,1.6 L11.8550933,1.6 C12.00256,1.6 12.12176,1.71946667 12.12176,1.86666667 C12.12176,2.01386667 12.00256,2.13333333 11.8550933,2.13333333 M13.31616,2.13333333 L12.8292267,2.13333333 C12.68176,2.13333333 12.56256,2.01386667 12.56256,1.86666667 C12.56256,1.71946667 12.68176,1.6 12.8292267,1.6 L13.31616,1.6 C13.4636267,1.6 13.5828267,1.71946667 13.5828267,1.86666667 C13.5828267,2.01386667 13.4636267,2.13333333 13.31616,2.13333333 M14.7772267,2.13333333 L14.2902933,2.13333333 C14.1430933,2.13333333 14.0236267,2.01386667 14.0236267,1.86666667 C14.0236267,1.71946667 14.1430933,1.6 14.2902933,1.6 L14.7772267,1.6 C14.9246933,1.6 15.0438933,1.71946667 15.0438933,1.86666667 C15.0438933,2.01386667 14.9246933,2.13333333 14.7772267,2.13333333 M15.7332267,2.98133333 C15.5860267,2.98133333 15.46656,2.86186667 15.46656,2.71466667 L15.46656,2.66666667 C15.46656,2.56826667 15.4396267,2.472 15.3884267,2.38826667 C15.3116267,2.2624 15.3516267,2.0984 15.4772267,2.02186667 C15.60256,1.94533333 15.7668267,1.9848 15.8436267,2.1104 C15.9460267,2.27786667 15.9998933,2.4704 15.9998933,2.66666667 L15.9998933,2.71466667 C15.9998933,2.86186667 15.8806933,2.98133333 15.7332267,2.98133333 M15.7332267,4.4424 C15.5860267,4.4424 15.46656,4.32293333 15.46656,4.17573333 L15.46656,3.6888 C15.46656,3.54133333 15.5860267,3.42213333 15.7332267,3.42213333 C15.8806933,3.42213333 15.9998933,3.54133333 15.9998933,3.6888 L15.9998933,4.17573333 C15.9998933,4.32293333 15.8806933,4.4424 15.7332267,4.4424 M15.7332267,5.90346667 C15.5860267,5.90346667 15.46656,5.784 15.46656,5.6368 L15.46656,5.1496 C15.46656,5.0024 15.5860267,4.88293333 15.7332267,4.88293333 C15.8806933,4.88293333 15.9998933,5.0024 15.9998933,5.1496 L15.9998933,5.6368 C15.9998933,5.784 15.8806933,5.90346667 15.7332267,5.90346667 M15.7332267,7.36426667 C15.5860267,7.36426667 15.46656,7.2448 15.46656,7.0976 L15.46656,6.61066667 C15.46656,6.46346667 15.5860267,6.344 15.7332267,6.344 C15.8806933,6.344 15.9998933,6.46346667 15.9998933,6.61066667 L15.9998933,7.0976 C15.9998933,7.2448 15.8806933,7.36426667 15.7332267,7.36426667 M15.7332267,8.82533333 C15.5860267,8.82533333 15.46656,8.70586667 15.46656,8.55866667 L15.46656,8.07173333 C15.46656,7.92453333 15.5860267,7.80506667 15.7332267,7.80506667 C15.8806933,7.80506667 15.9998933,7.92453333 15.9998933,8.07173333 L15.9998933,8.55866667 C15.9998933,8.70586667 15.8806933,8.82533333 15.7332267,8.82533333" id="Shape"></path>
                        <path d="M1.86666667,2.13333333 C1.7192,2.13333333 1.6,2.01386667 1.6,1.86666667 L1.6,1.6 C1.6,1.4528 1.7192,1.33333333 1.86666667,1.33333333 C2.01413333,1.33333333 2.13333333,1.4528 2.13333333,1.6 L2.13333333,1.86666667 C2.13333333,2.01386667 2.01413333,2.13333333 1.86666667,2.13333333" id="Path"></path>
                    </g>
                </g>
            </g>
        </g>
    </g>
</svg>