<svg xmlns="http://www.w3.org/2000/svg" width="17" height="21" viewBox="0 0 17 21">
  <path fill="#FFF" d="M16.0431429,19.2072501 L16.0431429,1.20731287 L12.5477662,0 L9.12568831,1.20731287 L9.12568831,19.2072501 L7.80101299,19.2072501 L7.80101299,9.95133118 L4.2318961,8.04882561 L0.883558442,9.95133118 L0.883558442,19.2074697 L0,19.2074697 L0,21 L17,21 L17,19.2072501 L16.0431429,19.2072501 Z M3.91927273,18.4756186 L2.0792987,18.4756186 L2.0792987,16.6462103 L3.91927273,16.6462103 L3.91927273,18.4756186 Z M3.91927273,15.62197 L2.0792987,15.62197 L2.0792987,13.7925617 L3.91927273,13.7925617 L3.91927273,15.62197 Z M3.91927273,12.7683214 L2.0792987,12.7683214 L2.0792987,10.9389131 L3.91927273,10.9389131 L3.91927273,12.7683214 Z M6.60527273,18.4756186 L4.7652987,18.4756186 L4.7652987,16.6462103 L6.60527273,16.6462103 L6.60527273,18.4756186 Z M6.60527273,15.62197 L4.7652987,15.62197 L4.7652987,13.7925617 L6.60527273,13.7925617 L6.60527273,15.62197 Z M6.60527273,12.7683214 L4.7652987,12.7683214 L4.7652987,10.9389131 L6.60527273,10.9389131 L6.60527273,12.7683214 Z M12.1614026,18.4756186 L10.3214286,18.4756186 L10.3214286,16.6462103 L12.1614026,16.6462103 L12.1614026,18.4756186 Z M12.1614026,15.62197 L10.3214286,15.62197 L10.3214286,13.7925617 L12.1614026,13.7925617 L12.1614026,15.62197 Z M12.1614026,12.7683214 L10.3214286,12.7683214 L10.3214286,10.9389131 L12.1614026,10.9389131 L12.1614026,12.7683214 Z M12.1614026,9.91467277 L10.3214286,9.91467277 L10.3214286,8.08526451 L12.1614026,8.08526451 L12.1614026,9.91467277 Z M12.1614026,7.06102418 L10.3214286,7.06102418 L10.3214286,5.23161592 L12.1614026,5.23161592 L12.1614026,7.06102418 Z M12.1614026,4.20737558 L10.3214286,4.20737558 L10.3214286,2.37796732 L12.1614026,2.37796732 L12.1614026,4.20737558 Z M14.8474026,18.4756186 L13.0074286,18.4756186 L13.0074286,16.6462103 L14.8474026,16.6462103 L14.8474026,18.4756186 Z M14.8474026,15.62197 L13.0074286,15.62197 L13.0074286,13.7925617 L14.8474026,13.7925617 L14.8474026,15.62197 Z M14.8474026,12.7683214 L13.0074286,12.7683214 L13.0074286,10.9389131 L14.8474026,10.9389131 L14.8474026,12.7683214 Z M14.8474026,9.91467277 L13.0074286,9.91467277 L13.0074286,8.08526451 L14.8474026,8.08526451 L14.8474026,9.91467277 Z M14.8474026,7.06102418 L13.0074286,7.06102418 L13.0074286,5.23161592 L14.8474026,5.23161592 L14.8474026,7.06102418 Z M14.8474026,4.20737558 L13.0074286,4.20737558 L13.0074286,2.37796732 L14.8474026,2.37796732 L14.8474026,4.20737558 Z"/>
</svg>
