<?xml version="1.0" encoding="UTF-8"?>
<svg width="33px" height="34px" viewBox="0 0 33 34" version="1.1" xmlns="http://www.w3.org/2000/svg" xmlns:xlink="http://www.w3.org/1999/xlink">
    <!-- Generator: Sketch 54.1 (76490) - https://sketchapp.com -->
    <title>Group 51</title>
    <desc>Created with Sketch.</desc>
    <g id="Page-1" stroke="none" stroke-width="1" fill="none" fill-rule="evenodd">
        <g id="Outline-Icons" transform="translate(-408.000000, -1025.000000)">
            <g id="Group-51" transform="translate(408.000000, 1025.000000)">
                <path d="M0.8125,14.0059524 L25.1875,14.0059524 L25.1875,10.5625 C25.1875,7.42138049 22.6411195,4.875 19.5,4.875 L19.5,8.53125 C19.5,8.75561568 19.3181157,8.9375 19.09375,8.9375 C18.8693843,8.9375 18.6875,8.75561568 18.6875,8.53125 L18.6875,4.875 L7.3125,4.875 L7.3125,8.53125 C7.3125,8.75561568 7.13061568,8.9375 6.90625,8.9375 C6.68188432,8.9375 6.5,8.75561568 6.5,8.53125 L6.5,4.875 C3.35888049,4.875 0.8125,7.42138049 0.8125,10.5625 L0.8125,14.0059524 Z M0.8125,15.0059524 L0.8125,23.5625 C0.8125,26.7036195 3.35888049,29.25 6.5,29.25 L19.5,29.25 C22.6411195,29.25 25.1875,26.7036195 25.1875,23.5625 L25.1875,15.0059524 L0.8125,15.0059524 Z M18.6875,4.0625 L18.6875,0.40625 C18.6875,0.18188432 18.8693843,4.12153067e-17 19.09375,0 C19.3181157,-4.12153067e-17 19.5,0.18188432 19.5,0.40625 L19.5,4.0625 C23.0898509,4.0625 26,6.97264913 26,10.5625 L26,23.5625 C26,27.1523509 23.0898509,30.0625 19.5,30.0625 L6.5,30.0625 C2.91014913,30.0625 0,27.1523509 0,23.5625 L0,10.5625 C0,6.97264913 2.91014913,4.0625 6.5,4.0625 L6.5,0.40625 C6.5,0.18188432 6.68188432,4.12153067e-17 6.90625,0 C7.13061568,-4.12153067e-17 7.3125,0.18188432 7.3125,0.40625 L7.3125,4.0625 L18.6875,4.0625 Z" id="Combined-Shape" fill="#000000" fill-rule="nonzero"></path>
                <g id="Group-14" transform="translate(18.000000, 20.000000)" fill="#FFFFFF" stroke="#000000" stroke-width="0.75">
                    <path d="M0.270163158,6.85808421 C0.270163158,3.14108421 3.29416316,0.117084211 7.01116316,0.117084211 C10.7281632,0.117084211 13.7521632,3.14108421 13.7521632,6.85808421 C13.7521632,10.5754526 10.7281632,13.5998211 7.01116316,13.5998211 C3.29416316,13.5998211 0.270163158,10.5754526 0.270163158,6.85808421 Z" id="Combined-Shape"></path>
                </g>
                <rect id="Rectangle" fill="#000000" x="24" y="24" width="1" height="4" rx="0.5"></rect>
                <rect id="Rectangle" fill="#000000" transform="translate(26.000000, 27.500000) rotate(90.000000) translate(-26.000000, -27.500000) " x="25.5" y="25.5" width="1" height="4" rx="0.5"></rect>
            </g>
        </g>
    </g>
</svg>