<?xml version="1.0" encoding="UTF-8"?>
<svg width="13px" height="15px" viewBox="0 0 13 15" version="1.1" xmlns="http://www.w3.org/2000/svg" xmlns:xlink="http://www.w3.org/1999/xlink">
    <!-- Generator: Sketch 54.1 (76490) - https://sketchapp.com -->
    <title>Group 14</title>
    <desc>Created with Sketch.</desc>
    <g id="Page-1" stroke="none" stroke-width="1" fill="none" fill-rule="evenodd" fill-opacity="0.54">
        <g id="Artboard" transform="translate(-241.000000, -988.000000)" fill="#020303">
            <g id="Group-14" transform="translate(241.000000, 988.000000)">
                <path d="M6.28016071,0.9893 L6.28016071,0.374214286 C6.28016071,0.168071429 6.44823214,2.15383267e-14 6.65391071,2.15383267e-14 C6.85958929,2.15383267e-14 7.02766071,0.168071429 7.02766071,0.374214286 L7.02766071,0.9893 L12.9921071,0.9893 L12.9921071,1.29825769 C12.9922306,1.30188822 12.9922929,1.30553361 12.9922929,1.30919286 C12.9922929,1.31283279 12.9922306,1.31645927 12.9921071,1.32007129 L12.9921071,1.62815714 L0.000185714286,1.62815714 L0.000185714286,0.9893 L6.28016071,0.9893 Z M4.03009286,12.9428464 C3.87548571,12.9428464 3.74966429,12.817025 3.74966429,12.6624179 L3.74966429,3.77320357 C3.74966429,3.61906071 3.87548571,3.492775 4.03009286,3.492775 C4.18423571,3.492775 4.31052143,3.61906071 4.31052143,3.77320357 L4.31052143,12.6624179 C4.31052143,12.817025 4.18423571,12.9428464 4.03009286,12.9428464 Z M9.12521071,12.9428464 C8.97060357,12.9428464 8.84478214,12.817025 8.84478214,12.6624179 L8.84478214,3.77320357 C8.84478214,3.61906071 8.97060357,3.492775 9.12521071,3.492775 C9.27935357,3.492775 9.40563929,3.61906071 9.40563929,3.77320357 L9.40563929,12.6624179 C9.40563929,12.817025 9.27935357,12.9428464 9.12521071,12.9428464 Z M12.1793286,2.67414643 L12.1793286,3.06600357 C12.1793286,3.07714643 12.1742214,3.08736071 12.1723643,3.09803929 L12.1742214,3.09803929 L12.1742214,12.8197179 C12.1742214,13.6498607 11.4448286,14.3249321 10.5492214,14.3249321 L2.43815,14.3249321 C1.54207857,14.3249321 0.81315,13.6498607 0.81315,12.8197179 L0.81315,3.09803929 L0.819185714,3.09803929 C0.818721429,3.09246786 0.815935714,3.087825 0.815935714,3.08178929 L0.815935714,2.69039643 C0.815935714,2.57153929 0.919935714,2.47496786 1.04807857,2.47496786 C1.17622143,2.47496786 1.28022143,2.57153929 1.28022143,2.69039643 L1.28022143,3.08178929 C1.28022143,3.087825 1.27697143,3.09246786 1.27650714,3.09803929 L1.27743571,3.09803929 L1.27743571,12.8197179 C1.27743571,13.4126107 1.7979,13.8950036 2.43815,13.8950036 L10.5492214,13.8950036 C11.1890071,13.8950036 11.7099357,13.4126107 11.7099357,12.8197179 L11.7099357,3.09803929 L11.7224714,3.09803929 C11.72015,3.08736071 11.7150429,3.07714643 11.7150429,3.06600357 L11.7150429,2.67414643 C11.7150429,2.55528929 11.8190429,2.45918214 11.9471857,2.45918214 C12.0753286,2.45918214 12.1793286,2.55528929 12.1793286,2.67414643 Z" id="Combined-Shape"></path>
            </g>
        </g>
    </g>
</svg>