<svg xmlns="http://www.w3.org/2000/svg" width="19" height="19" viewBox="0 0 19 19">
  <path fill="#FFF" d="M16.4090909,18.1363636 C16.4073636,18.1363636 16.4056364,18.1363636 16.4039091,18.1363636 C14.9763182,18.1363636 13.8190455,16.9790909 13.8190455,15.5515 C13.8190455,14.4313636 14.5315455,13.4779091 15.5273182,13.1195 L15.5454545,11.6590909 C15.5454545,10.944 14.9650909,10.3636364 14.25,10.3636364 L10.3636364,10.3636364 L10.3636364,13.1134545 C11.3784091,13.4796364 12.0909091,14.4348182 12.0909091,15.5558182 C12.0909091,16.9868636 10.9310455,18.1467273 9.5,18.1467273 C8.06895455,18.1467273 6.90909091,16.9868636 6.90909091,15.5558182 C6.90909091,14.4348182 7.62159091,13.4796364 8.61822727,13.1186364 L8.63636364,10.3627727 L4.75,10.3627727 C4.03490909,10.3627727 3.45454545,10.9431364 3.45454545,11.6582273 L3.45454545,13.1125909 C4.46931818,13.4787727 5.18181818,14.4339545 5.18181818,15.5549545 C5.18181818,16.986 4.02195455,18.1458636 2.59090909,18.1458636 C1.15986364,18.1458636 0,16.986 0,15.5549545 C0,14.4339545 0.7125,13.4787727 1.70913636,13.1177727 L1.72727273,11.2255455 C1.72727273,9.7945 2.88713636,8.63463636 4.31818182,8.63463636 L8.63636364,8.63463636 L8.63636364,5.88481818 C7.62159091,5.51863636 6.90909091,4.56345455 6.90909091,3.44245455 C6.90909091,2.01140909 8.06895455,0.851545455 9.5,0.851545455 C10.9310455,0.851545455 12.0909091,2.01140909 12.0909091,3.44245455 C12.0909091,4.56345455 11.3784091,5.51863636 10.3817727,5.87963636 L10.3636364,8.6355 L14.6818182,8.6355 C16.1128636,8.6355 17.2727273,9.79536364 17.2727273,11.2264091 L17.2727273,13.1125909 C18.2866364,13.4770455 18.9991364,14.4305 18.9991364,15.5506364 C18.9991364,16.9782273 17.8418636,18.1355 16.4142727,18.1355 C16.4125455,18.1355 16.4108182,18.1355 16.4090909,18.1355 L16.4090909,18.1363636 Z"/>
</svg>
