<?xml version="1.0" encoding="UTF-8"?>
<svg width="16px" height="16px" viewBox="0 0 16 16" version="1.1" xmlns="http://www.w3.org/2000/svg" xmlns:xlink="http://www.w3.org/1999/xlink">
    <!-- Generator: Sketch 52.4 (67378) - http://www.bohemiancoding.com/sketch -->
    <title>Shape</title>
    <desc>Created with Sketch.</desc>
    <g id="Page-1" stroke="none" stroke-width="1" fill="none" fill-rule="evenodd">
        <g id="Artboard" transform="translate(-206.000000, -823.000000)" fill="#FFFFFF" fill-rule="nonzero">
            <g id="Group-22" transform="translate(194.000000, 811.000000)">
                <path d="M24.626654,23.7475556 C25.7100722,22.4615111 26.3014802,20.8520889 26.3014802,19.1509333 C26.3014802,17.2408889 25.5573303,15.4449778 24.2064805,14.0945778 C22.8556306,12.7438222 21.0597134,12 19.1491064,12 C17.2384994,12 15.4425822,12.7438222 14.0915545,14.0944 C11.3027262,16.8826667 11.3029041,21.4192 14.0915545,24.2072889 C15.4424044,25.5580444 17.2384994,26.3018667 19.1489286,26.3018667 C20.8504268,26.3018667 22.4601732,25.7104 23.7464767,24.6273778 L26.9375194,27.8177778 C27.0591439,27.9392 27.218287,28 27.377608,28 C27.536929,28 27.6960721,27.9392 27.8176966,27.8177778 C28.0607678,27.5749333 28.0607678,27.1808 27.8176966,26.9379556 L24.626654,23.7475556 Z M14.971554,23.3274667 C12.6683346,21.0245333 12.6683346,17.2775111 14.971554,14.9744 C16.0875121,13.8588444 17.5711886,13.2444444 19.1491064,13.2444444 C20.727202,13.2444444 22.2107008,13.8588444 23.326481,14.9742222 C24.4422613,16.0897778 25.056785,17.5731556 25.056785,19.1507556 C25.0566072,20.7285333 24.4422613,22.2117333 23.326481,23.3272889 C22.2107008,24.4428444 20.727202,25.0570667 19.1491064,25.0572444 C17.5711886,25.0574222 16.0875121,24.4430222 14.971554,23.3274667 Z" id="Shape"></path>
            </g>
        </g>
    </g>
</svg>