<?xml version="1.0" encoding="UTF-8"?>
<svg width="13px" height="13px" viewBox="0 0 13 13" version="1.1" xmlns="http://www.w3.org/2000/svg" xmlns:xlink="http://www.w3.org/1999/xlink">
    <!-- Generator: Sketch 54.1 (76490) - https://sketchapp.com -->
    <title>Combined Shape</title>
    <desc>Created with Sketch.</desc>
    <g id="Page-1" stroke="none" stroke-width="1" fill="none" fill-rule="evenodd" fill-opacity="0.54">
        <g id="Artboard" transform="translate(-267.000000, -990.000000)" fill="#000000" fill-rule="nonzero">
            <g id="Group-43" transform="translate(267.000000, 990.000000)">
                <path d="M6.10574062,9.68694901 L6.10572829,9.68694901 C6.0469125,9.683125 5.99600378,9.67997944 5.9361148,9.6214227 L3.5923648,7.40102796 C3.49851612,7.31221217 3.48758684,7.14601563 3.58274309,7.05215461 C3.67472911,6.96143914 3.83774309,6.95372944 3.93160411,7.04253289 L5.8590301,8.86588405 L5.8590301,3.02577714 C5.8590301,2.88953125 5.9694824,2.77906661 6.10574062,2.77906661 C6.24199885,2.77906661 6.35245115,2.88953125 6.35245115,3.02577714 L6.35245115,8.86588405 L8.27987467,7.04253289 C8.37372952,6.95371711 8.53992977,6.95830592 8.62873816,7.05215461 C8.71755025,7.14601563 8.72167031,7.2988528 8.61910411,7.40102796 L6.27535411,9.6214227 C6.23856957,9.65645559 6.18011151,9.68300164 6.10574062,9.68694901 Z M4.296875,0.390625 C2.1395127,0.390625 0.390625,2.1395127 0.390625,4.296875 L0.390625,8.203125 C0.390625,10.3604873 2.1395127,12.109375 4.296875,12.109375 L8.203125,12.109375 C10.3604873,12.109375 12.109375,10.3604873 12.109375,8.203125 L12.109375,4.296875 C12.109375,2.1395127 10.3604873,0.390625 8.203125,0.390625 L4.296875,0.390625 Z M4.296875,0 L8.203125,0 C10.5762235,-4.35931129e-16 12.5,1.92377647 12.5,4.296875 L12.5,8.203125 C12.5,10.5762235 10.5762235,12.5 8.203125,12.5 L4.296875,12.5 C1.92377647,12.5 2.90620752e-16,10.5762235 0,8.203125 L0,4.296875 C-2.90620752e-16,1.92377647 1.92377647,4.35931129e-16 4.296875,0 Z" id="Combined-Shape"></path>
            </g>
        </g>
    </g>
</svg>