<?xml version="1.0" encoding="UTF-8"?>
<svg width="24px" height="24px" viewBox="0 0 24 24" version="1.1" xmlns="http://www.w3.org/2000/svg" xmlns:xlink="http://www.w3.org/1999/xlink">
    <!-- Generator: Sketch 57.1 (83088) - https://sketch.com -->
    <title>document</title>
    <desc>Created with Sketch.</desc>
    <g id="Page-1" stroke="none" stroke-width="1" fill="none" fill-rule="evenodd">
        <g id="Artboard" transform="translate(-1165.000000, -916.000000)" fill="#000000" fill-rule="nonzero">
            <g id="document" transform="translate(1165.000000, 916.000000)">
                <path d="M16,-9.9475983e-14 C17.5976809,-9.9475983e-14 18.9036609,1.251092 18.9949073,2.82863804 L19,3.00521739 L19,16.0278261 L23,16.0278261 C23.5128358,16.0278261 23.9355072,16.4145377 23.9932723,16.9127413 L24,17.0295652 L24,18.0313043 C24,19.359693 23.4732158,20.6336744 22.5355339,21.572987 C21.6603641,22.4496788 20.4941669,22.9678106 19.2644094,23.0329984 L19,23.04 L5,23.04 C2.3112453,23.04 0.118181885,20.9140023 0.00461951385,18.2485712 L0,18.0313043 L0,3.00521739 C0,1.40475793 1.24891996,0.0965066669 2.82372721,0.00510155027 L3,-9.9475983e-14 L16,-9.9475983e-14 Z M22,18.0313043 L10,18.0313043 C9.99692654,19.0279475 9.69403169,19.9983135 9.13406096,20.8170758 L8.975,21.0365217 L19,21.0365217 C20.6568542,21.0365217 22,19.6910401 22,18.0313043 Z M13.9810909,12.096 L5.02690909,12.096 C4.47743597,12.096 4.032,12.5258066 4.032,13.056 C4.032,13.5861934 4.47743597,14.016 5.02690909,14.016 L13.9810909,14.016 C14.530564,14.016 14.976,13.5861934 14.976,13.056 C14.976,12.5258066 14.530564,12.096 13.9810909,12.096 Z M13.9810909,8.064 L5.02690909,8.064 C4.47743597,8.064 4.032,8.49380664 4.032,9.024 C4.032,9.55419336 4.47743597,9.984 5.02690909,9.984 L13.9810909,9.984 C14.530564,9.984 14.976,9.55419336 14.976,9.024 C14.976,8.49380664 14.530564,8.064 13.9810909,8.064 Z M13.9810909,4.032 L5.02690909,4.032 C4.47743597,4.032 4.032,4.46180664 4.032,4.992 C4.032,5.52219336 4.47743597,5.952 5.02690909,5.952 L13.9810909,5.952 C14.530564,5.952 14.976,5.52219336 14.976,4.992 C14.976,4.46180664 14.530564,4.032 13.9810909,4.032 Z" id="Combined-Shape"></path>
            </g>
        </g>
    </g>
</svg>