<?xml version="1.0" encoding="UTF-8"?>
<svg width="142px" height="135px" viewBox="0 0 142 135" version="1.1" xmlns="http://www.w3.org/2000/svg" xmlns:xlink="http://www.w3.org/1999/xlink">
    <!-- Generator: Sketch 52.4 (67378) - http://www.bohemiancoding.com/sketch -->
    <title>iconfinder_image_272704 2</title>
    <desc>Created with Sketch.</desc>
    <g id="Page-1" stroke="none" stroke-width="1" fill="none" fill-rule="evenodd" opacity="0.729287202">
        <g id="iconfinder_image_272704-2" fill="#142938">
            <g id="iconfinder_image_272704">
                <path d="M141.809882,135 L0.809882023,135 L0.809882023,0 L141.809882,0 L141.809882,135 Z M14.3596013,121.416401 L128.25074,121.416401 L128.25074,13.5835986 L14.3596013,13.5835986 L14.3596013,121.416401 Z M39.5226928,33.5622573 C47.1126086,33.5622573 53.2608644,39.3055313 53.2608644,46.390162 C53.2608644,53.4747927 47.1126086,59.2227898 39.5226928,59.2227898 C31.9374883,59.2227898 25.7939438,53.4795158 25.7939438,46.390162 C25.7939438,39.3055313 31.9374883,33.5622573 39.5226928,33.5622573 Z M21.4171394,99.284015 L41.7699863,83.9812126 L52.1301507,91.5617675 L93.1891924,61.0978554 L108.453827,72.4710492 L118.809281,64.8952174 L118.809281,99.284015 L21.4171394,99.284015 Z" id="Shape"></path>
            </g>
        </g>
    </g>
</svg>