<?xml version="1.0" encoding="UTF-8"?>
<svg width="24px" height="24px" viewBox="0 0 24 24" version="1.1" xmlns="http://www.w3.org/2000/svg" xmlns:xlink="http://www.w3.org/1999/xlink">
    <!-- Generator: Sketch 54.1 (76490) - https://sketchapp.com -->
    <title>Shape</title>
    <desc>Created with Sketch.</desc>
    <g id="Page-1" stroke="none" stroke-width="1" fill="none" fill-rule="evenodd">
        <g id="Branch-Chart-Minimize-Mode" transform="translate(-1257.000000, -188.000000)" fill="#757575" fill-rule="nonzero">
            <path d="M1281,211.063962 L1281,202.75195 L1279.12792,202.75195 L1279.12792,210.127925 L1271.75195,210.127925 L1271.75195,212 L1280.06396,212 C1280.58092,212 1281,211.580922 1281,211.063962 Z M1281,188.936037 C1281,188.419078 1280.58092,188 1280.06396,188 L1271.75195,188 L1271.75195,189.872075 L1279.12792,189.872075 L1279.12792,197.24805 L1281,197.24805 L1281,188.936037 Z M1266.24805,188 L1257.93604,188 C1257.41908,188 1257,188.419078 1257,188.936037 L1257,197.24805 L1258.87208,197.24805 L1258.87208,189.872075 L1266.24805,189.872075 L1266.24805,188 Z M1266.24805,210.127925 L1258.87208,210.127925 L1258.87208,202.75195 L1257,202.75195 L1257,211.063962 C1257,211.580922 1257.41908,212 1257.93604,212 L1266.24805,212 L1266.24805,210.127925 Z" id="Shape"></path>
        </g>
    </g>
</svg>