<?xml version="1.0" encoding="UTF-8"?>
<svg width="11px" height="13px" viewBox="0 0 11 13" version="1.1" xmlns="http://www.w3.org/2000/svg" xmlns:xlink="http://www.w3.org/1999/xlink">
    <!-- Generator: Sketch 52.4 (67378) - http://www.bohemiancoding.com/sketch -->
    <title>Group</title>
    <desc>Created with Sketch.</desc>
    <g id="Page-1" stroke="none" stroke-width="1" fill="none" fill-rule="evenodd" opacity="0.54">
        <g id="Artboard" transform="translate(-268.000000, -990.000000)" fill="#000000" fill-rule="nonzero">
            <g id="Group-12" transform="translate(118.000000, 907.000000)">
                <g id="Group" transform="translate(150.000000, 83.000000)">
                    <path d="M0.261904762,12 C0.11726,12 0,12.11195 0,12.25 C0,12.388075 0.11726,12.5 0.261904762,12.5 L10.7380952,12.5 C10.88274,12.5 11,12.388075 11,12.25 C11,12.11195 10.88274,12 10.7380952,12 L0.261904762,12 Z" id="Shape"></path>
                    <path d="M1.07760397,6.74420427 C0.97655469,6.64276809 0.975829696,6.46941255 1.06585406,6.37174782 C1.1573284,6.27248546 1.32525221,6.26520448 1.42137653,6.35943824 L5.24947429,10.1325601 L5.24947429,0.261905948 C5.24947429,0.117255293 5.36139849,0 5.49947251,0 C5.63754653,0 5.74947073,0.117255293 5.74947073,0.261905948 L5.74947073,10.1325601 L9.5775685,6.35943824 C9.67369281,6.26512591 9.84309161,6.27094022 9.93309097,6.37174782 C10.0230903,6.47247685 10.0253153,6.63457044 9.92134105,6.74420427 L5.67137129,10.9347518 C5.55437212,11.0343546 5.41097314,11.0081641 5.32757373,10.9347518 L1.07760397,6.74420427 Z" id="Shape"></path>
                </g>
            </g>
        </g>
    </g>
</svg>