<?xml version="1.0" encoding="UTF-8"?>
<svg width="17px" height="14px" viewBox="0 0 17 14" version="1.1" xmlns="http://www.w3.org/2000/svg" xmlns:xlink="http://www.w3.org/1999/xlink">
    <!-- Generator: Sketch 52.4 (67378) - http://www.bohemiancoding.com/sketch -->
    <title>Group 8</title>
    <desc>Created with Sketch.</desc>
    <g id="Page-1" stroke="none" stroke-width="1" fill="none" fill-rule="evenodd" opacity="0.54">
        <g id="Artboard" transform="translate(-221.000000, -988.000000)" fill="#000000" fill-rule="nonzero">
            <g id="Group-12" transform="translate(118.000000, 907.000000)">
                <g id="Group-8" transform="translate(111.500000, 88.000000) scale(-1, 1) translate(-111.500000, -88.000000) translate(103.000000, 81.000000)">
                    <path d="M15,14 L0,14 L0,3 L7.20408163,3 C7.32653061,3 7.40816327,3.08333333 7.40816327,3.20833333 C7.40816327,3.33333333 7.32653061,3.41666667 7.20408163,3.41666667 L0.408163265,3.41666667 L0.408163265,13.5833333 L14.5918367,13.5833333 L14.5918367,9.22916667 C14.5918367,9.10416667 14.6734694,9.02083333 14.7959184,9.02083333 C14.9183673,9.02083333 15,9.10416667 15,9.22916667 L15,14 Z" id="Shape"></path>
                    <g id="Group" transform="translate(4.000000, 0.000000)">
                        <path d="M0.52,9.72352941 L0.7475,9.4 C0.715,9.46470588 0.6825,9.49705882 0.6175,9.56176471 C0.585,9.59411765 0.5525,9.65882353 0.52,9.72352941 Z" id="Shape"></path>
                        <path d="M12.92,5.06 L8.1,0.24 C8.04,0.18 7.96,0.16 7.88,0.2 C7.8,0.24 7.76,0.3 7.76,0.38 L7.76,2.9 C6.78,2.92 4.72,3.14 2.96,4.36 C1.04,5.7 0.06,7.82 0.06,10.64 C0.06,10.74 0.14,10.82 0.24,10.84 C0.24,10.84 0.26,10.84 0.26,10.84 C0.34,10.84 0.42,10.78 0.46,10.7 C0.48,10.66 0.48,10.62 0.5,10.58 L0.56,10.42 C0.58,10.38 0.58,10.34 0.6,10.3 C0.62,10.26 0.64,10.22 0.64,10.2 L0.66,10.18 C0.68,10.14 0.7,10.1 0.72,10.08 C0.72,10.08 0.74,10.06 0.74,10.06 C0.76,10.02 0.78,10 0.78,9.98 C0.78,9.98 0.8,9.96 0.8,9.96 C0.82,9.92 0.84,9.9 0.86,9.84 C0.86,9.84 0.88,9.82 0.88,9.82 C0.9,9.8 0.92,9.76 0.94,9.72 C0.96,9.7 0.98,9.66 1,9.64 C1,9.64 1.02,9.62 1.02,9.62 C1.04,9.58 1.06,9.56 1.08,9.54 L1.1,9.52 C1.12,9.48 1.14,9.46 1.18,9.44 C1.18,9.44 1.18,9.44 1.18,9.44 C1.2,9.42 1.24,9.38 1.26,9.36 L1.36,9.24 C1.38,9.22 1.42,9.18 1.44,9.16 C1.46,9.14 1.5,9.1 1.52,9.08 L1.54,9.06 C1.56,9.04 1.6,9.02 1.62,8.98 C1.62,8.98 1.64,8.96 1.64,8.96 C1.66,8.94 1.7,8.92 1.74,8.88 C1.76,8.86 1.8,8.84 1.84,8.82 L1.86,8.8 C1.9,8.78 1.92,8.76 1.96,8.72 L2.06,8.66 L2.08,8.64 C2.12,8.62 2.14,8.6 2.18,8.58 L2.2,8.56 C2.24,8.54 2.26,8.52 2.3,8.5 C2.3,8.5 2.3,8.5 2.3,8.5 C2.34,8.48 2.36,8.46 2.4,8.44 L2.42,8.42 C2.46,8.4 2.48,8.38 2.52,8.36 C2.52,8.36 2.54,8.36 2.54,8.36 L2.76,8.26 C2.76,8.26 2.78,8.24 2.78,8.24 C2.82,8.22 2.84,8.2 2.88,8.2 C2.88,8.2 2.9,8.2 2.9,8.2 L3,8.16 C3,8.16 3.02,8.16 3.02,8.16 C3.06,8.14 3.1,8.14 3.14,8.12 L3.42,8.02 C3.46,8 3.5,8 3.54,7.98 L4.2,7.8 C4.24,7.8 4.28,7.78 4.32,7.78 C4.32,7.78 4.34,7.78 4.34,7.78 L4.46,7.76 C4.5,7.76 4.54,7.74 4.58,7.74 L5.38,7.6 L5.74,7.56 C5.74,7.56 5.76,7.56 5.76,7.56 L5.98,7.54 L6,7.54 L6.2,7.52 C6.2,7.52 6.22,7.52 6.22,7.52 L6.32,7.52 C6.32,7.52 6.34,7.52 6.34,7.52 L6.44,7.52 C6.44,7.52 6.44,7.52 6.44,7.52 L6.52,7.52 C6.52,7.52 6.54,7.52 6.54,7.52 L6.62,7.52 C6.62,7.52 6.64,7.52 6.64,7.52 L7.2,7.5 L7.48,7.5 C7.48,7.5 7.48,7.5 7.48,7.5 L7.62,7.5 C7.62,7.5 7.64,7.5 7.64,7.5 L7.76,7.5 L7.76,10.06 C7.76,10.14 7.8,10.22 7.88,10.24 C7.96,10.28 8.04,10.26 8.1,10.2 L12.9,5.38 C13,5.26 13,5.14 12.92,5.06 Z M3.54,7.98 C3.58,7.96 3.6,7.96 3.64,7.94 C3.64,7.94 3.64,7.94 3.64,7.94 L4.14,7.8 L3.54,7.98 Z M4.58,7.72 L4.96,7.66 C4.96,7.66 4.98,7.66 4.98,7.66 L5.08,7.64 C5.08,7.64 5.08,7.64 5.1,7.64 L5.34,7.6 L4.58,7.72 Z M7.86,7.08 L7.66,7.08 C7.66,7.08 7.64,7.08 7.64,7.08 L7.5,7.08 C7.5,7.08 7.5,7.08 7.48,7.08 L7.34,7.08 L6.62,7.1 C6.62,7.1 6.6,7.1 6.6,7.1 L6.5,7.1 C6.5,7.1 6.48,7.1 6.48,7.1 L6.4,7.1 C6.4,7.1 6.38,7.1 6.38,7.1 L6.28,7.1 C6.28,7.1 6.26,7.1 6.26,7.1 L5.92,7.12 L5.9,7.12 L5.8,7.14 C5.8,7.14 5.78,7.14 5.78,7.14 L5.7,7.14 C5.7,7.14 5.68,7.14 5.68,7.14 L5.58,7.16 C5.58,7.16 5.56,7.16 5.56,7.16 L5.16,7.2 L5.14,7.2 L5.02,7.22 C5.02,7.22 5.02,7.22 5.02,7.22 L4.9,7.24 C4.9,7.24 4.88,7.24 4.88,7.24 L4.76,7.26 C4.76,7.26 4.74,7.26 4.74,7.26 L4.48,7.32 C4.44,7.32 4.4,7.34 4.34,7.34 L4.24,7.36 C4.24,7.36 4.22,7.36 4.22,7.36 C4.18,7.36 4.14,7.38 4.1,7.38 L4.08,7.38 L3.84,7.44 C3.84,7.44 3.82,7.44 3.82,7.44 L3.56,7.52 C3.56,7.52 3.56,7.52 3.54,7.52 C3.5,7.54 3.46,7.54 3.42,7.56 L3.4,7.56 C3.36,7.58 3.32,7.58 3.28,7.6 C3.28,7.6 3.26,7.6 3.26,7.6 L3.16,7.64 C3.16,7.64 3.14,7.64 3.14,7.64 L3,7.74 C3,7.74 2.98,7.74 2.98,7.76 C2.94,7.78 2.9,7.8 2.86,7.8 C2.86,7.8 2.84,7.82 2.84,7.82 L2.72,7.86 C2.68,7.88 2.64,7.9 2.6,7.9 L2.34,8.02 C2.34,8.02 2.32,8.04 2.32,8.04 C2.28,8.06 2.24,8.08 2.22,8.1 L2.2,8.1 C2.16,8.12 2.12,8.14 2.08,8.16 C2.08,8.16 2.08,8.16 2.08,8.16 C2.04,8.18 2,8.2 1.98,8.22 L1.96,8.24 C1.92,8.26 1.88,8.28 1.86,8.3 C1.86,8.3 1.84,8.32 1.84,8.32 L1.72,8.4 C1.68,8.42 1.66,8.44 1.62,8.48 L1.6,8.5 C1.56,8.52 1.54,8.54 1.48,8.58 C1.44,8.6 1.42,8.62 1.38,8.66 C1.34,8.68 1.32,8.72 1.28,8.74 C1.28,8.74 1.26,8.76 1.26,8.76 C1.22,8.78 1.2,8.82 1.16,8.86 C1.14,8.88 1.1,8.92 1.08,8.94 L1.06,8.96 C1.04,8.98 1,9.02 0.98,9.04 C0.98,9.04 0.96,9.06 0.96,9.06 C0.94,9.1 0.9,9.12 0.88,9.14 C0.88,9.14 0.88,9.14 0.86,9.16 C0.84,9.2 0.8,9.22 0.78,9.26 C0.78,9.26 0.76,9.28 0.76,9.28 C0.74,9.32 0.7,9.34 0.68,9.38 L0.52,9.62 C0.52,9.62 0.52,9.62 0.52,9.62 C1.1,3.62 6.8,3.3 7.98,3.3 C8.04,3.3 8.08,3.28 8.12,3.24 C8.16,3.2 8.18,3.16 8.18,3.1 L8.18,0.86 L12.5,5.2 L8.18,9.54 L8.18,7.28 C8.18,7.16 8.08,7.08 7.96,7.08 C7.96,7.08 7.92,7.08 7.92,7.08 C7.92,7.08 7.9,7.08 7.9,7.08 L7.86,7.08 Z" id="Shape"></path>
                    </g>
                </g>
            </g>
        </g>
    </g>
</svg>