<?xml version="1.0" encoding="UTF-8"?>
<svg width="13px" height="15px" viewBox="0 0 13 15" version="1.1" xmlns="http://www.w3.org/2000/svg" xmlns:xlink="http://www.w3.org/1999/xlink">
    <!-- Generator: Sketch 52.4 (67378) - http://www.bohemiancoding.com/sketch -->
    <title>Shape</title>
    <desc>Created with Sketch.</desc>
    <g id="Page-1" stroke="none" stroke-width="1" fill="none" fill-rule="evenodd" opacity="0.54">
        <g id="Artboard" transform="translate(-179.000000, -989.000000)" fill="#000000" fill-rule="nonzero">
            <g id="Group-12" transform="translate(118.000000, 907.000000)">
                <path d="M72.9047478,85.0623145 L72.9047478,94.9 C72.9047478,95.7804154 72.1774481,96.5077151 71.2970326,96.5077151 L63.6412463,96.5077151 C62.7608309,96.5077151 62.0335312,95.7804154 62.0335312,94.9 L62.0335312,85.0623145 C62.0335312,84.8326409 62.1866469,84.6795252 62.4163205,84.6795252 C62.6459941,84.6795252 62.7991098,84.8326409 62.7991098,85.0623145 L62.7991098,94.9 C62.7991098,95.3593472 63.1818991,95.7421365 63.6412463,95.7421365 L71.2970326,95.7421365 C71.7563798,95.7421365 72.1391691,95.3593472 72.1391691,94.9 L72.1391691,85.0623145 C72.1391691,84.8326409 72.2922849,84.6795252 72.5219585,84.6795252 C72.751632,84.6795252 72.9047478,84.8709199 72.9047478,85.0623145 Z M73.5554896,82.9952522 L67.8519288,82.9952522 L67.8519288,82.3827893 C67.8519288,82.1531157 67.6988131,82 67.4691395,82 C67.2394659,82 67.0863501,82.1531157 67.0863501,82.3827893 L67.0863501,82.9952522 L61.3827893,82.9952522 C61.1531157,82.9952522 61,83.148368 61,83.3780415 C61,83.6077151 61.1531157,83.7608309 61.3827893,83.7608309 L73.5172107,83.7608309 C73.7468843,83.7608309 73.9,83.6077151 73.9,83.3780415 C73.9,83.148368 73.7468843,82.9952522 73.5554896,82.9952522 Z M65.1724036,93.8664688 L65.1724036,85.4451039 C65.1724036,85.2154303 65.0192878,85.0623145 64.7896142,85.0623145 C64.5599407,85.0623145 64.4068249,85.2154303 64.4068249,85.4451039 L64.4068249,93.8664688 C64.4068249,94.0961424 64.5599407,94.2492582 64.7896142,94.2492582 C65.0192878,94.2492582 65.1724036,94.0961424 65.1724036,93.8664688 Z M67.8519288,93.8664688 L67.8519288,85.4451039 C67.8519288,85.2154303 67.6988131,85.0623145 67.4691395,85.0623145 C67.2394659,85.0623145 67.0863501,85.2154303 67.0863501,85.4451039 L67.0863501,93.8664688 C67.0863501,94.0961424 67.2394659,94.2492582 67.4691395,94.2492582 C67.6988131,94.2492582 67.8519288,94.0961424 67.8519288,93.8664688 Z M70.531454,93.8664688 L70.531454,85.4451039 C70.531454,85.2154303 70.3783383,85.0623145 70.1486647,85.0623145 C69.9189911,85.0623145 69.7658754,85.2154303 69.7658754,85.4451039 L69.7658754,93.8664688 C69.7658754,94.0961424 69.9189911,94.2492582 70.1486647,94.2492582 C70.3783383,94.2492582 70.531454,94.0961424 70.531454,93.8664688 Z" id="Shape"></path>
            </g>
        </g>
    </g>
</svg>