<?xml version="1.0" encoding="UTF-8"?>
<svg width="172px" height="20px" viewBox="0 0 172 20" version="1.1" xmlns="http://www.w3.org/2000/svg" xmlns:xlink="http://www.w3.org/1999/xlink">
    <!-- Generator: Sketch 54.1 (76490) - https://sketchapp.com -->
    <title>Group 2</title>
    <desc>Created with Sketch.</desc>
    <defs>
        <path d="M3.40614466,10 L11.5867654,17.7254899 C12.1377449,18.2458156 12.1377449,19.0894301 11.5867654,19.6097558 C11.0357859,20.1300814 10.1424716,20.1300814 9.59149201,19.6097558 L0.413234637,10.9421329 C-0.137744879,10.4218073 -0.137744879,9.57819274 0.413234637,9.05786706 L9.59149201,0.390244229 C10.1424716,-0.13008141 11.0357859,-0.13008141 11.5867654,0.390244229 C12.1377449,0.910569867 12.1377449,1.75418443 11.5867654,2.27451006 L3.40614466,10 Z" id="path-1"></path>
        <filter x="-58.3%" y="-25.0%" width="216.7%" height="170.0%" filterUnits="objectBoundingBox" id="filter-2">
            <feOffset dx="0" dy="2" in="SourceAlpha" result="shadowOffsetOuter1"></feOffset>
            <feGaussianBlur stdDeviation="2" in="shadowOffsetOuter1" result="shadowBlurOuter1"></feGaussianBlur>
            <feComposite in="shadowBlurOuter1" in2="SourceAlpha" operator="out" result="shadowBlurOuter1"></feComposite>
            <feColorMatrix values="0 0 0 0 0   0 0 0 0 0   0 0 0 0 0  0 0 0 0 0" type="matrix" in="shadowBlurOuter1"></feColorMatrix>
        </filter>
    </defs>
    <g id="Page-1" stroke="none" stroke-width="1" fill="none" fill-rule="evenodd">
        <g id="Group-2">
            <g id="Group" opacity="0.54">
                <g id="Path">
                    <use fill="black" fill-opacity="1" filter="url(#filter-2)" xlink:href="#path-1"></use>
                    <path stroke="#FFFFFF" stroke-width="0.5" d="M11.4151172,17.9072504 L3.04202788,10 L11.4151172,2.09274956 C11.8616276,1.67108079 11.8616276,0.993673507 11.4151172,0.572004754 C10.9604839,0.142665082 10.2177736,0.142665082 9.76314024,0.572004747 L0.584882872,9.23962757 C0.138372376,9.66129638 0.138372376,10.3387036 0.584882865,10.7603724 L9.76314022,19.4279953 C10.2177736,19.8573349 10.9604839,19.8573349 11.4151172,19.4279953 C11.8616276,19.0063265 11.8616276,18.3289192 11.4151172,17.9072504 Z" stroke-linejoin="square" fill="#000000" fill-rule="evenodd"></path>
                </g>
            </g>
            <g id="Group" opacity="0.54" transform="translate(56.000000, 10.000000) scale(-1, 1) translate(-56.000000, -10.000000) translate(50.000000, 0.000000)" fill="#000000" stroke="#FFFFFF" stroke-width="0.5">
                <path d="M11.4151172,17.9072504 L3.04202788,10 L11.4151172,2.09274956 C11.8616276,1.67108079 11.8616276,0.993673507 11.4151172,0.572004754 C10.9604839,0.142665082 10.2177736,0.142665082 9.76314024,0.572004747 L0.584882872,9.23962757 C0.138372376,9.66129638 0.138372376,10.3387036 0.584882865,10.7603724 L9.76314022,19.4279953 C10.2177736,19.8573349 10.9604839,19.8573349 11.4151172,19.4279953 C11.8616276,19.0063265 11.8616276,18.3289192 11.4151172,17.9072504 Z" id="Path"></path>
            </g>
            <path d="M121.415117,17.9072504 L113.042028,10 L121.415117,2.09274956 C121.861628,1.67108079 121.861628,0.993673507 121.415117,0.572004754 C120.960484,0.142665082 120.217774,0.142665082 119.76314,0.572004747 L110.584883,9.23962757 C110.138372,9.66129638 110.138372,10.3387036 110.584883,10.7603724 L119.76314,19.4279953 C120.217774,19.8573349 120.960484,19.8573349 121.415117,19.4279953 C121.861628,19.0063265 121.861628,18.3289192 121.415117,17.9072504 Z" id="Path" stroke="#FFFFFF" stroke-width="0.5" fill="#000000"></path>
            <path d="M171.415117,17.9072504 L163.042028,10 L171.415117,2.09274956 C171.861628,1.67108079 171.861628,0.993673507 171.415117,0.572004754 C170.960484,0.142665082 170.217774,0.142665082 169.76314,0.572004747 L160.584883,9.23962757 C160.138372,9.66129638 160.138372,10.3387036 160.584883,10.7603724 L169.76314,19.4279953 C170.217774,19.8573349 170.960484,19.8573349 171.415117,19.4279953 C171.861628,19.0063265 171.861628,18.3289192 171.415117,17.9072504 Z" id="Path" stroke="#FFFFFF" stroke-width="0.5" fill="#000000" transform="translate(166.000000, 10.000000) scale(-1, 1) translate(-166.000000, -10.000000) "></path>
        </g>
    </g>
</svg>