<?xml version="1.0" encoding="UTF-8"?>
<svg width="26px" height="24px" viewBox="0 0 26 24" version="1.1" xmlns="http://www.w3.org/2000/svg" xmlns:xlink="http://www.w3.org/1999/xlink">
    <!-- Generator: Sketch 52.6 (67491) - http://www.bohemiancoding.com/sketch -->
    <title>iconfinder_microsoft_office_onenote_one_note_1784850</title>
    <desc>Created with Sketch.</desc>
    <g id="Page-1" stroke="none" stroke-width="1" fill="none" fill-rule="evenodd">
        <g id="ICONS" transform="translate(-325.000000, -93.000000)">
            <g id="iconfinder_microsoft_office_onenote_one_note_1784850" transform="translate(325.000000, 93.000000)">
                <path d="M0.0964527001,2.44937654 L14.5363708,0.0258608631 L14.5387238,23.9739604 L0.12939369,21.5504447 L0.0964527001,2.44937654 Z M24.084552,20.1410409 L24.084552,14.9928348 C24.7974891,14.9810702 25.192781,14.8446004 25.2563101,15.606949 L25.258663,19.3669277 C25.225722,20.3151576 24.9574882,20.1410409 24.084552,20.1410409 Z M24.084552,9.26580848 C24.9363119,9.25169091 25.2421925,9.17875015 25.2468984,10.0140395 L25.2516042,13.8351943 C25.2539571,14.5340139 24.9151355,14.4140146 24.084552,14.4140146 L24.084552,9.26580848 Z M15.1198969,2.7081986 L22.25868,2.7081986 C23.7339658,2.72937495 23.7363187,2.70113981 23.7527892,3.78819247 C24.0774932,3.7905454 24.4163148,3.78819247 24.7480776,3.78819247 C25.4139562,3.78819247 25.4963087,4.03760283 25.4963087,4.5340706 C25.4963087,5.69641695 25.4963087,7.23523176 25.4963087,8.02110965 C25.4963087,8.27052 25.4963087,8.77404656 24.9151355,8.77404656 L23.759848,8.76934071 L23.7527892,21.3857398 L15.1198969,21.3857398 L15.1198969,18.7292842 L21.5128019,18.7292842 L21.5128019,17.7363487 L15.1198969,17.7339958 L15.1269557,16.2398866 L21.5128019,16.2398866 L21.5128019,15.2445981 L15.1198969,15.2422452 L15.1269557,13.748136 L21.5128019,13.748136 L21.5128019,12.7552005 L15.1198969,12.7528475 L15.1269557,11.2587384 L21.5128019,11.2587384 L21.5128019,10.2658028 L15.1198969,10.2634499 L15.1269557,8.76934071 L21.5128019,8.76934071 L21.5128019,7.78111101 L15.1198969,7.7716993 L15.1269557,6.27759013 L21.5128019,6.27759013 L21.5128019,5.28936043 L15.1198969,5.28230165 L15.1198969,2.7081986 Z" id="Shape" fill="#7E3878"></path>
                <polygon id="Path" fill="#FFFFFF" points="8.48464044 13.2822563 7.04935446 10.6587418 5.69877388 8.03287429 4.23525277 8.05405064 4.2046647 16.1151814 5.54348064 16.16224 5.5481865 10.7599177 8.47993458 16.3645918 9.96227912 16.4022386 9.97404376 7.7716993 8.47993458 7.8564047"></polygon>
            </g>
        </g>
    </g>
</svg>