<svg xmlns="http://www.w3.org/2000/svg" width="24" height="29" viewBox="0 0 24 29">
  <path fill="#C99E3C" d="M23.72,22.9169231 C23.72,23.1968285 23.608808,23.4652697 23.410885,23.6631927 C23.212962,23.8611157 22.9445208,23.9723077 22.6646154,23.9723077 L1.33230769,23.9723077 C0.749434864,23.9723077 0.276923077,23.4997959 0.276923077,22.9169231 C0.276923077,22.3340502 0.749434864,21.8615385 1.33230769,21.8615385 L1.84615385,21.8615385 L1.84615385,12.4830769 C1.850764,7.87447058 4.9585792,3.84694423 9.41538462,2.67384615 C9.63692308,1.25230769 10.4430769,0.212307692 11.9846154,0.212307692 C13.5261538,0.212307692 14.3323077,1.26153846 14.5538462,2.67384615 C19.0228628,3.83519742 22.1455663,7.86563415 22.1538462,12.4830769 L22.1538462,21.8461538 L22.68,21.8461538 C22.959915,21.8502045 23.2267527,21.9653003 23.4217969,22.166115 C23.6168411,22.3669298 23.7241101,22.637009 23.72,22.9169231 Z M12,28.7169231 C13.8442798,28.7169239 15.3398402,27.2227405 15.3415385,25.3784615 L8.65846154,25.3784615 C8.66015977,27.2227405 10.1557202,28.7169239 12,28.7169231 Z"/>
</svg>
