<?xml version="1.0" encoding="UTF-8"?>
<svg width="21px" height="21px" viewBox="0 0 21 21" version="1.1" xmlns="http://www.w3.org/2000/svg" xmlns:xlink="http://www.w3.org/1999/xlink">
    <!-- Generator: Sketch 52.6 (67491) - http://www.bohemiancoding.com/sketch -->
    <title>pdf-attachment-icon</title>
    <desc>Created with Sketch.</desc>
    <g id="Page-1" stroke="none" stroke-width="1" fill="none" fill-rule="evenodd">
        <g id="pdf-attachment-icon">
            <path d="M0,19 L0,2 C-1.3527075e-16,0.8954305 0.8954305,2.02906125e-16 2,0 L19,0 C20.1045695,-2.02906125e-16 21,0.8954305 21,2 L21,19 C21,20.1045695 20.1045695,21 19,21 L2,21 C0.8954305,21 1.3527075e-16,20.1045695 0,19 Z" id="Path" fill="#C41E26"></path>
            <path d="M10.9027818,4.16022188 C11.2112434,4.30523908 11.1470943,4.49314869 11.0522356,5.38095351 C10.9553295,6.29667245 10.6304893,7.96947648 10.0046944,9.61504724 C9.37821698,11.2578947 8.44873743,12.8721472 7.63868441,14.0670071 C6.82931382,15.262548 6.13663999,16.0393773 5.60843356,16.4880455 C5.07817981,16.9367137 4.711711,17.0565401 4.47217552,17.0960284 C4.23468736,17.1355167 4.12686227,17.0960284 4.06271317,16.9755211 C3.99856406,16.8556947 3.97604363,16.6582535 4.03132105,16.4172389 C4.0852336,16.1789478 4.21421423,15.8998067 4.58000061,15.54237 C4.94919916,15.1835715 5.55315614,14.744435 6.39596615,14.3366166 C7.23877617,13.9281174 8.31839191,13.5495749 9.20487792,13.290178 C10.0913639,13.0321426 10.7819904,12.8918912 11.3866298,12.7822773 C11.9926342,12.6719826 12.510604,12.5936869 13.0183373,12.5528369 C13.5260707,12.5147104 14.0242498,12.5147104 14.5101452,12.5528369 C14.9960405,12.5936869 15.4710168,12.6719826 15.8825265,12.7727457 C16.2919889,12.8721472 16.638667,12.9912927 16.9409867,13.1819257 C17.242624,13.3698352 17.5026326,13.6292323 17.6316132,13.9192666 C17.7626411,14.2072585 17.7626411,14.5272495 17.6541336,14.7553282 C17.5463085,14.9847686 17.3292935,15.1236583 17.0815688,15.2046773 C16.8331616,15.282973 16.5526799,15.3027171 16.2169208,15.2046773 C15.8825265,15.1039142 15.4921724,14.8846863 15.08271,14.5960135 C14.6725653,14.30666 14.2399001,13.9478616 13.6789366,13.3902602 C13.1166083,12.8326589 12.4246169,12.0762546 11.8418154,11.3389137 C11.259014,10.6015727 10.7819904,9.88465667 10.4578327,9.27667377 C10.1350399,8.66869087 9.96170083,8.17100273 9.82111876,7.6733146 C9.68053669,7.1742648 9.5727116,6.67657666 9.52971805,6.22858926 C9.4867245,5.78060185 9.50651519,5.38095351 9.55019117,5.06164335 C9.59318472,4.74437567 9.65938113,4.50336117 9.76652378,4.34336567 C9.87434887,4.18677433 10.0265324,4.1050745 10.1343575,4.06558624 C10.2421826,4.02609799 10.3076965,4.02609799 10.3718456,4.01588551 C10.4359947,4.00567304 10.5001438,3.98592891 10.5990973,4.01588551 C10.6932736,4.04448045 10.8181596,4.12073363 10.9430456,4.19834847" id="Path" stroke="#FFFFFF" stroke-width="1.4" stroke-linejoin="round"></path>
        </g>
    </g>
</svg>