<svg xmlns="http://www.w3.org/2000/svg" xmlns:xlink="http://www.w3.org/1999/xlink" width="32" height="32" viewBox="0 0 32 32">
  <defs>
    <rect id="pdf-a" width="32" height="32" rx="2"/>
  </defs>
  <g fill="none" fill-rule="evenodd">
    <use fill="#CD5757" xlink:href="#pdf-a"/>
    <g fill="#FFF" fill-rule="nonzero" transform="translate(4 4.5)">
      <path d="M1.80429957,22 C1.41161488,22 1.04525016,21.8664458 0.745155401,21.6136803 C0.17504585,21.1335435 -0.0815739477,20.5073906 0.0227659701,19.8504355 C0.102665907,19.3449046 0.342835718,17.8243146 5.55536661,15.6585262 C7.35288019,12.6509699 9.05404385,8.93543526 9.98440812,5.99112916 C8.55913424,3.75621226 8.11897959,2.15121039 8.63879918,1.09194677 C8.86110901,0.639320259 9.35578362,0.0832362529 10.4480628,0.00564313579 C10.5021127,0.00188104526 10.5547527,0 10.6062176,0 C11.1934822,0 11.7020218,0.248533105 12.0378365,0.699748838 C12.4556662,1.26124085 12.8899458,2.38822209 11.9605216,5.69604019 C13.5322003,7.96928339 15.9127484,10.5688879 18.0665218,12.3626997 C18.7421462,12.2933362 19.3592557,12.2583017 19.9058653,12.2583017 C21.596689,12.2583017 22.6304532,12.5813712 23.1592027,13.2747715 C23.4879675,13.7064714 23.5829074,14.2590285 23.4263975,14.8301609 C23.1831727,15.7156629 22.4993233,16.2442366 21.595984,16.2442366 L21.595749,16.2442366 C20.5904198,16.2442366 19.2213108,15.5731737 17.5232022,14.2489179 C14.3246197,14.6716828 10.104963,15.7958425 6.79005564,17.1106931 C3.76889802,21.9997649 2.29427418,22 1.80429957,22 Z M1.81017456,20.1238925 C1.81675456,20.1342382 1.83038455,20.1535189 1.85670452,20.1803238 C2.08723934,20.1161332 2.64207391,19.739689 3.51415822,18.6604393 C2.23763922,19.414033 1.83931454,19.9374339 1.81017456,20.1238925 Z M11.2726771,7.82303212 C10.4891877,9.99705018 9.39361859,12.4308876 8.19323953,14.668391 C10.6464026,13.833442 13.3430255,13.1275798 15.7153486,12.701523 C14.1450798,11.2467696 12.5515461,9.49739753 11.2726771,7.82303212 Z M20.5568148,14.0906749 C21.0331594,14.3323892 21.3814291,14.434436 21.595984,14.434436 C21.621599,14.4342008 21.6406339,14.43279 21.6533239,14.430909 C21.6606089,14.4156255 21.6711839,14.3902314 21.6819939,14.3511997 C21.6824639,14.3495538 21.6826989,14.3479079 21.6831689,14.346262 C21.585644,14.2853631 21.2874292,14.1452252 20.5568148,14.0906749 Z M10.6022226,1.8100358 C10.5937626,1.8100358 10.5853026,1.81050607 10.5761377,1.81121146 C10.3338528,1.828376 10.2645279,1.8866884 10.2635879,1.88715866 C10.2043679,1.97321648 10.176168,2.42842943 10.6207876,3.41315663 C10.7841125,2.32661786 10.6508676,1.91607973 10.6022226,1.8100358 Z"/>
    </g>
  </g>
</svg>
