<?xml version="1.0" encoding="UTF-8"?>
<svg width="20px" height="19px" viewBox="0 0 20 19" version="1.1" xmlns="http://www.w3.org/2000/svg" xmlns:xlink="http://www.w3.org/1999/xlink">
    <!-- Generator: Sketch 54.1 (76490) - https://sketchapp.com -->
    <title>Artboard</title>
    <desc>Created with Sketch.</desc>
    <g id="Page-1" stroke="none" stroke-width="1" fill="none" fill-rule="evenodd">
        <g id="Artboard" fill="#000000" fill-rule="nonzero">
            <g id="Group-15">
                <path d="M11.6417911,18.208955 C11.6417911,18.5386775 11.3811807,18.80597 11.0597015,18.80597 C10.7382223,18.80597 10.4776119,18.5386775 10.4776119,18.208955 L10.4776119,17.0144658 C10.4776119,14.377075 8.39267283,12.2388058 5.8208955,12.2388058 C3.24864542,12.2388058 1.16417908,14.3767167 1.16417908,17.0144658 L1.16417908,18.208955 C1.16417908,18.5386775 0.90356875,18.80597 0.582089583,18.80597 C0.260610333,18.80597 0,18.5386775 0,18.208955 L0,17.0144658 C0,13.7172717 2.6056875,11.0447758 5.8208955,11.0447758 C9.03561525,11.0447758 11.6417911,13.717615 11.6417911,17.0144658 L11.6417911,18.208955 Z M10.847288,10.5646533 C10.6108238,10.791615 10.2372281,10.7817167 10.0128386,10.54254 C9.78844908,10.3033642 9.79823758,9.92548667 10.0347018,9.6985225 C11.1237345,8.65325083 12.5651906,8.05970167 14.0975262,8.05970167 C17.357214,8.05970167 20,10.732355 20,14.0287042 L20,15.2238808 C20,15.5536033 19.7357371,15.8208958 19.4097526,15.8208958 C19.0837682,15.8208958 18.8195052,15.5536033 18.8195052,15.2238808 L18.8195052,14.0287042 C18.8195052,11.391845 16.7052875,9.25373167 14.0975262,9.25373167 C12.8705906,9.25373167 11.7190863,9.72788667 10.847288,10.5646533 Z M5.97014925,9.55223917 C4.15667692,9.55223917 2.68656717,8.08212833 2.68656717,6.26865667 C2.68656717,4.455185 4.15667692,2.985075 5.97014925,2.985075 C7.78362158,2.985075 9.25373133,4.455185 9.25373133,6.26865667 C9.25373133,8.08212833 7.78362158,9.55223917 5.97014925,9.55223917 Z M5.97014925,8.35820917 C7.12417708,8.35820917 8.0597015,7.42268333 8.0597015,6.26865667 C8.0597015,5.11463 7.12417708,4.17910417 5.97014925,4.17910417 C4.81612142,4.17910417 3.880597,5.11463 3.880597,6.26865667 C3.880597,7.42268333 4.81612142,8.35820917 5.97014925,8.35820917 Z M14.0298507,6.56716417 C12.2163784,6.56716417 10.7462687,5.09705333 10.7462687,3.2835825 C10.7462687,1.47011083 12.2163784,0 14.0298507,0 C15.843323,0 17.3134328,1.47011083 17.3134328,3.2835825 C17.3134328,5.09705333 15.843323,6.56716417 14.0298507,6.56716417 Z M14.0298508,5.37313417 C15.1838785,5.37313417 16.119403,4.43760917 16.119403,3.2835825 C16.119403,2.129555 15.1838785,1.19403 14.0298508,1.19403 C12.875823,1.19403 11.9402985,2.129555 11.9402985,3.2835825 C11.9402985,4.43760917 12.875823,5.37313417 14.0298508,5.37313417 Z" id="Shape"></path>
            </g>
        </g>
    </g>
</svg>