<?xml version="1.0" encoding="UTF-8"?>
<svg width="10px" height="10px" viewBox="0 0 10 10" version="1.1" xmlns="http://www.w3.org/2000/svg" xmlns:xlink="http://www.w3.org/1999/xlink">
    <!-- Generator: Sketch 54.1 (76490) - https://sketchapp.com -->
    <title>Group 4</title>
    <desc>Created with Sketch.</desc>
    <g id="Page-1" stroke="none" stroke-width="1" fill="none" fill-rule="evenodd">
        <g id="Branch-Chart-Minimize-Mode" transform="translate(-759.000000, -776.000000)" fill="#C99E3B">
            <g id="Group-5" transform="translate(756.000000, 773.000000)">
                <g id="Group-4" transform="translate(3.000000, 3.000000)">
                    <g id="Group">
                        <path d="M4.45945946,0.571620639 L4.45945946,4.37179754 L0.540540541,4.37179754 C0.242013514,4.37179754 0,4.60646683 0,4.89596069 C0,5.18545455 0.242013514,5.42012121 0.540540541,5.42012121 L4.45945946,5.42012121 L4.45945946,9.22027191 C4.45945946,9.50975266 4.70145946,9.74443243 5,9.74443243 C5.29854054,9.74443243 5.54054054,9.50975266 5.54054054,9.22027191 L5.54054054,5.42012121 L9.45945946,5.42012121 C9.75798649,5.42012121 10,5.18545455 10,4.89596069 C10,4.60646683 9.75798649,4.37179754 9.45945946,4.37179754 L5.54054054,4.37179754 L5.54054054,0.571620639 C5.54054054,0.282139885 5.29854054,0.0474601147 5,0.0474601147 C4.70145946,0.0474601147 4.45945946,0.282139885 4.45945946,0.571620639 Z" id="Path"></path>
                    </g>
                </g>
            </g>
        </g>
    </g>
</svg>