<?xml version="1.0" encoding="UTF-8"?>
<svg width="16px" height="16px" viewBox="0 0 16 16" version="1.1" xmlns="http://www.w3.org/2000/svg" xmlns:xlink="http://www.w3.org/1999/xlink">
    <!-- Generator: Sketch 54.1 (76490) - https://sketchapp.com -->
    <title>Path</title>
    <desc>Created with Sketch.</desc>
    <g id="Page-1" stroke="none" stroke-width="1" fill="none" fill-rule="evenodd">
        <g id="index---my-task" transform="translate(-1089.000000, -594.000000)" fill="#079F40" fill-rule="nonzero" stroke="#00A32E">
            <path d="M1103.44371,601.434437 L1097.54702,601.434437 L1097.54702,595.556291 C1097.54702,595.24106 1097.30596,595 1096.99073,595 C1096.6755,595 1096.43444,595.24106 1096.43444,595.556291 L1096.43444,601.45298 L1090.55629,601.45298 C1090.24106,601.45298 1090,601.69404 1090,602.009272 C1090,602.324503 1090.24106,602.565563 1090.55629,602.565563 L1096.45298,602.565563 L1096.45298,608.462252 C1096.45298,608.777483 1096.69404,609.018543 1097.00927,609.018543 C1097.3245,609.018543 1097.56556,608.777483 1097.56556,608.462252 L1097.56556,602.54702 L1103.44371,602.54702 C1103.75894,602.54702 1104,602.30596 1104,601.990728 C1104,601.675497 1103.75894,601.434437 1103.44371,601.434437 Z" id="Path"></path>
        </g>
    </g>
</svg>