<?xml version="1.0" encoding="UTF-8"?>
<svg width="32px" height="32px" viewBox="0 0 32 32" version="1.1" xmlns="http://www.w3.org/2000/svg" xmlns:xlink="http://www.w3.org/1999/xlink">
    <!-- Generator: Sketch 53.2 (72643) - https://sketchapp.com -->
    <title>Group 5</title>
    <desc>Created with Sketch.</desc>
    <g id="Page-1" stroke="none" stroke-width="1" fill="none" fill-rule="evenodd">
        <g id="Discussion-Page" transform="translate(-198.000000, -424.000000)">
            <g id="Group-5" transform="translate(198.000000, 424.000000)">
                <circle id="Oval" fill="#C42033" fill-rule="nonzero" cx="16.1702128" cy="16.1702128" r="14.8085106"></circle>
                <g id="noun_Error_1102749">
                    <path d="M16,32 C7.178,32 0,24.822 0,16 C0,7.178 7.178,0 16,0 C24.822,0 32,7.178 32,16 C32,24.822 24.822,32 16,32 Z M16,1.882 C8.214,1.882 1.882,8.214 1.882,16 C1.882,23.786 8.214,30.118 16,30.118 C23.786,30.118 30.118,23.786 30.118,16 C30.118,8.214 23.786,1.882 16,1.882 Z" id="Shape" fill="#C42033" fill-rule="nonzero"></path>
                    <path d="M21.274,19.876 C21.664,20.266 21.664,20.9 21.272,21.29 L21.272,21.29 C20.882,21.68 20.248,21.678 19.858,21.288 L10.726,12.124 C10.336,11.732 10.336,11.1 10.728,10.708 L10.728,10.708 C11.12,10.32 11.752,10.32 12.142,10.712 L21.274,19.876 Z" id="Path" fill="#FFFFFF"></path>
                    <g id="Path-2" transform="translate(10.433750, 10.417246)" fill="#FFFFFF">
                        <path d="M0.29225048,9.45875434 C-0.0977495205,9.84875434 -0.0977495205,10.4827543 0.29425048,10.8727543 C0.68425048,11.2627543 1.31825048,11.2607543 1.70825048,10.8707543 L10.8382505,1.70475434 C11.2282505,1.31275434 11.2282505,0.680754338 10.8362505,0.288754338 C10.4442505,-0.0972456619 9.81425048,-0.0972456619 9.42425048,0.294754338 L0.29225048,9.45875434 Z" id="Path"></path>
                    </g>
                </g>
            </g>
        </g>
    </g>
</svg>