<?xml version="1.0" encoding="UTF-8"?>
<svg width="17px" height="9px" viewBox="0 0 17 9" version="1.1" xmlns="http://www.w3.org/2000/svg" xmlns:xlink="http://www.w3.org/1999/xlink">
    <!-- Generator: Sketch 57.1 (83088) - https://sketch.com -->
    <title>Group</title>
    <desc>Created with Sketch.</desc>
    <g id="Page-1" stroke="none" stroke-width="1" fill="none" fill-rule="evenodd" opacity="0.54">
        <g id="Artboard" transform="translate(-897.000000, -919.000000)" fill="#000000" fill-rule="nonzero">
            <g id="Group" transform="translate(897.000000, 919.000000)">
                <path d="M3.63423295,0.0708185227 C3.42085019,0.0808197878 3.25597776,0.261890144 3.26598008,0.475250483 C3.2759824,0.688610822 3.45707178,0.853465924 3.67045455,0.843464659 L4.25,0.843464659 L4.25,2.19559636 L0.386363636,2.19559636 C0.374296411,2.19503021 0.362209271,2.19503021 0.350142045,2.19559636 C0.151027374,2.21436036 -0.000862393527,2.38194526 -3.65399132e-06,2.58191943 L-3.65399132e-06,5.67249432 C-3.65399132e-06,5.88584658 0.17298896,6.05879801 0.386363636,6.05881932 L4.25,6.05881932 L4.25,7.41095682 L3.67045455,7.41095682 C3.65838732,7.41039066 3.64630018,7.41039066 3.63423295,7.41095682 C3.49619781,7.41742648 3.37209996,7.49703784 3.30868588,7.61980207 C3.2452718,7.74256629 3.2521756,7.88983256 3.32679668,8.0061271 C3.40141776,8.12242163 3.5324194,8.19007652 3.67045455,8.18360682 L5.60227273,8.18360682 C5.7415761,8.18552541 5.87112673,8.11231477 5.94133822,7.99199678 C6.0115497,7.87167879 6.0115497,7.72288485 5.94133822,7.60256686 C5.87112673,7.48224887 5.7415761,7.40903823 5.60227273,7.41095682 L5.02272727,7.41095682 L5.02272727,6.05881932 L16.6136364,6.05881932 C16.827011,6.05879801 16.9999963,5.88584658 16.9999963,5.67249432 L16.9999963,2.58191943 C16.9999963,2.36856792 16.8270103,2.19561767 16.6136364,2.19559636 L5.02272727,2.19559636 L5.02272727,0.843464659 L5.60227273,0.843464659 C5.74160843,0.845433631 5.87121091,0.772234533 5.94145341,0.651896414 C6.01169592,0.531558294 6.01169592,0.382724888 5.94145341,0.262386768 C5.87121091,0.142048649 5.74160843,0.0688495511 5.60227273,0.0708185227 L3.67045455,0.0708185227 C3.65838732,0.0702523652 3.64630018,0.0702523652 3.63423295,0.0708185227 L3.63423295,0.0708185227 Z M0.772727273,2.9682425 L4.25,2.9682425 L4.25,5.28618864 L0.772727273,5.28618864 L0.772727273,2.9682425 Z M5.02272727,2.9682425 L16.2272727,2.9682425 L16.2272727,5.28618864 L5.02272727,5.28618864 L5.02272727,2.9682425 Z M1.89559659,3.74088864 C1.75756144,3.7473583 1.6334636,3.82696966 1.57004952,3.94973388 C1.50663544,4.07249811 1.51353924,4.21976438 1.58816032,4.33605891 C1.66278139,4.45235345 1.79378304,4.52000834 1.93181818,4.51353864 L3.09090909,4.51353864 C3.23021247,4.51545722 3.3597631,4.44224659 3.42997458,4.3219286 C3.50018606,4.20161061 3.50018606,4.05281667 3.42997458,3.93249868 C3.3597631,3.81218069 3.23021247,3.73897005 3.09090909,3.74088864 L1.93181818,3.74088864 C1.91975096,3.74032248 1.90766382,3.74032248 1.89559659,3.74088864 L1.89559659,3.74088864 Z" id="Shape"></path>
            </g>
        </g>
    </g>
</svg>