<?xml version="1.0" encoding="UTF-8"?>
<svg width="28px" height="24px" viewBox="0 0 28 24" version="1.1" xmlns="http://www.w3.org/2000/svg" xmlns:xlink="http://www.w3.org/1999/xlink">
    <!-- Generator: Sketch 52.3 (67297) - http://www.bohemiancoding.com/sketch -->
    <title>noun_reset_1921187 (1) 2</title>
    <desc>Created with Sketch.</desc>
    <g id="Page-1" stroke="none" stroke-width="1" fill="none" fill-rule="evenodd">
        <g id="noun_reset_1921187-(1)-2" fill="#FFFFFF">
            <g id="noun_reset_1921187-(1)">
                <g id="Group">
                    <path d="M7.6097561,18.4390244 C5.29756098,16.1268293 4.50731707,12.9073171 5.1804878,9.92195122 L7.66829268,10.7414634 L5.88292683,3.51219512 L0.146341463,8.28292683 L2.66341463,9.10243902 C1.69756098,12.995122 2.72195122,17.2682927 5.73658537,20.3121951 C9.27804878,23.8536585 14.5463415,24.6731707 18.8780488,22.7121951 L18.2341463,20.0780488 C14.8097561,21.8634146 10.4780488,21.3073171 7.6097561,18.4390244 Z" id="Path"></path>
                    <path d="M25.4341463,14.897561 C26.4,11.004878 25.3756098,6.73170732 22.3609756,3.68780488 C18.8195122,0.146341463 13.5804878,-0.643902439 9.27804878,1.25853659 L9.92195122,3.89268293 C13.3463415,2.16585366 17.6487805,2.72195122 20.4878049,5.56097561 C22.8,7.87317073 23.5902439,11.0926829 22.9170732,14.0780488 L20.4292683,13.2585366 L22.2146341,20.4878049 L27.9512195,15.7170732 L25.4341463,14.897561 Z" id="Path"></path>
                </g>
            </g>
        </g>
    </g>
</svg>