<?xml version="1.0" encoding="UTF-8"?>
<svg width="10px" height="11px" viewBox="0 0 10 11" version="1.1" xmlns="http://www.w3.org/2000/svg" xmlns:xlink="http://www.w3.org/1999/xlink">
    <!-- Generator: Sketch 55 (78076) - https://sketchapp.com -->
    <title>Combined Shape</title>
    <desc>Created with Sketch.</desc>
    <g id="Page-1" stroke="none" stroke-width="1" fill="none" fill-rule="evenodd">
        <path d="M1.27737226,0 L8.72262774,0 C9.41605839,0 10,0.583941606 10,1.27737226 L10,7.15328467 C10,7.88321168 9.41605839,8.46715328 8.72262774,8.46715328 L6.64233577,8.46715328 L3.61313869,10.2554745 C3.35766423,10.4014599 3.06569343,10.1824818 3.06569343,9.89051095 L3.06569343,8.46715328 L1.27737226,8.46715328 C0.583941606,8.46715328 0,7.88321168 0,7.15328467 L0,1.27737226 C0,0.583941606 0.583941606,0 1.27737226,0 Z M8.72262774,0.729927007 L1.27737226,0.729927007 C0.98540146,0.729927007 0.729927007,0.98540146 0.729927007,1.27737226 L0.729927007,7.15328467 C0.729927007,7.48175182 0.98540146,7.73722628 1.27737226,7.73722628 L3.43065693,7.73722628 C3.64963504,7.73722628 3.79562044,7.88321168 3.79562044,8.10218978 L3.79562044,9.27007299 L6.31386861,7.77372263 C6.38686131,7.73722628 6.45985401,7.73722628 6.53284672,7.73722628 L8.72262774,7.73722628 C9.01459854,7.73722628 9.27007299,7.48175182 9.27007299,7.15328467 L9.27007299,1.27737226 C9.27007299,0.98540146 9.01459854,0.729927007 8.72262774,0.729927007 Z M2.5,2 L7.5,2 C7.77614237,2 8,2.22385763 8,2.5 C8,2.77614237 7.77614237,3 7.5,3 L2.5,3 C2.22385763,3 2,2.77614237 2,2.5 C2,2.22385763 2.22385763,2 2.5,2 Z M2.5,4 L7.5,4 C7.77614237,4 8,4.22385763 8,4.5 C8,4.77614237 7.77614237,5 7.5,5 L2.5,5 C2.22385763,5 2,4.77614237 2,4.5 C2,4.22385763 2.22385763,4 2.5,4 Z" id="Combined-Shape" fill="#000000" fill-rule="nonzero"></path>
    </g>
</svg>