<?xml version="1.0" encoding="UTF-8"?>
<svg width="18px" height="18px" viewBox="0 0 18 18" version="1.1" xmlns="http://www.w3.org/2000/svg" xmlns:xlink="http://www.w3.org/1999/xlink">
    <!-- Generator: Sketch 52.4 (67378) - http://www.bohemiancoding.com/sketch -->
    <title>Shape</title>
    <desc>Created with Sketch.</desc>
    <g id="Page-1" stroke="none" stroke-width="1" fill="none" fill-rule="evenodd">
        <g id="index---my-task" transform="translate(-172.000000, -181.000000)" fill="#757575" fill-rule="nonzero">
            <g id="Group-5" transform="translate(92.000000, 170.000000)">
                <path d="M94.2049857,24.216 C95.4238312,22.7692 96.0891652,20.9586 96.0891652,19.0448 C96.0891652,16.896 95.2519966,14.8756 93.7322905,13.3564 C92.2125845,11.8368 90.1921776,11 88.0427447,11 C85.8933118,11 83.872905,11.8368 82.3529989,13.3562 C79.215567,16.493 79.2157671,21.5966 82.3529989,24.7332 C83.8727049,26.2528 85.8933118,27.0896 88.0425447,27.0896 C89.9567302,27.0896 91.7676949,26.4242 93.2147863,25.2058 L96.8047093,28.795 C96.9415368,28.9316 97.1205729,29 97.299809,29 C97.4790451,29 97.6580811,28.9316 97.7949087,28.795 C98.0683638,28.5218 98.0683638,28.0784 97.7949087,27.8052 L94.2049857,24.216 Z M83.0472809,23.949945 C80.317573,21.2206119 80.317573,16.7798095 83.0472809,14.0502656 C84.3698816,12.7281593 86.1282914,12 87.9983931,12 C89.8687056,12 91.6269047,12.7281593 92.9492946,14.0500549 C94.2716845,15.3721613 95,17.130194 95,18.9998946 C94.9997893,20.869806 94.2716845,22.627628 92.9492946,23.9497343 C91.6269047,25.2718407 89.8687056,25.9997893 87.9983931,26 C86.1282914,26.0002106 84.3698816,25.2720514 83.0472809,23.949945 Z" id="Shape"></path>
            </g>
        </g>
    </g>
</svg>