<?xml version="1.0" encoding="UTF-8"?>
<svg width="24px" height="26px" viewBox="0 0 24 26" version="1.1" xmlns="http://www.w3.org/2000/svg" xmlns:xlink="http://www.w3.org/1999/xlink">
    <!-- Generator: Sketch 57.1 (83088) - https://sketch.com -->
    <title>Shape</title>
    <desc>Created with Sketch.</desc>
    <g id="Page-1" stroke="none" stroke-width="1" fill="none" fill-rule="evenodd">
        <g id="announcement" transform="translate(-100.000000, -27.000000)" fill="#C99E3B" fill-rule="nonzero">
            <g id="Group-3" transform="translate(0.000000, -2.000000)">
                <g id="Group-2" transform="translate(0.000000, 2.000000)">
                    <path d="M118.78305,32.7714162 L121.204353,31.353334 C121.423431,31.2250866 121.704186,31.3012423 121.831168,31.5240474 L123.938505,35.227085 C124.064928,35.4490408 123.989856,35.7349787 123.770498,35.8632261 L121.445199,37.22497 C119.603268,38.303324 119.614152,41.2043199 121.447432,42.2772948 L123.770498,43.6376232 C123.989577,43.7661537 124.064928,44.0520917 123.939063,44.2740474 L121.831168,47.977085 C121.705302,48.1981914 121.423431,48.2754796 121.204353,48.1472322 L118.978128,46.8438083 C118.088977,46.3223255 117.064472,46.334216 116.185648,46.87495 C116.110854,46.9202471 116.037456,46.9638456 115.961546,47.0080103 C115.076024,47.5142053 114.566702,48.3994804 114.566702,49.4302724 L114.566702,52.0351386 C114.566702,52.2910671 114.360182,52.5 114.107614,52.5 L109.892103,52.5 C109.640372,52.5 109.433852,52.2913503 109.433852,52.0351386 L109.433852,49.4302724 C109.433852,48.4000466 108.923693,47.5150546 108.038729,47.0080103 C107.963377,46.9655442 107.888584,46.9202471 107.814627,46.87495 C106.935524,46.3336497 105.911577,46.3223255 105.02131,46.8438083 L102.795364,48.1472322 C102.576565,48.2749134 102.295252,48.1993239 102.168549,47.9762357 L100.061491,44.2737643 C99.9347885,44.0518086 100.01014,43.76672 100.230056,43.6381894 L102.553401,42.2770117 C104.392821,41.1995071 104.400077,38.3061551 102.555634,37.2255362 L100.230056,35.862943 C100.010419,35.7346956 99.9356257,35.4493239 100.061491,35.2273681 L102.169665,31.5237643 C102.295531,31.3018086 102.577402,31.2250866 102.796201,31.3530509 L105.217783,32.7714162 C107.053575,33.8469391 109.433852,32.4549027 109.433852,30.3024414 L109.433852,27.4657108 C109.433852,27.209216 109.640372,27 109.89294,27 L114.108172,27 C114.36074,27 114.56726,27.2089329 114.56726,27.4657108 L114.56726,30.3024414 C114.566702,32.4549027 116.947817,33.8463729 118.78305,32.7714162 L118.78305,32.7714162 L118.78305,32.7714162 Z M112.000277,35.1834865 C109.450597,35.1834865 107.383448,37.280459 107.383448,39.8663569 C107.383448,42.4522549 109.450597,44.5492273 112.000277,44.5492273 C114.549678,44.5492273 116.616827,42.4522549 116.616827,39.8663569 C116.616827,37.2801759 114.549957,35.1834865 112.000277,35.1834865 Z" id="Shape"></path>
                </g>
            </g>
        </g>
    </g>
</svg>