<?xml version="1.0" encoding="UTF-8"?>
<svg width="16px" height="16px" viewBox="0 0 16 16" version="1.1" xmlns="http://www.w3.org/2000/svg" xmlns:xlink="http://www.w3.org/1999/xlink">
    <!-- Generator: Sketch 54.1 (76490) - https://sketchapp.com -->
    <title>Group 59</title>
    <desc>Created with Sketch.</desc>
    <g id="Page-1" stroke="none" stroke-width="1" fill="none" fill-rule="evenodd">
        <g id="Outline-Icons" transform="translate(-1197.000000, -886.000000)" fill="#000000" fill-rule="nonzero">
            <g id="Group-59" transform="translate(1197.000000, 886.000000)">
                <path d="M8,0.25 C10.0554278,0.25 12.0266706,1.06651551 13.4800776,2.51992245 C14.9334845,3.97332938 15.75,5.9445722 15.75,8 C15.75,12.2802068 12.2802068,15.75 8,15.75 C3.71979319,15.75 0.25,12.2802068 0.25,8 C0.25,3.71979319 3.71979319,0.25 8,0.25 Z M8,0.75 C3.99593556,0.75 0.75,3.99593556 0.75,8 C0.75,12.0040644 3.99593556,15.25 8,15.25 C12.0040644,15.25 15.25,12.0040644 15.25,8 C15.25,6.07718045 14.4861629,4.23311458 13.1265242,2.87347584 C11.7668854,1.51383709 9.92281955,0.75 8,0.75 Z M8,12.825 C6.88334406,12.825 5.90512229,12.4541721 5.07231943,11.8292083 C4.7707768,11.6029204 4.50595108,11.3557088 4.27813733,11.1016519 C4.12495635,10.9308252 4.00687027,10.7776945 3.94004145,10.6773787 C3.83350763,10.5373601 3.81309456,10.3499242 3.88699038,10.1902557 C3.9608862,10.0305871 4.11698546,9.92484246 4.29267325,9.91543825 C4.46836104,9.90603404 4.63485658,9.99451085 4.71748747,10.1330641 C4.90477723,10.4074654 5.20968664,10.7479454 5.63898686,11.0705059 C6.31297893,11.5769189 7.0994571,11.875 8,11.875 C8.9005429,11.875 9.68702107,11.5769189 10.3610131,11.0705059 C10.7903134,10.7479454 11.0952228,10.4074654 11.2746252,10.1453787 C11.3651434,9.99451085 11.531639,9.90603404 11.7073268,9.91543825 C11.8830145,9.92484246 12.0391138,10.0305871 12.1130096,10.1902557 C12.1869054,10.3499242 12.1664924,10.5373601 12.0685553,10.6653585 C11.9931297,10.7776945 11.8750437,10.9308252 11.7218627,11.1016519 C11.4940489,11.3557088 11.2292232,11.6029204 10.9276806,11.8292083 C10.0948777,12.4541721 9.11665594,12.825 8,12.825 Z M5,7 C4.44771525,7 4,6.55228475 4,6 C4,5.44771525 4.44771525,5 5,5 C5.55228475,5 6,5.44771525 6,6 C6,6.55228475 5.55228475,7 5,7 Z M11,7 C10.4477153,7 10,6.55228475 10,6 C10,5.44771525 10.4477153,5 11,5 C11.5522847,5 12,5.44771525 12,6 C12,6.55228475 11.5522847,7 11,7 Z" id="Combined-Shape"></path>
            </g>
        </g>
    </g>
</svg>