<?xml version="1.0" encoding="UTF-8"?>
<svg width="1092px" height="177px" viewBox="0 0 1092 177" version="1.1" xmlns="http://www.w3.org/2000/svg" xmlns:xlink="http://www.w3.org/1999/xlink">
    <!-- Generator: Sketch 53 (72520) - https://sketchapp.com -->
    <title>sprite-menu</title>
    <desc>Created with Sketch.</desc>
    <g id="Page-1" stroke="none" stroke-width="1" fill="none" fill-rule="evenodd">
        <g id="sprite-menu">
            <path d="M82.9,4.4 L67.3,4.4 C66.7,4.4 66.2,4 66.2,3.3 C66.2,2.7 66.8,2.2 67.3,2.2 L82.9,2.2 C83.5,2.2 84,1.8 84,1.1 C84,0.6 83.4,0 82.9,0 L67.3,0 C65.4,0 64,1.6 64,3.3 L64,18.9 C64,20.8 65.6,22.2 67.3,22.2 L82.9,22.2 C83.5,22.2 84,21.8 84,21.1 L84,5.6 C84,5 83.4,4.4 82.9,4.4 Z M74,7.8 C75.2,7.8 76.2,8.8 76.2,10 C76.2,11.2 75.2,12.2 74,12.2 C72.8,12.2 71.8,11.2 71.8,10 C71.8,8.8 72.8,7.8 74,7.8 Z M69.6,18.9 C69.6,17.7 70.2,16.6 70.9,15.8 C71.7,15 72.8,14.5 74,14.5 C76.4,14.5 78.4,16.5 78.4,18.9 L69.6,18.9 Z M23.3857143,9.55 L19.4857143,6.25 L19.4857143,1.65 C19.4857143,1.25 19.1857143,1.05 18.8857143,1.05 L16.4857143,1.05 C16.0857143,1.05 15.8857143,1.35 15.8857143,1.65 L15.8857143,3.15 L12.3857143,0.15 C12.1857143,-0.05 11.7857143,-0.05 11.4857143,0.15 L0.38571429,9.55 C-0.21428571,10.05 -0.11428571,10.45 0.68571429,10.45 L1.88571429,10.45 L2.68571429,10.45 L21.1857143,10.45 L22.7857143,10.45 L23.1857143,10.45 C23.7857143,10.45 23.8857143,10.05 23.3857143,9.55 Z M15.0857143,22.75 L20.6857143,22.75 C20.8857143,22.75 21.0857143,22.55 21.0857143,22.35 L21.0857143,11.75 C21.0857143,11.55 20.8857143,11.35 20.6857143,11.35 L2.98571429,11.35 C2.78571429,11.35 2.58571429,11.55 2.58571429,11.75 L2.58571429,22.35 C2.58571429,22.55 2.78571429,22.75 2.98571429,22.75 L8.5857143,22.75 C8.6857143,22.75 8.7857143,22.65 8.7857143,22.55 L8.7857143,18.65 C8.7857143,16.75 10.0857143,15.15 11.7857143,15.15 C13.4857143,15.15 14.7857143,16.75 14.7857143,18.65 L14.7857143,22.55 C14.8857143,22.65 14.9857143,22.75 15.0857143,22.75 Z" id="Shape" fill="#000000" fill-rule="nonzero"></path>
            <g id="Group" transform="translate(124.000000, 4.000000)" fill="#000000" fill-rule="nonzero">
                <path d="M0.6,15.7 L20.4,15.7 C20.8,15.7 21.2,15.4 21.4,15 L24.8,5.8 C24.9,5.4 24.7,5.1 24.4,5.1 L4.5,5.1 C4.1,5.1 3.7,5.4 3.5,5.8 L0.1,15 C0,15.4 0.2,15.7 0.6,15.7 Z" id="Path"></path>
                <path d="M20.5,1.6 L7.5,1.6 C7.2,1.6 7,1.5 6.9,1.2 L6.5,0.6 C6.4,0.4 6.2,0.2 5.9,0.2 L1.2,0.2 C0.9,0.2 0.7,0.3 0.6,0.6 L0.1,1.5 C0,1.6 0,1.7 0,1.8 L0,3.5 L0,3.7 L0,13.3 L3.1,4.8 C3.2,4.5 3.5,4.3 3.8,4.3 L20.5,4.3 C20.9,4.3 21.2,4 21.2,3.6 L21.2,2.3 C21.2,1.9 20.9,1.6 20.5,1.6 Z" id="Path"></path>
            </g>
            <g id="Group" transform="translate(823.000000, 4.000000)" fill="#000000" fill-rule="nonzero">
                <path d="M6.6,8.9 C5.8,9 5,10 5,11.1 C5,12.2 5.7,13.1 6.6,13.3 C7.5,13.4 8.2,12.4 8.2,11.1 C8.2,9.8 7.5,8.8 6.6,8.9 Z" id="Path"></path>
                <path d="M0.3,2.8 L0.3,19.6 L13.5,21.9 L13.5,0.2 L0.3,2.8 Z M6.6,14.5 C5.2,14.4 4,12.8 4,11.1 C4,9.4 5.2,7.8 6.6,7.6 C8,7.4 9.2,9 9.2,11.1 C9.2,13.2 8.1,14.7 6.6,14.5 Z" id="Shape"></path>
                <polygon id="Path" points="23.8 5.3 16.6 11.3 14.6 9.7 14.6 4.8 23.8 4.8"></polygon>
                <polygon id="Path" points="23.8 6.5 16.6 12.5 14.6 10.9 14.6 17.6 23.8 17.6"></polygon>
            </g>
            <g id="Group" transform="translate(887.000000, 2.000000)" fill="#000000" fill-rule="nonzero">
                <rect id="Rectangle" x="16.5" y="4.1" width="5.5" height="16.5"></rect>
                <path d="M0,20.6 L15.4,24.7 L15.4,0 L0,4.1 L0,20.6 Z M4.2,6.9 L5.1,14.7 L6.4,6.9 L8.8,6.9 L10,14.7 L11.1,6.9 L13.2,6.9 L11.6,16.4 L8.9,16.4 L7.7,9.1 L6.5,16.4 L3.5,16.4 L2,6.9 L4.2,6.9 Z" id="Shape"></path>
            </g>
            <g id="Group" transform="translate(949.000000, 2.000000)" fill="#000000" fill-rule="nonzero">
                <rect id="Rectangle" x="16.5" y="4.1" width="5.5" height="16.5"></rect>
                <path d="M0,20.6 L15.4,24.7 L15.4,0 L0,4.1 L0,20.6 Z M3.8,6.9 L6.2,6.9 L7.6,10 L9,6.9 L11.4,6.9 L9,11.2 L11.8,16.3 L9.3,16.3 L7.7,12.7 L6.1,16.3 L3.7,16.3 L6.4,11.2 L3.8,6.9 Z" id="Shape"></path>
            </g>
            <path d="M1020.5,2.07565789 C1014.19043,2.07565789 1009.07566,7.19043421 1009.07566,13.5 C1009.07566,19.8098684 1014.19043,24.9243421 1020.5,24.9243421 C1026.80987,24.9243421 1031.92434,19.8098684 1031.92434,13.5 C1031.92434,7.19043421 1026.80987,2.07565789 1020.5,2.07565789 Z M1021.9263,20.5864211 C1021.59795,20.5864211 1021.33133,20.3201053 1021.33133,19.9914474 C1021.33133,19.6627895 1021.59795,19.3964737 1021.9263,19.3964737 C1022.20472,19.3964737 1022.43624,19.5880395 1022.5013,19.8458816 C1024.63576,19.5677632 1026.28904,17.7686184 1026.33776,15.57 C1026.32051,15.5706053 1026.30508,15.5751447 1026.28783,15.5751447 C1025.63626,15.5751447 1025.10847,15.0470526 1025.10847,14.3957895 C1025.10847,13.9233816 1025.3878,13.5190658 1025.78879,13.3305263 C1025.23739,9.87568421 1023.13501,7.30301316 1020.62347,7.30301316 C1018.07804,7.30301316 1015.95236,9.94528947 1015.43637,13.4706447 C1015.71176,13.6864211 1015.89183,14.0184079 1015.89183,14.3954868 C1015.89183,15.04675 1015.36374,15.5748421 1014.71247,15.5748421 C1014.06121,15.5748421 1013.53312,15.04675 1013.53312,14.3954868 C1013.53312,13.7442237 1014.06121,13.2161316 1014.71247,13.2161316 C1014.7612,13.2161316 1014.8075,13.2246053 1014.85501,13.2303553 C1015.44303,9.33003947 1017.80174,6.41327632 1020.62378,6.41327632 C1023.44521,6.41327632 1025.80332,9.32822368 1026.39193,13.2264211 C1026.99387,13.2796842 1027.46779,13.7796316 1027.46779,14.3954868 C1027.46779,14.9635263 1027.06589,15.4371447 1026.53114,15.5494211 C1026.49211,17.8581974 1024.75742,19.75025 1022.51674,20.0374474 C1022.49253,20.3443158 1022.23892,20.5864211 1021.9263,20.5864211 Z M1026.34503,22.3341184 C1025.72736,22.7435789 1025.06459,22.8422368 1024.36551,22.8050132 C1028.01071,21.2885263 1030.57461,17.6935658 1030.57461,13.5 C1030.57461,7.93581579 1026.06388,3.42509211 1020.5,3.42509211 C1014.93582,3.42509211 1010.42509,7.93551316 1010.42509,13.5 C1010.42509,17.6929605 1012.98747,21.2867105 1016.63116,22.8038026 C1015.93147,22.8407237 1015.26811,22.7417632 1014.65013,22.3316974 C1011.79208,20.4348026 1009.90789,17.1878684 1009.90789,13.5 C1009.90789,7.65013158 1014.65013,2.90789474 1020.5,2.90789474 C1026.34987,2.90789474 1031.09211,7.65013158 1031.09211,13.5 C1031.09211,17.1893816 1029.20611,20.4381316 1026.34503,22.3341184 Z M1080.33206,2.09772012 C1074.07354,2.09772012 1069,7.17125585 1069,13.429779 C1069,19.6883022 1074.07354,24.761838 1080.33206,24.761838 C1086.59058,24.761838 1091.66412,19.6883022 1091.66412,13.429779 C1091.66412,7.17125585 1086.59058,2.09772012 1080.33206,2.09772012 Z M1080.33206,6.9543168 C1082.40898,6.9543168 1084.10475,8.64735608 1084.10941,10.7232382 C1084.10944,10.7262331 1084.10939,10.7286479 1084.10941,10.7316698 C1084.11987,12.3523269 1083.1522,13.3610852 1082.33035,14.1380327 C1081.91865,14.527235 1081.53616,14.8773147 1081.2764,15.2341396 C1081.01663,15.5909646 1080.87168,15.9352433 1080.87168,16.3976992 L1080.87168,16.6675102 C1080.87443,16.8621172 1080.77219,17.0431309 1080.6041,17.1412376 C1080.43601,17.2393442 1080.22811,17.2393442 1080.06002,17.1412376 C1079.89193,17.0431309 1079.78968,16.8621172 1079.79244,16.6675102 L1079.79244,16.3976992 C1079.79244,15.6854793 1080.05678,15.0841382 1080.40794,14.6017703 C1080.7591,14.1193753 1081.18754,13.7327902 1081.58837,13.3538947 C1082.39001,12.5960525 1083.0407,11.9435849 1083.03017,10.7316698 C1083.03017,9.23515538 1081.82858,8.03356051 1080.33206,8.03356051 C1078.83554,8.03356051 1077.63395,9.23515538 1077.63395,10.7316698 C1077.6367,10.9262768 1077.53446,11.1072905 1077.36637,11.2053972 C1077.19827,11.3035039 1076.99038,11.3035039 1076.82229,11.2053972 C1076.6542,11.1072905 1076.55195,10.9262768 1076.55471,10.7316698 C1076.55471,8.65188891 1078.25228,6.9543168 1080.33206,6.9543168 Z M1080.33206,18.2863757 C1080.7791,18.2863757 1081.14149,18.6487588 1081.14149,19.0958085 C1081.14149,19.5428312 1080.7791,19.9052413 1080.33206,19.9052413 C1079.88502,19.9052413 1079.52263,19.5428312 1079.52263,19.0958085 C1079.52263,18.6487588 1079.88502,18.2863757 1080.33206,18.2863757 Z" id="Shape" fill="#000000" fill-rule="nonzero"></path>
            <g id="Group" transform="translate(0.000000, 70.000000)" fill="#000000" font-family="Helvetica" font-size="30" font-weight="normal">
                <g id="+">
                    <text>
                        <tspan x="0" y="29">+</tspan>
                    </text>
                </g>
            </g>
            <g id="Group" transform="translate(189.000000, 3.000000)" fill="#000000" fill-rule="nonzero" stroke="#000000">
                <path d="M17.2,0 C18.2,0 19,0.8 19,1.8 L19,11.2 C19,17.7 9.5,23 9.5,23 C9.5,23 0,17.7 0,11.2 L0,1.8 C0,0.8 0.8,0 1.8,0 L17.2,0 Z M5.5,10 C4.67157288,10 4,10.6715729 4,11.5 C4,12.3284271 4.67157288,13 5.5,13 L13.5,13 C14.3284271,13 15,12.3284271 15,11.5 C15,10.6715729 14.3284271,10 13.5,10 L5.5,10 Z M5.5,5 C4.67157288,5 4,5.67157288 4,6.5 C4,7.32842712 4.67157288,8 5.5,8 L13.5,8 C14.3284271,8 15,7.32842712 15,6.5 C15,5.67157288 14.3284271,5 13.5,5 L5.5,5 Z" id="Combined-Shape"></path>
            </g>
            <g id="Group" transform="translate(249.000000, 2.000000)" fill="#000000" fill-rule="nonzero">
                <path d="M16.4,0.4 L13.3,9.3 L22.8,9.3 C22.9,5.2 20.2,1.7 16.4,0.4 Z" id="Path"></path>
                <path d="M14.7,0.7 C13.6,0.3 12.4,0.1 11.1,0.1 C5.1,0.1 0.1,5 0.1,11 C0.1,17 5,21.9 11.1,21.9 C17.2,21.9 22.1,17 22.1,11 L11.1,11 L14.7,0.7 Z" id="Path"></path>
            </g>
            <path d="M326.6,21.4 L326.6,22.1 C326.6,22.7 326.2,23.2 325.6,23.2 L325.4,23.9 C325.3,24.2 325,24.5 324.6,24.5 L322.8,24.5 C322.4,24.5 322.1,24.3 322,23.9 L321.8,23.2 C321.3,23.1 320.8,22.7 320.8,22.1 L320.8,21.4 C320.8,21 321.1,20.7 321.5,20.7 L325.7,20.7 C326.3,20.8 326.6,21.1 326.6,21.4 Z M329.8,11.8 C329.8,13.4 329.1,14.9 328.1,16 C327.3,16.8 326.8,17.9 326.6,19 C326.5,19.5 326.1,19.9 325.6,19.9 L321.8,19.9 C321.3,19.9 320.9,19.5 320.8,19 C320.6,17.9 320.1,16.8 319.3,16 C318.3,14.9 317.6,13.5 317.6,11.9 C317.6,8.5 320.3,5.8 323.6,5.8 C327.1,5.7 329.8,8.4 329.8,11.8 Z M324.5,8.1 C324.5,7.7 324.2,7.4 323.8,7.4 C321.4,7.4 319.4,9.3 319.4,11.8 C319.4,12.2 319.7,12.5 320.1,12.5 C320.5,12.5 320.8,12.2 320.8,11.8 C320.8,10.1 322.1,8.8 323.8,8.8 C324.2,8.8 324.5,8.5 324.5,8.1 Z M323.8,3.7 C324.2,3.7 324.5,3.4 324.5,3 L324.5,0.7 C324.5,0.3 324.2,0 323.8,0 C323.4,0 323.1,0.3 323.1,0.7 L323.1,3.1 C323.1,3.4 323.4,3.7 323.8,3.7 Z M315.8,11.8 C315.8,11.4 315.5,11.1 315.1,11.1 L312.7,11.1 C312.3,11.1 312,11.4 312,11.8 C312,12.2 312.3,12.5 312.7,12.5 L315.1,12.5 C315.4,12.4 315.8,12.1 315.8,11.8 Z M334.9,11.1 L332.5,11.1 C332.1,11.1 331.8,11.4 331.8,11.8 C331.8,12.2 332.1,12.5 332.5,12.5 L334.9,12.5 C335.3,12.5 335.6,12.2 335.6,11.8 C335.6,11.4 335.3,11.1 334.9,11.1 Z M317.1,17.4 L315.4,19.1 C315.1,19.4 315.1,19.8 315.4,20.1 C315.5,20.2 315.7,20.3 315.9,20.3 C316.1,20.3 316.2,20.2 316.4,20.1 L318.1,18.4 C318.4,18.1 318.4,17.7 318.1,17.4 C317.8,17.2 317.4,17.2 317.1,17.4 Z M330,6.3 C330.2,6.3 330.3,6.2 330.5,6.1 L332.2,4.4 C332.5,4.1 332.5,3.7 332.2,3.4 C331.9,3.1 331.5,3.1 331.2,3.4 L329.5,5.1 C329.2,5.4 329.2,5.8 329.5,6.1 C329.6,6.2 329.8,6.3 330,6.3 Z M317.1,6.1 C317.2,6.2 317.4,6.3 317.6,6.3 C317.8,6.3 318,6.2 318.1,6.1 C318.4,5.8 318.4,5.4 318.1,5.1 L316.4,3.4 C316.1,3.1 315.7,3.1 315.4,3.4 C315.1,3.7 315.1,4.1 315.4,4.4 L317.1,6.1 Z M330.4,17.4 C330.1,17.1 329.7,17.1 329.4,17.4 C329.1,17.7 329.1,18.1 329.4,18.4 L331.1,20.1 C331.2,20.2 331.4,20.3 331.6,20.3 C331.8,20.3 331.9,20.2 332.1,20.1 C332.4,19.8 332.4,19.4 332.1,19.1 L330.4,17.4 Z M784.4,13.0039733 L784.4,13.9039733 C784.4,16.0039733 782.7,17.8039733 780.6,18.0039733 L780.6,21.8039733 L776.4,21.8039733 L776.4,18.0039733 L776,18.0039733 L776,9.00397326 L780.4,9.00397326 C782.6,8.90397326 784.4,10.7039733 784.4,13.0039733 Z M761.4,4.16568542 C761.6,3.96568542 761.9,3.96568542 762.1,4.06568542 L773.7,9.46568542 L773.7,16.9656854 L762.1,22.3656854 C761.7,22.5656854 761.3,22.3656854 761.1,21.9656854 C761,21.8656854 761,21.7656854 761,21.6656854 L761,4.86568542 C761.1,4.56568542 761.2,4.36568542 761.4,4.16568542 Z M386.066718,1.85 C384.500784,1.85 383.270408,3.13333333 383.270408,4.76666667 C383.270408,6.4 384.500784,7.68333333 386.066718,7.68333333 C387.632652,7.68333333 388.863029,6.4 388.863029,4.76666667 C388.863029,3.13333333 387.632652,1.85 386.066718,1.85 Z M376.671115,5.58333333 C376.44741,5.58333333 376.223705,5.58333333 376,5.58333333 L376,19.5833333 C379.579278,20.05 382.487441,21.2166667 386.066718,23.9 C389.645996,21.2166667 392.554159,20.1666667 396.133436,19.5833333 L396.133436,5.58333333 C392.777864,5.35 389.645996,6.98333333 386.066718,9.9 C382.711145,7.21666667 379.69113,5.58333333 376.671115,5.58333333 Z M439,9.6 L439,20.5 C439,21.4 439.8,22.2 440.7,22.2 L459.1,22.2 C460,22.2 460.8,21.4 460.8,20.5 L460.8,9.6 L439,9.6 Z M453,15 L451.6,16.3 L451.9,18.2 C451.9,18.3 451.9,18.4 451.8,18.4 C451.8,18.4 451.7,18.4 451.6,18.4 C451.6,18.4 451.5,18.4 451.5,18.4 L449.8,17.5 L448.1,18.4 C448,18.4 447.9,18.4 447.8,18.4 C447.7,18.3 447.7,18.2 447.7,18.2 L448,16.3 L446.6,15 C446.5,14.9 446.5,14.8 446.5,14.7 C446.5,14.6 446.6,14.5 446.7,14.5 L448.6,14.2 L449.5,12.5 C449.6,12.3 449.9,12.3 450,12.5 L450.9,14.2 L452.8,14.5 C452.9,14.5 453,14.6 453,14.7 C453.1,14.8 453.1,14.9 453,15 Z M459.1,3 L440.7,3 C439.8,3 439,3.8 439,4.7 L439,8.5 L460.8,8.5 L460.8,4.7 C460.8,3.8 460.1,3 459.1,3 Z M444,6.8 C443.4,6.8 442.9,6.3 442.9,5.7 C442.9,5.1 443.4,4.6 444,4.6 C444.6,4.6 445.1,5.1 445.1,5.7 C445,6.3 444.5,6.8 444,6.8 Z M455.9,6.8 C455.3,6.8 454.8,6.3 454.8,5.7 C454.8,5.1 455.3,4.6 455.9,4.6 C456.5,4.6 457,5.1 457,5.7 C456.9,6.3 456.4,6.8 455.9,6.8 Z M504,4 C503.1,4 502.3,4.6 502.2,5.5 L502.1,5.5 C501.1,5.5 500.3,6.3 500.3,7.3 L500.3,18.4 L507.2,14.1 C507.4,14 507.6,14.1 507.7,14.2 L509,16.8 L514.6,12.6 C514.8,12.5 515.1,12.6 515.2,12.8 L515.8,15.3 L521.9,12 L521.9,7.4 C521.9,6.4 521.1,5.6 520.1,5.6 L502.9,5.6 C503,5.2 503.4,4.8 503.9,4.8 L521.6,4.8 C522.2,4.8 522.7,5.3 522.7,5.9 L522.7,18.1 C522.7,18.6 522.4,19 521.9,19.1 L521.9,13 L515.7,16.4 C515.5,16.5 515.2,16.4 515.1,16.2 L514.5,13.7 L508.9,17.9 C508.7,18 508.4,18 508.3,17.8 L507,15.2 L500,19.5 L500,20.4 C500,21.4 500.8,22.2 501.8,22.2 L519.9,22.2 C520.9,22.2 521.7,21.4 521.7,20.4 L521.7,20 C522.5,19.8 523.2,19.1 523.2,18.2 L523.2,5.9 C523.2,4.9 522.4,4.1 521.4,4.1 L504,4.1 L504,4 Z M505.4,8.5 C506.4,8.5 507.3,9.3 507.3,10.4 C507.3,11.5 506.5,12.3 505.4,12.3 C504.4,12.3 503.5,11.5 503.5,10.4 C503.5,9.3 504.4,8.5 505.4,8.5 Z M505.4,9.3 C504.8,9.3 504.3,9.8 504.3,10.4 C504.3,11 504.8,11.5 505.4,11.5 C506,11.5 506.5,11 506.5,10.4 C506.6,9.8 506.1,9.3 505.4,9.3 Z" id="Shape" fill="#000000" fill-rule="nonzero"></path>
            <g id="Group" transform="translate(563.000000, 4.000000)" fill="#000000" fill-rule="nonzero">
                <path d="M17.9886667,0 L9.51133333,0 C7.74216667,0 6.25533333,1.14271429 5.72275,2.71428571 L12.4886667,2.71428571 C15.7116667,2.71428571 18.3333333,5.30190476 18.3333333,8.48304762 L18.3333333,11.7619048 L18.6963333,11.7619048 C20.7340833,11.7619048 22,10.2138571 22,7.72033333 L22,3.9592381 C22,1.77604762 20.2005833,0 17.9886667,0" id="Path"></path>
                <path d="M11.9166667,10.8571429 C11.4106667,10.8571429 11,10.4518095 11,9.95238095 C11,9.45295238 11.4106667,9.04761905 11.9166667,9.04761905 C12.4226667,9.04761905 12.8333333,9.45295238 12.8333333,9.95238095 C12.8333333,10.4518095 12.4226667,10.8571429 11.9166667,10.8571429 M8.25,10.8571429 C7.744,10.8571429 7.33333333,10.4518095 7.33333333,9.95238095 C7.33333333,9.45295238 7.744,9.04761905 8.25,9.04761905 C8.756,9.04761905 9.16666667,9.45295238 9.16666667,9.95238095 C9.16666667,10.4518095 8.756,10.8571429 8.25,10.8571429 M4.58333333,10.8571429 C4.07733333,10.8571429 3.66666667,10.4518095 3.66666667,9.95238095 C3.66666667,9.45295238 4.07733333,9.04761905 4.58333333,9.04761905 C5.08933333,9.04761905 5.5,9.45295238 5.5,9.95238095 C5.5,10.4518095 5.08933333,10.8571429 4.58333333,10.8571429 M12.4886667,4.52380952 L4.01133333,4.52380952 C1.79941667,4.52380952 0,6.29985714 0,8.48304762 L0,12.2441429 C0,14.7376667 1.26591667,16.2857143 3.30366667,16.2857143 L3.66666667,16.2857143 L3.66666667,19 C3.66666667,19.4261429 3.96733333,19.7934762 4.389,19.8839524 C4.45408333,19.8984286 4.51916667,19.9047619 4.58333333,19.9047619 C4.93716667,19.9047619 5.26625,19.703 5.4175,19.3754762 C6.18933333,17.7025714 8.107,16.5924286 8.69,16.2857143 L11.9166667,16.2857143 C14.036,16.2857143 16.5,14.5205238 16.5,12.2441429 L16.5,8.48304762 C16.5,6.29985714 14.7005833,4.52380952 12.4886667,4.52380952" id="Shape"></path>
            </g>
            <path d="M625,3.8 C625,2.3 626.2,1 627.8,1 L644.3,1 C645.8,1 647.1,2.2 647.1,3.8 L647.1,20.3 C647.1,21.8 645.9,23.1 644.3,23.1 L627.8,23.1 C626.3,23.1 625,21.9 625,20.3 L625,3.8 Z M643.1,7.7 C642.6,7.2 641.7,7.2 641.2,7.7 L634.4,14.5 L631.5,11.6 C631,11.1 630.1,11.1 629.6,11.6 C629.1,12.1 629.1,13 629.6,13.5 L632.5,16.4 L633.5,17.4 C634,17.9 634.9,17.9 635.5,17.4 L636.5,16.4 L643.3,9.6 C643.6,9.1 643.6,8.2 643.1,7.7 Z M708.43526,23.9652176 C706.257536,23.7488686 704.297013,22.9889968 702.578633,21.6952698 C699.974553,19.7347215 698.357149,16.8243066 698.042015,13.5319282 C697.968212,12.7608442 698.000338,11.6234355 698.118776,10.8144679 C698.688621,6.92217226 701.249584,3.56128914 704.859311,1.96851657 C705.767011,1.56799836 706.838059,1.25845313 707.808744,1.11609518 C708.864207,0.961301608 710.126683,0.961301608 711.182147,1.11609518 C715.071069,1.68643507 718.42904,4.24961869 720.020432,7.86247719 C720.420604,8.77096363 720.729881,9.84294118 720.872115,10.8144679 C721.026775,11.8708465 721.026775,13.1344176 720.872115,14.1907962 C720.434004,17.183295 718.798625,19.9192979 716.363344,21.7340136 C714.65285,23.0086352 712.692023,23.758107 710.52385,23.9659959 C710.047422,24.011677 708.89859,24.0112479 708.43526,23.9652176 Z M711.040823,14.4734505 L711.040823,11.8789553 L709.445594,11.8789553 L707.850366,11.8789553 L707.850366,14.4734505 L707.850366,17.0679457 L709.445594,17.0679457 L711.040823,17.0679457 L711.040823,14.4734505 Z M709.88179,11.2403383 C710.423476,11.1118888 710.883007,10.6534076 711.029509,10.0952399 C711.080469,9.9010938 711.080469,9.51602681 711.029509,9.32188073 C710.954603,9.03649025 710.825607,8.81491637 710.606961,8.59608068 C710.287768,8.27661051 709.944464,8.13384342 709.495445,8.13384342 C709.046426,8.13384342 708.703123,8.27661051 708.38393,8.59608068 C708.064736,8.91555085 707.922093,9.25915183 707.922093,9.7085603 C707.922093,10.1337262 708.06223,10.4886073 708.349277,10.790355 C708.756591,11.2185306 709.300397,11.3782058 709.88179,11.2403383 Z" id="Shape" fill="#000000" fill-rule="nonzero"></path>
            <path d="M82.9,154.4 L67.3,154.4 C66.7,154.4 66.2,154 66.2,153.3 C66.2,152.7 66.8,152.2 67.3,152.2 L82.9,152.2 C83.5,152.2 84,151.8 84,151.1 C84,150.6 83.4,150 82.9,150 L67.3,150 C65.4,150 64,151.6 64,153.3 L64,168.9 C64,170.8 65.6,172.2 67.3,172.2 L82.9,172.2 C83.5,172.2 84,171.8 84,171.1 L84,155.6 C84,155 83.4,154.4 82.9,154.4 Z M74,157.8 C75.2,157.8 76.2,158.8 76.2,160 C76.2,161.2 75.2,162.2 74,162.2 C72.8,162.2 71.8,161.2 71.8,160 C71.8,158.8 72.8,157.8 74,157.8 Z M69.6,168.9 C69.6,167.7 70.2,166.6 70.9,165.8 C71.7,165 72.8,164.5 74,164.5 C76.4,164.5 78.4,166.5 78.4,168.9 L69.6,168.9 Z M23.3857143,159.55 L19.4857143,156.25 L19.4857143,151.65 C19.4857143,151.25 19.1857143,151.05 18.8857143,151.05 L16.4857143,151.05 C16.0857143,151.05 15.8857143,151.35 15.8857143,151.65 L15.8857143,153.15 L12.3857143,150.15 C12.1857143,149.95 11.7857143,149.95 11.4857143,150.15 L0.38571429,159.55 C-0.21428571,160.05 -0.11428571,160.45 0.68571429,160.45 L1.88571429,160.45 L2.68571429,160.45 L21.1857143,160.45 L22.7857143,160.45 L23.1857143,160.45 C23.7857143,160.45 23.8857143,160.05 23.3857143,159.55 Z M15.4705827,172.75 L21.7337406,172.75 C21.9574248,172.75 22.181109,172.566667 22.181109,172.383333 L22.181109,162.666667 C22.181109,162.483333 21.9574248,162.3 21.7337406,162.3 L1.93768797,162.3 C1.71400376,162.3 1.49031955,162.483333 1.49031955,162.666667 L1.49031955,172.383333 C1.49031955,172.566667 1.71400376,172.75 1.93768797,172.75 L8.20084588,172.75 C8.31268798,172.75 8.42453009,172.658333 8.42453009,172.566667 L8.42453009,168.991667 C8.42453009,167.25 9.87847746,165.783333 11.7797932,165.783333 C13.681109,165.783333 15.1350564,167.25 15.1350564,168.991667 L15.1350564,172.566667 C15.2468985,172.658333 15.3587406,172.75 15.4705827,172.75 Z" id="Shape" fill="#FFFFFF" fill-rule="nonzero"></path>
            <g id="Group" transform="translate(124.000000, 154.000000)" fill="#FFFFFF" fill-rule="nonzero">
                <path d="M0.6,15.7 L20.4,15.7 C20.8,15.7 21.2,15.4 21.4,15 L24.8,5.8 C24.9,5.4 24.7,5.1 24.4,5.1 L4.5,5.1 C4.1,5.1 3.7,5.4 3.5,5.8 L0.1,15 C0,15.4 0.2,15.7 0.6,15.7 Z" id="Path"></path>
                <path d="M20.5,1.6 L7.5,1.6 C7.2,1.6 7,1.5 6.9,1.2 L6.5,0.6 C6.4,0.4 6.2,0.2 5.9,0.2 L1.2,0.2 C0.9,0.2 0.7,0.3 0.6,0.6 L0.1,1.5 C0,1.6 0,1.7 0,1.8 L0,3.5 L0,3.7 L0,13.3 L3.1,4.8 C3.2,4.5 3.5,4.3 3.8,4.3 L20.5,4.3 C20.9,4.3 21.2,4 21.2,3.6 L21.2,2.3 C21.2,1.9 20.9,1.6 20.5,1.6 Z" id="Path"></path>
            </g>
            <g id="Group" transform="translate(823.000000, 154.000000)" fill="#FFFFFF" fill-rule="nonzero">
                <path d="M6.6,8.9 C5.8,9 5,10 5,11.1 C5,12.2 5.7,13.1 6.6,13.3 C7.5,13.4 8.2,12.4 8.2,11.1 C8.2,9.8 7.5,8.8 6.6,8.9 Z" id="Path"></path>
                <path d="M0.3,2.8 L0.3,19.6 L13.5,21.9 L13.5,0.2 L0.3,2.8 Z M6.6,14.5 C5.2,14.4 4,12.8 4,11.1 C4,9.4 5.2,7.8 6.6,7.6 C8,7.4 9.2,9 9.2,11.1 C9.2,13.2 8.1,14.7 6.6,14.5 Z" id="Shape"></path>
                <polygon id="Path" points="23.8 5.3 16.6 11.3 14.6 9.7 14.6 4.8 23.8 4.8"></polygon>
                <polygon id="Path" points="23.8 6.5 16.6 12.5 14.6 10.9 14.6 17.6 23.8 17.6"></polygon>
            </g>
            <g id="Group" transform="translate(887.000000, 152.000000)" fill="#FFFFFF" fill-rule="nonzero">
                <rect id="Rectangle" x="16.5" y="4.1" width="5.5" height="16.5"></rect>
                <path d="M0,20.6 L15.4,24.7 L15.4,0 L0,4.1 L0,20.6 Z M4.2,6.9 L5.1,14.7 L6.4,6.9 L8.8,6.9 L10,14.7 L11.1,6.9 L13.2,6.9 L11.6,16.4 L8.9,16.4 L7.7,9.1 L6.5,16.4 L3.5,16.4 L2,6.9 L4.2,6.9 Z" id="Shape"></path>
            </g>
            <g id="Group" transform="translate(949.000000, 152.000000)" fill="#FFFFFF" fill-rule="nonzero">
                <rect id="Rectangle" x="16.5" y="4.1" width="5.5" height="16.5"></rect>
                <path d="M0,20.6 L15.4,24.7 L15.4,0 L0,4.1 L0,20.6 Z M3.8,6.9 L6.2,6.9 L7.6,10 L9,6.9 L11.4,6.9 L9,11.2 L11.8,16.3 L9.3,16.3 L7.7,12.7 L6.1,16.3 L3.7,16.3 L6.4,11.2 L3.8,6.9 Z" id="Shape"></path>
            </g>
            <path d="M1020.5,152.075658 C1014.19043,152.075658 1009.07566,157.190434 1009.07566,163.5 C1009.07566,169.809868 1014.19043,174.924342 1020.5,174.924342 C1026.80987,174.924342 1031.92434,169.809868 1031.92434,163.5 C1031.92434,157.190434 1026.80987,152.075658 1020.5,152.075658 Z M1021.9263,170.586421 C1021.59795,170.586421 1021.33133,170.320105 1021.33133,169.991447 C1021.33133,169.66279 1021.59795,169.396474 1021.9263,169.396474 C1022.20472,169.396474 1022.43624,169.58804 1022.5013,169.845882 C1024.63576,169.567763 1026.28904,167.768618 1026.33776,165.57 C1026.32051,165.570605 1026.30508,165.575145 1026.28783,165.575145 C1025.63626,165.575145 1025.10847,165.047053 1025.10847,164.39579 C1025.10847,163.923382 1025.3878,163.519066 1025.78879,163.330526 C1025.23739,159.875684 1023.13501,157.303013 1020.62347,157.303013 C1018.07804,157.303013 1015.95236,159.945289 1015.43637,163.470645 C1015.71176,163.686421 1015.89183,164.018408 1015.89183,164.395487 C1015.89183,165.04675 1015.36374,165.574842 1014.71247,165.574842 C1014.06121,165.574842 1013.53312,165.04675 1013.53312,164.395487 C1013.53312,163.744224 1014.06121,163.216132 1014.71247,163.216132 C1014.7612,163.216132 1014.8075,163.224605 1014.85501,163.230355 C1015.44303,159.330039 1017.80174,156.413276 1020.62378,156.413276 C1023.44521,156.413276 1025.80332,159.328224 1026.39193,163.226421 C1026.99387,163.279684 1027.46779,163.779632 1027.46779,164.395487 C1027.46779,164.963526 1027.06589,165.437145 1026.53114,165.549421 C1026.49211,167.858197 1024.75742,169.75025 1022.51674,170.037447 C1022.49253,170.344316 1022.23892,170.586421 1021.9263,170.586421 Z M1026.34503,172.334118 C1025.72736,172.743579 1025.06459,172.842237 1024.36551,172.805013 C1028.01071,171.288526 1030.57461,167.693566 1030.57461,163.5 C1030.57461,157.935816 1026.06388,153.425092 1020.5,153.425092 C1014.93582,153.425092 1010.42509,157.935513 1010.42509,163.5 C1010.42509,167.69296 1012.98747,171.28671 1016.63116,172.803803 C1015.93147,172.840724 1015.26811,172.741763 1014.65013,172.331697 C1011.79208,170.434803 1009.90789,167.187868 1009.90789,163.5 C1009.90789,157.650132 1014.65013,152.907895 1020.5,152.907895 C1026.34987,152.907895 1031.09211,157.650132 1031.09211,163.5 C1031.09211,167.189382 1029.20611,170.438132 1026.34503,172.334118 Z M1080.33206,152.09772 C1074.07354,152.09772 1069,157.171256 1069,163.429779 C1069,169.688302 1074.07354,174.761838 1080.33206,174.761838 C1086.59058,174.761838 1091.66412,169.688302 1091.66412,163.429779 C1091.66412,157.171256 1086.59058,152.09772 1080.33206,152.09772 Z M1080.33206,156.954317 C1082.40898,156.954317 1084.10475,158.647356 1084.10941,160.723238 C1084.10944,160.726233 1084.10939,160.728648 1084.10941,160.73167 C1084.11987,162.352327 1083.1522,163.361085 1082.33035,164.138033 C1081.91865,164.527235 1081.53616,164.877315 1081.2764,165.23414 C1081.01663,165.590965 1080.87168,165.935243 1080.87168,166.397699 L1080.87168,166.66751 C1080.87443,166.862117 1080.77219,167.043131 1080.6041,167.141238 C1080.43601,167.239344 1080.22811,167.239344 1080.06002,167.141238 C1079.89193,167.043131 1079.78968,166.862117 1079.79244,166.66751 L1079.79244,166.397699 C1079.79244,165.685479 1080.05678,165.084138 1080.40794,164.60177 C1080.7591,164.119375 1081.18754,163.73279 1081.58837,163.353895 C1082.39001,162.596053 1083.0407,161.943585 1083.03017,160.73167 C1083.03017,159.235155 1081.82858,158.033561 1080.33206,158.033561 C1078.83554,158.033561 1077.63395,159.235155 1077.63395,160.73167 C1077.6367,160.926277 1077.53446,161.107291 1077.36637,161.205397 C1077.19827,161.303504 1076.99038,161.303504 1076.82229,161.205397 C1076.6542,161.107291 1076.55195,160.926277 1076.55471,160.73167 C1076.55471,158.651889 1078.25228,156.954317 1080.33206,156.954317 Z M1080.33206,168.286376 C1080.7791,168.286376 1081.14149,168.648759 1081.14149,169.095809 C1081.14149,169.542831 1080.7791,169.905241 1080.33206,169.905241 C1079.88502,169.905241 1079.52263,169.542831 1079.52263,169.095809 C1079.52263,168.648759 1079.88502,168.286376 1080.33206,168.286376 Z" id="Shape" fill="#FFFFFF" fill-rule="nonzero"></path>
            <g id="Group" transform="translate(189.000000, 153.000000)">
                <path d="M17.2,0 L1.8,0 C0.8,0 0,0.8 0,1.8 L0,11.2 C0,17.7 9.5,23 9.5,23 C9.5,23 19,17.7 19,11.2 L19,1.8 C19,0.8 18.2,0 17.2,0 Z" id="Path" stroke="#FFFFFF" fill="#FFFFFF" fill-rule="nonzero"></path>
                <path d="M5,6 L13.7,6 M5,10.9 L13.7,10.9" id="Shape" stroke="#C99E3C" stroke-width="2" stroke-linecap="square"></path>
            </g>
            <g id="Group" transform="translate(249.000000, 152.000000)" fill="#FFFFFF" fill-rule="nonzero">
                <path d="M16.4,0.4 L13.3,9.3 L22.8,9.3 C22.9,5.2 20.2,1.7 16.4,0.4 Z" id="Path"></path>
                <path d="M14.7,0.7 C13.6,0.3 12.4,0.1 11.1,0.1 C5.1,0.1 0.1,5 0.1,11 C0.1,17 5,21.9 11.1,21.9 C17.2,21.9 22.1,17 22.1,11 L11.1,11 L14.7,0.7 Z" id="Path"></path>
            </g>
            <path d="M326.6,171.4 L326.6,172.1 C326.6,172.7 326.2,173.2 325.6,173.2 L325.4,173.9 C325.3,174.2 325,174.5 324.6,174.5 L322.8,174.5 C322.4,174.5 322.1,174.3 322,173.9 L321.8,173.2 C321.3,173.1 320.8,172.7 320.8,172.1 L320.8,171.4 C320.8,171 321.1,170.7 321.5,170.7 L325.7,170.7 C326.3,170.8 326.6,171.1 326.6,171.4 Z M329.8,161.8 C329.8,163.4 329.1,164.9 328.1,166 C327.3,166.8 326.8,167.9 326.6,169 C326.5,169.5 326.1,169.9 325.6,169.9 L321.8,169.9 C321.3,169.9 320.9,169.5 320.8,169 C320.6,167.9 320.1,166.8 319.3,166 C318.3,164.9 317.6,163.5 317.6,161.9 C317.6,158.5 320.3,155.8 323.6,155.8 C327.1,155.7 329.8,158.4 329.8,161.8 Z M324.5,158.1 C324.5,157.7 324.2,157.4 323.8,157.4 C321.4,157.4 319.4,159.3 319.4,161.8 C319.4,162.2 319.7,162.5 320.1,162.5 C320.5,162.5 320.8,162.2 320.8,161.8 C320.8,160.1 322.1,158.8 323.8,158.8 C324.2,158.8 324.5,158.5 324.5,158.1 Z M323.8,153.7 C324.2,153.7 324.5,153.4 324.5,153 L324.5,150.7 C324.5,150.3 324.2,150 323.8,150 C323.4,150 323.1,150.3 323.1,150.7 L323.1,153.1 C323.1,153.4 323.4,153.7 323.8,153.7 Z M315.8,161.8 C315.8,161.4 315.5,161.1 315.1,161.1 L312.7,161.1 C312.3,161.1 312,161.4 312,161.8 C312,162.2 312.3,162.5 312.7,162.5 L315.1,162.5 C315.4,162.4 315.8,162.1 315.8,161.8 Z M334.9,161.1 L332.5,161.1 C332.1,161.1 331.8,161.4 331.8,161.8 C331.8,162.2 332.1,162.5 332.5,162.5 L334.9,162.5 C335.3,162.5 335.6,162.2 335.6,161.8 C335.6,161.4 335.3,161.1 334.9,161.1 Z M317.1,167.4 L315.4,169.1 C315.1,169.4 315.1,169.8 315.4,170.1 C315.5,170.2 315.7,170.3 315.9,170.3 C316.1,170.3 316.2,170.2 316.4,170.1 L318.1,168.4 C318.4,168.1 318.4,167.7 318.1,167.4 C317.8,167.2 317.4,167.2 317.1,167.4 Z M330,156.3 C330.2,156.3 330.3,156.2 330.5,156.1 L332.2,154.4 C332.5,154.1 332.5,153.7 332.2,153.4 C331.9,153.1 331.5,153.1 331.2,153.4 L329.5,155.1 C329.2,155.4 329.2,155.8 329.5,156.1 C329.6,156.2 329.8,156.3 330,156.3 Z M317.1,156.1 C317.2,156.2 317.4,156.3 317.6,156.3 C317.8,156.3 318,156.2 318.1,156.1 C318.4,155.8 318.4,155.4 318.1,155.1 L316.4,153.4 C316.1,153.1 315.7,153.1 315.4,153.4 C315.1,153.7 315.1,154.1 315.4,154.4 L317.1,156.1 Z M330.4,167.4 C330.1,167.1 329.7,167.1 329.4,167.4 C329.1,167.7 329.1,168.1 329.4,168.4 L331.1,170.1 C331.2,170.2 331.4,170.3 331.6,170.3 C331.8,170.3 331.9,170.2 332.1,170.1 C332.4,169.8 332.4,169.4 332.1,169.1 L330.4,167.4 Z M784.4,163.003973 L784.4,163.903973 C784.4,166.003973 782.7,167.803973 780.6,168.003973 L780.6,171.803973 L776.4,171.803973 L776.4,168.003973 L776,168.003973 L776,159.003973 L780.4,159.003973 C782.6,158.903973 784.4,160.703973 784.4,163.003973 Z M761.4,154.165685 C761.6,153.965685 761.9,153.965685 762.1,154.065685 L773.7,159.465685 L773.7,166.965685 L762.1,172.365685 C761.7,172.565685 761.3,172.365685 761.1,171.965685 C761,171.865685 761,171.765685 761,171.665685 L761,154.865685 C761.1,154.565685 761.2,154.365685 761.4,154.165685 Z M386.066718,151.85 C384.500784,151.85 383.270408,153.133333 383.270408,154.766667 C383.270408,156.4 384.500784,157.683333 386.066718,157.683333 C387.632652,157.683333 388.863029,156.4 388.863029,154.766667 C388.863029,153.133333 387.632652,151.85 386.066718,151.85 Z M376.671115,155.583333 C376.44741,155.583333 376.223705,155.583333 376,155.583333 L376,169.583333 C379.579278,170.05 382.487441,171.216667 386.066718,173.9 C389.645996,171.216667 392.554159,170.166667 396.133436,169.583333 L396.133436,155.583333 C392.777864,155.35 389.645996,156.983333 386.066718,159.9 C382.711145,157.216667 379.69113,155.583333 376.671115,155.583333 Z M439,159.6 L439,170.5 C439,171.4 439.8,172.2 440.7,172.2 L459.1,172.2 C460,172.2 460.8,171.4 460.8,170.5 L460.8,159.6 L439,159.6 Z M453,165 L451.6,166.3 L451.9,168.2 C451.9,168.3 451.9,168.4 451.8,168.4 C451.8,168.4 451.7,168.4 451.6,168.4 C451.6,168.4 451.5,168.4 451.5,168.4 L449.8,167.5 L448.1,168.4 C448,168.4 447.9,168.4 447.8,168.4 C447.7,168.3 447.7,168.2 447.7,168.2 L448,166.3 L446.6,165 C446.5,164.9 446.5,164.8 446.5,164.7 C446.5,164.6 446.6,164.5 446.7,164.5 L448.6,164.2 L449.5,162.5 C449.6,162.3 449.9,162.3 450,162.5 L450.9,164.2 L452.8,164.5 C452.9,164.5 453,164.6 453,164.7 C453.1,164.8 453.1,164.9 453,165 Z M459.1,153 L440.7,153 C439.8,153 439,153.8 439,154.7 L439,158.5 L460.8,158.5 L460.8,154.7 C460.8,153.8 460.1,153 459.1,153 Z M444,156.8 C443.4,156.8 442.9,156.3 442.9,155.7 C442.9,155.1 443.4,154.6 444,154.6 C444.6,154.6 445.1,155.1 445.1,155.7 C445,156.3 444.5,156.8 444,156.8 Z M455.9,156.8 C455.3,156.8 454.8,156.3 454.8,155.7 C454.8,155.1 455.3,154.6 455.9,154.6 C456.5,154.6 457,155.1 457,155.7 C456.9,156.3 456.4,156.8 455.9,156.8 Z M504,154 C503.1,154 502.3,154.6 502.2,155.5 L502.1,155.5 C501.1,155.5 500.3,156.3 500.3,157.3 L500.3,168.4 L507.2,164.1 C507.4,164 507.6,164.1 507.7,164.2 L509,166.8 L514.6,162.6 C514.8,162.5 515.1,162.6 515.2,162.8 L515.8,165.3 L521.9,162 L521.9,157.4 C521.9,156.4 521.1,155.6 520.1,155.6 L502.9,155.6 C503,155.2 503.4,154.8 503.9,154.8 L521.6,154.8 C522.2,154.8 522.7,155.3 522.7,155.9 L522.7,168.1 C522.7,168.6 522.4,169 521.9,169.1 L521.9,163 L515.7,166.4 C515.5,166.5 515.2,166.4 515.1,166.2 L514.5,163.7 L508.9,167.9 C508.7,168 508.4,168 508.3,167.8 L507,165.2 L500,169.5 L500,170.4 C500,171.4 500.8,172.2 501.8,172.2 L519.9,172.2 C520.9,172.2 521.7,171.4 521.7,170.4 L521.7,170 C522.5,169.8 523.2,169.1 523.2,168.2 L523.2,155.9 C523.2,154.9 522.4,154.1 521.4,154.1 L504,154.1 L504,154 Z" id="Shape" fill="#FFFFFF" fill-rule="nonzero"></path>
            <g id="Group" transform="translate(563.000000, 154.000000)" fill="#FFFFFF" fill-rule="nonzero">
                <path d="M17.9886667,0 L9.51133333,0 C7.74216667,0 6.25533333,1.14271429 5.72275,2.71428571 L12.4886667,2.71428571 C15.7116667,2.71428571 18.3333333,5.30190476 18.3333333,8.48304762 L18.3333333,11.7619048 L18.6963333,11.7619048 C20.7340833,11.7619048 22,10.2138571 22,7.72033333 L22,3.9592381 C22,1.77604762 20.2005833,0 17.9886667,0" id="Path"></path>
                <path d="M11.9166667,10.8571429 C11.4106667,10.8571429 11,10.4518095 11,9.95238095 C11,9.45295238 11.4106667,9.04761905 11.9166667,9.04761905 C12.4226667,9.04761905 12.8333333,9.45295238 12.8333333,9.95238095 C12.8333333,10.4518095 12.4226667,10.8571429 11.9166667,10.8571429 M8.25,10.8571429 C7.744,10.8571429 7.33333333,10.4518095 7.33333333,9.95238095 C7.33333333,9.45295238 7.744,9.04761905 8.25,9.04761905 C8.756,9.04761905 9.16666667,9.45295238 9.16666667,9.95238095 C9.16666667,10.4518095 8.756,10.8571429 8.25,10.8571429 M4.58333333,10.8571429 C4.07733333,10.8571429 3.66666667,10.4518095 3.66666667,9.95238095 C3.66666667,9.45295238 4.07733333,9.04761905 4.58333333,9.04761905 C5.08933333,9.04761905 5.5,9.45295238 5.5,9.95238095 C5.5,10.4518095 5.08933333,10.8571429 4.58333333,10.8571429 M12.4886667,4.52380952 L4.01133333,4.52380952 C1.79941667,4.52380952 0,6.29985714 0,8.48304762 L0,12.2441429 C0,14.7376667 1.26591667,16.2857143 3.30366667,16.2857143 L3.66666667,16.2857143 L3.66666667,19 C3.66666667,19.4261429 3.96733333,19.7934762 4.389,19.8839524 C4.45408333,19.8984286 4.51916667,19.9047619 4.58333333,19.9047619 C4.93716667,19.9047619 5.26625,19.703 5.4175,19.3754762 C6.18933333,17.7025714 8.107,16.5924286 8.69,16.2857143 L11.9166667,16.2857143 C14.036,16.2857143 16.5,14.5205238 16.5,12.2441429 L16.5,8.48304762 C16.5,6.29985714 14.7005833,4.52380952 12.4886667,4.52380952" id="Shape"></path>
            </g>
            <path d="M625,153.8 C625,152.3 626.2,151 627.8,151 L644.3,151 C645.8,151 647.1,152.2 647.1,153.8 L647.1,170.3 C647.1,171.8 645.9,173.1 644.3,173.1 L627.8,173.1 C626.3,173.1 625,171.9 625,170.3 L625,153.8 Z M643.1,157.7 C642.6,157.2 641.7,157.2 641.2,157.7 L634.4,164.5 L631.5,161.6 C631,161.1 630.1,161.1 629.6,161.6 C629.1,162.1 629.1,163 629.6,163.5 L632.5,166.4 L633.5,167.4 C634,167.9 634.9,167.9 635.5,167.4 L636.5,166.4 L643.3,159.6 C643.6,159.1 643.6,158.2 643.1,157.7 Z M708.43526,173.965218 C706.257536,173.748869 704.297013,172.988997 702.578633,171.69527 C699.974553,169.734722 698.357149,166.824307 698.042015,163.531928 C697.968212,162.760844 698.000338,161.623435 698.118776,160.814468 C698.688621,156.922172 701.249584,153.561289 704.859311,151.968517 C705.767011,151.567998 706.838059,151.258453 707.808744,151.116095 C708.864207,150.961302 710.126683,150.961302 711.182147,151.116095 C715.071069,151.686435 718.42904,154.249619 720.020432,157.862477 C720.420604,158.770964 720.729881,159.842941 720.872115,160.814468 C721.026775,161.870846 721.026775,163.134418 720.872115,164.190796 C720.434004,167.183295 718.798625,169.919298 716.363344,171.734014 C714.65285,173.008635 712.692023,173.758107 710.52385,173.965996 C710.047422,174.011677 708.89859,174.011248 708.43526,173.965218 Z M711.040823,164.473451 L711.040823,161.878955 L709.445594,161.878955 L707.850366,161.878955 L707.850366,164.473451 L707.850366,167.067946 L709.445594,167.067946 L711.040823,167.067946 L711.040823,164.473451 Z M709.88179,161.240338 C710.423476,161.111889 710.883007,160.653408 711.029509,160.09524 C711.080469,159.901094 711.080469,159.516027 711.029509,159.321881 C710.954603,159.03649 710.825607,158.814916 710.606961,158.596081 C710.287768,158.276611 709.944464,158.133843 709.495445,158.133843 C709.046426,158.133843 708.703123,158.276611 708.38393,158.596081 C708.064736,158.915551 707.922093,159.259152 707.922093,159.70856 C707.922093,160.133726 708.06223,160.488607 708.349277,160.790355 C708.756591,161.218531 709.300397,161.378206 709.88179,161.240338 Z" id="Shape" fill="#FFFFFF" fill-rule="nonzero"></path>
            <path d="M63.499894,82 C58.8054973,82 55,85.8056306 55,90.499894 C55,95.194024 58.8054973,98.999988 63.499894,98.999988 C68.1939907,98.999988 71.999788,95.194024 71.999788,90.499894 C71.9998213,85.8056306 68.1939574,82 63.499894,82 Z M66.9861729,92 L60.0137097,92 C59.4538292,92 59,91.5523471 59,91.0000001 C59,90.4476143 59.4537901,90 60.0137097,90 L66.9862902,90 C67.5461708,90 68,90.4476529 68,91.0000001 C68.0000391,91.5523857 67.5460534,92 66.9861729,92 Z" id="Shape" fill="#C42033" fill-rule="nonzero"></path>
            <path d="M121.4999,82 C116.805635,82 113.000071,85.8056316 113.000071,90.499896 C113.000071,95.1940272 116.805569,98.9999921 121.4998,98.9999921 C126.194031,98.9999921 129.999929,95.1940272 129.999929,90.499896 C129.999929,85.8056316 126.194064,82 121.4999,82 Z M125.119217,91.2180333 L122.344404,91.2180333 L122.344404,94.1192476 C122.344235,94.6057478 121.949881,95.0001014 121.46328,95.0001014 C120.976509,95.0001014 120.582155,94.6057478 120.582155,94.1189771 L120.582155,91.2180333 L117.881195,91.2180333 C117.394526,91.2178642 117.000341,90.8235106 117.000071,90.336909 C117.000071,89.8504088 117.394593,89.4558861 117.881195,89.4557847 L120.582087,89.4559537 L120.582087,86.8811243 C120.582087,86.3944551 120.976611,86 121.46311,86 C121.949881,86 122.344404,86.3945227 122.344235,86.8811243 L122.344404,89.4557171 L125.118946,89.4559875 C125.605616,89.4557171 126.00024,89.8503411 126.000071,90.3371118 C126.00024,90.8237811 125.605616,91.2180333 125.119217,91.2180333 Z" id="Shape" fill="#079F40" fill-rule="nonzero"></path>
            <g id="Group" opacity="0.87" transform="translate(173.500000, 90.000000) rotate(90.000000) translate(-173.500000, -90.000000) translate(172.000000, 82.000000)" fill="#000000" fill-rule="nonzero">
                <ellipse id="Oval" cx="1.47" cy="2.1" rx="1.47" ry="2.1"></ellipse>
                <ellipse id="Oval" cx="1.47" cy="8" rx="1.47" ry="2.1"></ellipse>
                <ellipse id="Oval" cx="1.47" cy="13.9" rx="1.47" ry="2.1"></ellipse>
            </g>
            <path d="M222,80 L242,100 M242,80 L222,100" id="Shape" stroke="#000000" stroke-width="2" opacity="0.4" stroke-linecap="round"></path>
        </g>
    </g>
</svg>