<?xml version="1.0" encoding="UTF-8"?>
<svg width="20px" height="19px" viewBox="0 0 20 19" version="1.1" xmlns="http://www.w3.org/2000/svg" xmlns:xlink="http://www.w3.org/1999/xlink">
    <!-- Generator: Sketch 54.1 (76490) - https://sketchapp.com -->
    <title>9395d27a9e 3</title>
    <desc>Created with Sketch.</desc>
    <g id="Page-1" stroke="none" stroke-width="1" fill="none" fill-rule="evenodd">
        <g id="Outline-Icons" transform="translate(-935.000000, -1717.000000)" fill="#000000" fill-rule="nonzero" stroke="#000000" stroke-width="0.5">
            <g id="9395d27a9e-3" transform="translate(936.000000, 1718.000000)">
                <g id="9395d27a9e-2">
                    <g id="9395d27a9e">
                        <path d="M17.8789349,16.7581891 L15.2904617,14.2732548 C15.8081564,13.6768706 16.1187732,12.914824 16.1187732,12.0533802 C16.1187732,10.1316976 14.4966633,8.57447217 12.4949107,8.57447217 C10.4931581,8.57447217 8.8710482,10.1316976 8.8710482,12.0533802 C8.8710482,13.9750627 10.4931581,15.5322881 12.4949107,15.5322881 C13.3577351,15.5322881 14.1515335,15.234096 14.8072801,14.7371092 L17.3957533,17.2220434 C17.4647792,17.2883084 17.5683182,17.3214408 17.6373441,17.3214408 C17.7063701,17.3214408 17.809909,17.2883084 17.8789349,17.2220434 C18.0169868,17.0895136 18.0169868,16.8907189 17.8789349,16.7581891 L17.8789349,16.7581891 Z M12.4949107,14.869639 C10.8728008,14.869639 9.56130772,13.6106056 9.56130772,12.0533802 C9.56130772,10.4961547 10.8728008,9.23712131 12.4949107,9.23712131 C14.1170206,9.23712131 15.4285136,10.4961547 15.4285136,12.0533802 C15.4285136,13.6106056 14.1170206,14.869639 12.4949107,14.869639 L12.4949107,14.869639 Z M9.69935962,16.1949373 L1.76137513,16.1949373 C1.17465454,16.1949373 0.691472876,15.7310829 0.691472876,15.1678311 L0.691472876,1.74918602 C0.691472876,1.18593425 1.17465454,0.722079857 1.76137513,0.722079857 L12.9435794,0.722079857 C13.5303,0.722079857 14.0134816,1.18593425 14.0134816,1.74918602 L14.0134816,7.11664406 C14.0134816,7.31543881 14.1515335,7.44796863 14.3586114,7.44796863 C14.5656893,7.44796863 14.7037412,7.31543881 14.7037412,7.11664406 L14.7037412,1.74918602 C14.7037412,0.82147723 13.9099427,0.0594307147 12.9435794,0.0594307147 L1.76137513,0.0594307147 C0.795011806,0.0594307147 0.00121335288,0.82147723 0.00121335288,1.74918602 L0.00121335288,15.1678311 C0.00121335288,16.0955399 0.795011806,16.8575864 1.76137513,16.8575864 L9.69935962,16.8575864 C9.90643748,16.8575864 10.0444894,16.7250566 10.0444894,16.5262619 C10.0444894,16.3274671 9.90643748,16.1949373 9.69935962,16.1949373 Z M11.9081901,3.40580888 C11.9081901,3.20701413 11.7701382,3.0744843 11.5630603,3.0744843 L2.69322548,3.0744843 C2.48614762,3.0744843 2.34809572,3.20701413 2.34809572,3.40580888 C2.34809572,3.60460362 2.48614762,3.73713345 2.69322548,3.73713345 L11.5630603,3.73713345 C11.7701382,3.73713345 11.9081901,3.57147117 11.9081901,3.40580888 Z M2.72773846,6.05640543 C2.52066059,6.05640543 2.38260869,6.18893525 2.38260869,6.38773 C2.38260869,6.58652474 2.52066059,6.71905457 2.72773846,6.71905457 L5.52328952,6.71905457 C5.73036738,6.71905457 5.86841928,6.58652474 5.86841928,6.38773 C5.86841928,6.18893525 5.73036738,6.05640543 5.52328952,6.05640543 L2.72773846,6.05640543 Z" id="Shape"></path>
                    </g>
                </g>
            </g>
        </g>
    </g>
</svg>