<?xml version="1.0" encoding="UTF-8"?>
<svg width="18px" height="18px" viewBox="0 0 18 18" version="1.1" xmlns="http://www.w3.org/2000/svg" xmlns:xlink="http://www.w3.org/1999/xlink">
    <!-- Generator: Sketch 54.1 (76490) - https://sketchapp.com -->
    <title>Group 11</title>
    <desc>Created with Sketch.</desc>
    <g id="Page-1" stroke="none" stroke-width="1" fill="none" fill-rule="evenodd">
        <g id="index---my-meetings(Week)" transform="translate(-624.000000, -568.000000)" fill="#000000">
            <g id="Group-11" transform="translate(624.000000, 568.000000)">
                <g id="Group-12" transform="translate(0.000000, 0.000000)">
                    <g id="Group" transform="translate(7.650000, 3.650000)">
                        <path d="M1,5 L4.5,5 C4.77614237,5 5,5.22385763 5,5.5 C5,5.77614237 4.77614237,6 4.5,6 L0.5,6 C0.223857625,6 3.38176876e-17,5.77614237 0,5.5 L0,0.5 C-3.38176876e-17,0.223857625 0.223857625,5.07265313e-17 0.5,0 C0.776142375,-5.07265313e-17 1,0.223857625 1,0.5 L1,5 Z" id="Combined-Shape"></path>
                    </g>
                    <path d="M8.65,17.3 C13.4272631,17.3 17.3,13.4272631 17.3,8.65 C17.3,3.87273691 13.4272631,0 8.65,0 C3.87273691,0 -2.16004992e-12,3.87273691 -2.16004992e-12,8.65 C-2.16004992e-12,13.4272631 3.87273691,17.3 8.65,17.3 Z M8.65,16 C4.59070709,16 1.3,12.7092929 1.3,8.65 C1.3,4.59070709 4.59070709,1.3 8.65,1.3 C12.7092929,1.3 16,4.59070709 16,8.65 C16,12.7092929 12.7092929,16 8.65,16 Z" id="Oval" fill-rule="nonzero"></path>
                </g>
            </g>
        </g>
    </g>
</svg>