<?xml version="1.0" encoding="UTF-8"?>
<svg width="16px" height="18px" viewBox="0 0 16 18" version="1.1" xmlns="http://www.w3.org/2000/svg" xmlns:xlink="http://www.w3.org/1999/xlink">
    <!-- Generator: Sketch 52.4 (67378) - http://www.bohemiancoding.com/sketch -->
    <title>Untitled</title>
    <desc>Created with Sketch.</desc>
    <g id="Page-1" stroke="none" stroke-width="1" fill="none" fill-rule="evenodd">
        <path d="M3.42884614,17.6928461 L12.412423,17.6928461 C14.3097179,17.6928461 15.8412692,16.1612948 15.8412692,14.2639999 L15.8412692,5.14326921 C15.8412692,3.24597435 14.3097179,1.71442307 12.412423,1.71442307 L12.0466794,1.71442307 L12.0466794,0.685769228 C12.0466794,0.297166665 11.7495128,0 11.3609102,0 C10.9723076,0 10.675141,0.297166665 10.675141,0.685769228 L10.675141,1.71442307 L5.16612818,1.71442307 L5.16612818,0.685769228 C5.16612818,0.297166665 4.86896152,0 4.48035896,0 C4.09175639,0 3.79458973,0.297166665 3.79458973,0.685769228 L3.79458973,1.71442307 L3.42884614,1.71442307 C1.53155128,1.71442307 0,3.24597435 0,5.14326921 L0,14.241141 C8.12113905e-16,16.1612948 1.55441025,17.6928461 3.42884614,17.6928461 Z M12.435282,16.3213076 L3.42884614,16.3213076 C2.28589743,16.3213076 1.37153846,15.4069487 1.37153846,14.2639999 L1.37153846,8.13779484 L14.4697307,8.13779484 L14.4697307,14.241141 C14.4925897,15.4069487 13.5553717,16.3213076 12.435282,16.3213076 Z M3.42884614,3.08596153 L3.79458973,3.08596153 L3.79458973,4.57179485 C3.79458973,4.96039741 4.09175639,5.25756408 4.48035896,5.25756408 C4.86896152,5.25756408 5.16612818,4.96039741 5.16612818,4.57179485 L5.16612818,3.08596153 L10.698,3.08596153 L10.698,4.57179485 C10.698,4.96039741 10.9951666,5.25756408 11.3837692,5.25756408 C11.7723717,5.25756408 12.0695384,4.96039741 12.0695384,4.57179485 L12.0695384,3.08596153 L12.435282,3.08596153 C13.5782307,3.08596153 14.4925897,4.0003205 14.4925897,5.14326921 L14.4925897,6.76625638 L1.37153846,6.76625638 L1.37153846,5.14326921 C1.37153846,4.02317947 2.3087564,3.08596153 3.42884614,3.08596153 Z" id="Shape" fill="#000000" fill-rule="nonzero"></path>
    </g>
</svg>