<?xml version="1.0" encoding="UTF-8"?>
<svg width="17px" height="20px" viewBox="0 0 17 20" version="1.1" xmlns="http://www.w3.org/2000/svg" xmlns:xlink="http://www.w3.org/1999/xlink">
    <!-- Generator: Sketch 53.2 (72643) - https://sketchapp.com -->
    <title>Combined Shape 2</title>
    <desc>Created with Sketch.</desc>
    <g id="Page-1" stroke="none" stroke-width="1" fill="none" fill-rule="evenodd">
        <g id="Discussion-Detail" transform="translate(-250.000000, -764.000000)" fill="#FFFFFF">
            <g id="Group-20" transform="translate(242.000000, 758.000000)">
                <g id="Combined-Shape-2" transform="translate(8.000000, 6.000000)">
                    <path d="M4.53364544,11.7585102 C4.33480953,11.7086651 4.13775585,11.6652312 3.94248439,11.6300841 L3.94248439,12.7045657 L4.53364544,11.7585102 Z M2.82931184,14.4860141 L2.82931184,2.93443196 C2.82931184,2.89302409 2.85157529,2.87232016 2.85157529,2.83091229 C2.85157529,2.81020836 2.85157529,2.76880049 2.87383875,2.74809655 C2.8961022,2.74809655 2.8961022,2.72739262 2.8961022,2.72739262 C2.91836565,2.70668869 2.91836565,2.68598475 2.9406291,2.66528082 L2.96289255,2.64457689 C2.985156,2.64457689 2.985156,2.62387295 3.00741945,2.60316902 L3.0296829,2.58246508 C3.0296829,2.56176115 3.05194635,2.56176115 3.0742098,2.54105722 C3.09647325,2.54105722 3.09647325,2.52035328 3.1187367,2.52035328 C3.1187367,2.52035328 3.14100016,2.49964935 3.16326361,2.49964935 C3.16326361,2.47894542 3.18552706,2.47894542 3.20779051,2.47894542 C3.23005396,2.45824148 3.25231741,2.45824148 3.27458086,2.45824148 L3.43042502,2.45824148 C4.45454376,2.52035328 5.47866249,2.85161622 6.45825433,3.18287916 C7.45926876,3.50584276 8.46028319,3.84623872 9.44409685,3.90014529 L11.7342667,0.23510734 C11.8805999,0.000925324493 12.1890684,-0.0702902403 12.4232504,0.0760429238 C12.6574324,0.222376088 12.728648,0.530844589 12.5823148,0.765026604 L0.92409102,19.4220847 C0.777757856,19.6562667 0.469289355,19.7274823 0.23510734,19.5811491 C0.000925324493,19.434816 -0.0702902403,19.1263475 0.0760429238,18.8921655 L2.82931184,14.4860141 Z M6.42231639,12.3405558 L11.934084,3.51075902 C12.2783041,3.40770206 12.6208721,3.29425405 12.9589593,3.18287916 C13.9387738,2.87232016 14.9626699,2.54105722 15.9870113,2.45824148 C16.1428554,2.45824148 16.298477,2.49964935 16.36549,2.60316902 C16.4768072,2.68598475 16.5435976,2.83091229 16.5435976,2.97583983 L16.5435976,11.050374 C16.5435976,11.3195251 16.3209631,11.5472684 16.0315382,11.5679723 C15.1632636,11.6093802 14.2504621,11.9199392 13.2929111,12.2304982 C12.1354343,12.603169 10.9332079,12.9965438 9.6864547,12.9965438 C8.5622018,12.9965438 7.47415564,12.6766738 6.42231623,12.3405559 Z M3.94248439,16.313222 L3.94248439,19.0835003 C3.94248439,19.3733554 3.69758643,19.6010986 3.38589812,19.6010986 C3.0742098,19.6010986 2.82931184,19.3733554 2.82931184,19.0835003 L2.82931184,18.0965134 L3.94248439,16.313222 Z" id="Combined-Shape"></path>
                </g>
            </g>
        </g>
    </g>
</svg>