<?xml version="1.0" encoding="UTF-8"?>
<svg width="48px" height="59px" viewBox="0 0 48 59" version="1.1" xmlns="http://www.w3.org/2000/svg" xmlns:xlink="http://www.w3.org/1999/xlink">
    <!-- Generator: Sketch 57.1 (83088) - https://sketch.com -->
    <title>Group</title>
    <desc>Created with Sketch.</desc>
    <g id="Page-1" stroke="none" stroke-width="1" fill="none" fill-rule="evenodd">
        <g id="Artboard" transform="translate(-649.000000, -1100.000000)" fill="#000000" fill-rule="nonzero">
            <g id="Group" transform="translate(649.000000, 1100.000000)">
                <path d="M0.387096774,24.3870968 L0.387096774,53.4193548 C0.387096774,56.283871 2.70967742,58.6064516 5.6516129,58.6064516 L42.3483871,58.6064516 C45.2129032,58.6064516 47.6129032,56.283871 47.6129032,53.4193548 L47.6129032,24.3870968 C47.6129032,21.5225806 45.2903226,19.2 42.3483871,19.2 L31.7419355,19.2 L31.7419355,23.0709677 L42.3483871,23.0709677 C43.1225806,23.0709677 43.7419355,23.6903226 43.7419355,24.3870968 L43.7419355,53.4193548 C43.7419355,54.1935484 43.1225806,54.7354839 42.3483871,54.7354839 L5.6516129,54.7354839 C4.87741935,54.7354839 4.25806452,54.116129 4.25806452,53.4193548 L4.25806452,24.3870968 C4.25806452,23.6129032 4.87741935,23.0709677 5.6516129,23.0709677 L14.7096774,23.0709677 L14.7096774,19.2 L5.6516129,19.2 C2.70967742,19.2 0.387096774,21.5225806 0.387096774,24.3870968 Z" id="Path"></path>
                <path d="M25.5483871,36.2322581 L25.5483871,6.3483871 L30.5032258,10.6064516 L33.0580645,7.66451613 L24.9290323,0.696774194 C24.2322581,0.0774193548 23.1483871,0.0774193548 22.3741935,0.696774194 L14.2451613,7.66451613 L16.8,10.6064516 L21.7548387,6.3483871 L21.7548387,36.2322581 L25.5483871,36.2322581 Z" id="Path"></path>
            </g>
        </g>
    </g>
</svg>