<?xml version="1.0" encoding="UTF-8"?>
<svg width="47px" height="40px" viewBox="0 0 47 40" version="1.1" xmlns="http://www.w3.org/2000/svg" xmlns:xlink="http://www.w3.org/1999/xlink">
    <!-- Generator: Sketch 54.1 (76490) - https://sketchapp.com -->
    <title>Group 9</title>
    <desc>Created with Sketch.</desc>
    <g id="Page-1" stroke="none" stroke-width="1" fill="none" fill-rule="evenodd">
        <g id="Artboard" transform="translate(-485.000000, -642.000000)">
            <g id="Group-9" transform="translate(485.000000, 642.000000)">
                <rect id="Rectangle-6" fill="#C99E3C" x="0" y="0" width="47" height="40" rx="2"></rect>
                <path d="M21.5625,32.1875 L21.5625,33 L19.9375,33 C15.001455,33 11,28.998545 11,24.0625 L11,15.9375 C11,11.001455 15.001455,7 19.9375,7 L28.0625,7 C32.998545,7 37,11.001455 37,15.9375 L37,24.0625 C37,28.998545 32.998545,33 28.0625,33 L26.4375,33 L26.4375,32.1875 L28.0625,32.1875 C32.5498136,32.1875 36.1875,28.5498136 36.1875,24.0625 L36.1875,15.9375 C36.1875,11.4501864 32.5498136,7.8125 28.0625,7.8125 L19.9375,7.8125 C15.4501864,7.8125 11.8125,11.4501864 11.8125,15.9375 L11.8125,24.0625 C11.8125,28.5498136 15.4501864,32.1875 19.9375,32.1875 L21.5625,32.1875 Z M23.6999405,18.5386461 C23.8546319,18.5468566 23.9762247,18.6020724 24.0527366,18.6749408 L28.9277366,23.2933618 C29.1410742,23.5058862 29.1325045,23.8237875 28.9477754,24.0190184 C28.7630539,24.2142237 28.4173574,24.2237684 28.2221393,24.0390316 L24.2130984,20.2464612 L24.2130984,32.3938836 C24.2130984,32.677275 23.9833576,32.9070414 23.6999405,32.9070414 C23.4165234,32.9070414 23.1867826,32.677275 23.1867826,32.3938836 L23.1867826,20.2464612 L19.1777366,24.0390316 C18.9825056,24.2237428 18.6434366,24.2077066 18.4521056,24.0190184 C18.2541806,23.8237875 18.2769135,23.4780987 18.4721188,23.2933618 L23.3471188,18.6749408 C23.4716879,18.5531428 23.577578,18.5466 23.6999148,18.5386461 L23.6999405,18.5386461 Z" id="Combined-Shape" stroke="#FFFFFF" fill="#FFFFFF" fill-rule="nonzero"></path>
            </g>
        </g>
    </g>
</svg>