<?xml version="1.0" encoding="utf-8"?>
<!-- Generator: Adobe Illustrator 15.0.0, SVG Export Plug-In . SVG Version: 6.00 Build 0)  -->
<!DOCTYPE svg PUBLIC "-//W3C//DTD SVG 1.1//EN" "http://www.w3.org/Graphics/SVG/1.1/DTD/svg11.dtd">
<svg version="1.1" id="Layer_1" xmlns="http://www.w3.org/2000/svg" xmlns:xlink="http://www.w3.org/1999/xlink" x="0px" y="0px"
	 width="1920px" height="871.783px" viewBox="0 0 1920 871.783" enable-background="new 0 0 1920 871.783" xml:space="preserve">
<g>
	<g>
		<path fill="#1D1D1B" d="M1433.254,332.107c-1.038-1.037-1.038-2.075-2.075-3.113l0,0c-1.038-1.038-4.15-2.075-9.341-4.151h-1.038
			c-2.074-1.038-5.188-2.075-7.265-2.075c-10.378-3.113-15.567-3.113-15.567-3.113c-9.341,1.038-20.757,2.076-31.136,3.113
			c-6.227,1.037-20.756,5.188-32.173,13.491l0,0l0,0c0,0-1.038,1.038-3.113,2.076l-1.038,1.038l0,0l0,0
			c-4.15,3.113-9.34,8.303-12.453,12.454c0,0-1.037,1.037-1.037,4.151v1.036l0,0v1.038c0,1.038,0,2.076,0,4.151v1.038
			c0,7.265,1.037,17.643,2.074,19.719c1.038,3.113,1.038,6.227,3.113,6.227c1.038,0,2.076-1.036,2.076-1.036
			c1.037-1.038,1.037-3.113,1.037-4.151c0-3.114,1.038-6.229,1.038-10.379c1.038-5.188,3.114-7.266,3.114-7.266
			c5.188-6.227,11.416-11.416,12.452-12.453h1.038c2.076,0,5.189,0,7.266-1.038c2.076,0,4.15,0,2.076,2.076
			c-4.151,4.15-7.266,7.265-10.38,12.454c-1.036,1.037-2.074,3.112-2.074,5.188c-1.038,4.151-2.075,9.34-2.075,13.491l0,0
			c0,1.038,0,1.038,0,3.113l0,0c0,0,0,0,0,1.037l0,0c0,1.038,1.037,1.038,2.075,1.038c0,0,1.038,0,2.074-1.038
			c1.038,0,1.038-1.037,2.076-1.037c1.038-1.037,1.038,0,1.038,0c0,4.15,4.151,2.075,7.266-2.075
			c2.074-2.076,4.15-3.113,6.227-4.151c4.151-2.076,7.266-4.15,11.417-7.265c1.038,0,2.075,0,2.075-1.038h1.038
			c1.038,0,5.188,2.076,6.228,7.265c0,2.076,1.037,3.113,2.075,4.151c0,0,0,1.038,2.075,1.038c2.076,1.038,5.188,2.075,12.453,1.038
			c7.266-1.038,11.418-1.038,14.53-3.114c1.037-1.037,2.075-2.075,3.113-3.113l0,0c0,0,0,0,0-1.038l0,0
			c1.038-2.074,1.038-2.074,3.113,0c2.076,3.114,6.228,2.076,6.228,2.076h1.038c1.037-1.038,3.113-2.076,3.113-3.113l0,0
			c0,0,1.038-2.076,1.038-3.112c0-1.038-1.038-3.114-3.114-3.114c-2.075,0-1.037-3.113,0-3.113c1.038,0,3.114-3.113,6.228-11.416
			l0,0c0-1.038,1.038-2.076,1.038-2.076c2.075-5.188,5.189-14.529,3.113-17.643C1435.33,336.259,1434.292,334.184,1433.254,332.107
			 M1392.778,359.092c-3.113,1.038-9.341,2.075-9.341,2.075c-2.075,0-5.188,1.038-9.341,3.114c-2.075,1.037-3.112,1.037-5.188,2.074
			c-8.303,3.113-13.492,9.342-16.605,13.492l0,0c0,0-2.076,2.075-4.15,0c-1.038-1.038,0-4.15,0-6.228
			c3.113-6.228,6.228-9.34,6.228-9.34c4.15-4.151,9.34-6.229,12.453-7.267c4.152-1.037,7.267-2.074,9.341-2.074
			c2.076,0,4.151,0,5.189,0l0,0c0,0,9.341,1.037,11.416,3.112C1393.816,358.054,1393.816,358.054,1392.778,359.092
			 M1425.989,327.956C1424.951,327.956,1424.951,327.956,1425.989,327.956L1425.989,327.956z"/>
		<path fill="#1D1D1B" d="M1560.908,380.886c-2.076,0-4.151-1.037-5.189-2.075l0,0c-1.037,0-1.037-1.037-1.037-1.037
			c-1.039,0-1.039-1.037-2.076-1.037c-1.037-1.038-3.112-2.076-3.112-3.114c-1.038-3.113-2.076,2.076-7.267,2.076
			c-1.037,0-3.112,0-4.149,1.038h-1.038c-2.076,1.037-3.114,2.074-3.114,3.113c1.038,2.074,1.038,3.112,4.151,3.112
			c1.038,0,1.038,0,2.076,0c3.113,0,8.303-1.038,11.416-1.038c0,0,0,0,1.037,0l0,0c1.039,0,8.304,2.076,9.341,1.038
			C1561.946,381.924,1560.908,380.886,1560.908,380.886"/>
		<path fill="#1D1D1B" d="M1484.107,0c-240.777,0-435.893,195.113-435.893,435.892c0,240.779,196.151,435.893,435.894,435.893
			c239.739,0,435.892-195.113,435.892-435.893C1920,195.113,1723.85,0,1484.107,0 M1893.016,511.653l-1.037-1.037v-6.229v-7.265
			c0-2.075-1.037-3.113-3.112-3.113h-1.039c-2.075,0-3.113,1.038-3.113,3.113v8.303v4.151l0,0l0,0
			c-1.037,1.038-2.075,3.112-2.075,4.15v42.553v18.681c-2.074,6.227-5.188,13.492-7.265,19.719V480.518c0-1.037,0-1.037,0-2.074
			c0-1.038-1.038-2.076-2.076-3.114V269.838c5.188,11.416,9.341,22.832,12.454,34.248v104.822v6.227
			c0,2.076,1.038,3.113,3.114,3.113h1.036c2.076,0,3.113-1.037,3.113-3.113v-7.265v-80.951c9.342,35.286,14.53,71.61,14.53,108.974
			c0,34.248-4.151,67.459-12.454,99.633v-20.757C1894.054,513.729,1894.054,512.691,1893.016,511.653 M1743.566,769.037
			c3.115-21.794,5.189-42.551,7.266-63.309c2.076-24.907,3.114-50.854,3.114-79.912c0-28.022-1.038-56.044-3.114-84.065
			c-2.075-29.06-5.188-58.119-10.378-86.141c14.528,36.323,31.135,72.647,50.854,106.896c16.604,31.135,35.285,62.271,55.004,91.33
			C1818.292,698.465,1784.043,737.902,1743.566,769.037 M1582.703,846.875l70.572-272.951c3.113,4.151,14.529,37.362,18.682,46.703
			c0,0,0,1.038,1.037,1.038c2.076,4.151,4.152,8.302,5.189,11.416c1.037,2.075,2.075,3.113,3.112,5.188
			c9.341,17.644,16.604,36.324,22.833,55.006c5.189,15.566,9.341,32.173,12.454,48.777c2.075,10.378,3.113,19.719,4.151,28.021
			c0,2.076,0,5.188,1.037,7.265c0,2.076,0,5.189,1.037,7.265C1679.223,813.665,1632.52,834.421,1582.703,846.875 M1330.508,829.232
			c0-1.038,0-3.114,0-3.114c0-3.113,0-6.228,0-10.378c0-6.228,0-12.454,0-19.719c0-23.87,1.038-47.74,0-71.611v-1.037
			c0-7.266,0-13.492-1.037-20.757c0-8.303-1.037-15.567-1.037-23.87c0-7.266-1.038-13.492-2.076-20.757
			c-1.038-6.229-1.038-12.454-2.075-18.683c0-5.188-1.038-10.378-1.038-15.566c0,0,0,0,0-1.038c0-4.151,1.038-7.265,4.151-7.265
			c2.075,0,3.112,1.037,4.15,1.037l0,0c6.229,8.304,9.341,18.682,12.454,28.021c3.113,8.303,6.228,17.645,9.341,26.983
			c1.038,2.075,1.038,3.113,2.075,5.188c15.567,55.006,26.984,112.087,32.173,169.168
			C1369.946,842.724,1350.227,836.497,1330.508,829.232 M1139.546,680.821V458.723c0-2.074-1.038-3.112-2.075-4.15l0,0v-5.188v-4.15
			l0,0c0-2.076-1.037-3.114-3.113-3.114h-1.037l0,0c-2.076,0-3.114,1.038-3.114,3.114v9.34c-2.075,1.038-3.113,3.114-3.113,5.188
			v203.416c-3.112-4.15-5.188-9.34-8.303-13.49l0,0v-25.946v-8.304V363.244c0-2.076-1.038-3.113-2.075-4.151l-1.038-1.038V227.287
			c6.228-10.378,11.416-19.719,18.682-29.061c9.341,13.492,18.682,25.946,28.021,39.438c2.075,3.113,3.113,5.188,5.188,8.303
			l2.076,3.113c0,0,0,0,0,1.037c0,0,0,0,0,1.038l10.378,15.566c2.076,3.114,3.112,6.229,5.188,8.304
			c3.113,5.188,6.228,10.379,9.341,15.567c3.113,6.228,7.266,12.454,10.378,18.682c1.038,2.074,3.113,5.188,4.151,7.265v1.038
			c0,0,0,1.038,1.038,1.038c1.037,2.075,1.037,3.112,1.037,6.227c0,1.038,0,1.038,0,2.076c0,1.037-1.037,2.075-1.037,4.151
			c-1.038,5.188-2.076,10.378-3.113,16.604c-2.076,11.416-5.188,23.87-7.266,36.324c-2.075,11.416-4.151,22.832-6.228,33.211
			c-2.075,10.378-3.112,19.719-5.188,26.983c-2.075,10.378-3.113,20.757-5.189,33.211c-1.037,5.188-2.074,11.416-2.074,16.604
			l-1.038,5.189c-17.644,140.106-18.682,182.659-18.682,183.696c0,2.075,0,5.188,0,8.304v-57.081l0,0
			c0-2.076-1.038-3.114-2.075-4.151l0,0v-95.48v-4.151v-4.151v-2.075v-7.266c0-2.075-1.038-3.113-3.113-3.113h-1.038
			c-2.075,0-3.113,1.038-3.113,3.113v84.065v6.227v7.266v17.644c-2.076,1.038-3.113,3.113-3.113,5.189v59.155
			C1144.735,688.086,1142.659,683.936,1139.546,680.821 M1099.07,610.248V445.232v-15.567c0-1.038-1.038-3.114-2.076-4.151l0,0
			v-2.076v-12.453c0-2.075-1.037-3.113-3.113-3.113h-1.037c-2.076,0-3.114,1.038-3.114,3.113v14.529
			c-2.074,1.037-3.112,3.113-3.112,5.188v147.373c-16.605-44.627-24.908-93.405-24.908-143.222
			c0-70.572,17.644-136.994,47.74-195.113v117.274c-1.037,1.038-2.075,3.114-2.075,5.189v65.384v197.189
			C1104.26,620.627,1101.146,615.438,1099.07,610.248 M1484.107,13.492c62.271,0,121.428,13.49,175.396,38.398
			c0,6.229,0,11.416,0,17.645c0,11.416,1.038,23.87,1.038,35.286c1.037,18.681,3.113,36.323,4.15,55.005v3.114
			c1.037,12.454,3.113,28.021,5.188,43.589c0,0,0,3.113-2.075-2.075c-1.037-3.114-3.113-6.228-4.15-9.341c0,0,0-1.038-1.038-1.038
			c-1.038-2.075-2.075-4.151-3.113-6.228c0-1.037-1.038-2.075-1.038-3.113l-3.113-7.265l1.037-3.113
			c0-1.038,1.038-3.113,1.038-4.151c1.038-4.151,1.038-7.265,1.038-11.416c0-2.076,0-4.151,0-7.266c0-2.075-1.038-4.15-1.038-6.228
			c-4.151-17.643-14.528-31.135-30.097-39.438c-2.076-1.038-5.189-2.076-8.303-3.113c-3.113-1.038-6.229-2.076-9.342-2.076
			c-2.074-1.037-4.15-3.113-5.188-5.188c-12.454-19.72-44.627-20.757-60.194-22.832c-6.227-1.038-12.453-1.038-19.719-2.076
			c-4.15,0-10.379-1.037-14.529-1.037c-2.076,0-4.151,1.037-6.228,0c-5.188-1.038-9.341-2.076-14.53-3.113
			c-3.113-1.038-7.265-1.038-10.378-2.076c-8.303-1.038-15.567-1.038-23.87-1.038c-48.777,0-94.443,18.682-130.768,50.854
			c-8.303,7.265-15.567,15.566-22.832,23.87c-7.267,8.303-20.757,14.529-30.099,21.794c-10.379,8.303-19.719,16.604-29.06,25.946
			c-13.492,14.529-44.627,46.702-31.135,68.497v1.037c0,0,0,1.038,0,2.076c-1.038,1.037-1.038,2.075-1.038,3.113
			c-3.113,8.303-4.151,15.566-3.113,23.87c0,1.038,0,1.038,0,2.075l-13.492-21.795l-20.757-36.323l0,0
			c-3.113-4.151-5.188-8.304-8.303-12.454c-6.229-9.341-13.492-19.719-21.795-30.099C1220.497,81.988,1344,13.492,1484.107,13.492
			 M1687.523,290.595c3.113,14.529,7.266,29.06,11.416,43.589c-3.112,7.266-7.265,14.529-11.416,23.87
			c-7.265,16.605-14.529,32.173-19.719,46.703c-3.113,7.265-5.188,13.491-7.265,20.757c-1.038,3.113-2.076,6.228-4.151,10.378
			c-1.037,1.038-1.037,3.113-2.076,4.151c0,0,0,1.038-1.037,1.038c0,0,0,0-1.037,0l0,0c0-1.038,0-1.038,0-2.076
			c0-1.037,0-3.113,0-4.151v-2.074c0-7.266,1.037-14.53,2.074-24.908c1.039-10.379,3.114-21.795,5.189-33.211
			c4.15-19.719,8.303-39.438,15.566-58.119c4.151-10.378,7.266-20.757,12.455-31.135
			C1686.486,287.48,1686.486,288.52,1687.523,290.595 M1711.395,378.811c6.228,25.946,11.416,52.931,15.567,79.913
			c8.304,55.007,12.454,111.05,12.454,168.13c0,43.591-2.075,79.914-6.227,119.353c0,3.113-1.039,7.265-1.039,10.379l-1.037-9.341
			l-8.303-37.362l0,0c-4.151-17.644-10.379-34.249-17.645-49.815c-4.15-10.379-9.34-19.72-12.454-26.983
			c-2.075-5.188-5.188-10.379-8.303-17.644c-8.304-18.682-14.529-38.399-19.72-58.119c-3.112-10.379-5.188-21.794-7.265-32.174
			c-1.038-8.303-3.112-17.643-4.151-28.021c0-1.038,0-1.038,0-2.075c0,0,0-1.038,0-2.076c0-2.074,0-3.112,1.039-5.188
			c1.037-2.075,1.037-5.188,2.074-7.265c1.038-4.151,2.076-8.304,4.151-12.454c6.228-18.682,12.454-37.362,20.757-56.043
			c7.266-18.683,15.568-37.362,23.871-53.969c0,0,0,0,0-1.038C1707.243,362.205,1709.318,370.508,1711.395,378.811
			 M1664.691,298.896c-4.15,10.379-7.266,21.795-10.379,32.174c0,1.037,0,2.074-1.037,2.074c0,1.038,0,1.038-1.038,1.038
			c0,0,0,0-1.038,0c0,0,0,0-1.037-1.038c0-1.037-1.038-1.037-1.038-2.074c0-2.076-1.038-4.151-1.038-6.229v-2.075
			c-2.074-13.491-5.188-28.021-9.34-41.514c-6.229-23.87-15.568-46.703-26.984-68.497c-5.188-11.417-11.416-21.795-18.682-32.173
			c-6.227-10.379-13.49-20.758-21.794-30.098c-2.076-2.076-4.151-5.189-7.265-6.228c-1.038,0-2.076-1.039-2.076-1.039
			c-4.151-1.037-9.34,0-13.492,0c-5.188,1.039-10.378,2.076-15.566,3.114c-12.455,3.113-24.907,6.228-37.362,9.341
			c-4.15,1.037-7.265,2.075-11.416,3.113c-3.113,1.037-7.266,2.076-11.416,4.15c-14.53,5.188-29.061,11.416-42.552,18.682
			c-22.832,11.416-44.627,24.908-64.347,40.476c-11.416,9.341-22.833,18.683-33.211,29.061l0,0
			c-7.265,7.265-14.528,14.53-20.757,21.795c-1.038,1.038-2.075,2.075-2.075,3.113s0,2.075,2.075,3.112
			c1.038,1.038,1.038,1.038,2.076,2.076c1.037,1.038,1.037,2.075,1.037,3.113l0,0c0,1.038-1.037,2.076-1.037,2.076
			c-5.189,9.34-9.341,19.719-13.492,31.135l0,0c0,1.038,0,1.038-1.038,2.075c0,0,0,1.038-1.038,1.038c0,0,0,0-1.036,0l0,0
			c-1.038-1.038-1.038-2.075-1.038-3.113c0-2.076-1.038-4.151-1.038-6.229c0-2.074-1.037-4.15-1.037-6.227l0,0
			c-2.076-10.378-4.152-20.757-6.228-31.135c-2.075-12.454-5.189-24.908-8.304-36.324c5.189-5.189,9.341-9.341,14.53-14.53
			c12.453-11.416,24.907-20.757,38.399-30.098c58.118-39.438,127.653-61.232,201.341-61.232c3.113,0,6.227-3.112,6.227-6.227l0,0
			c25.946,5.188,50.854,15.566,73.688,31.135c8.303,5.188,16.604,11.416,23.869,17.644c1.039,0,1.039,1.038,2.076,1.038
			c12.455,29.061,23.871,58.119,34.248,87.179C1674.032,277.104,1669.881,287.48,1664.691,298.896 M1638.746,486.746
			c0,3.113,0,5.188,1.037,7.265v1.038l0,0c0,0,1.039,10.378,0,18.682c-1.037,4.15-2.075,7.265-2.075,10.378
			c0,1.038,0,1.038-1.038,2.075c0,1.038,0,1.038,0,1.038c-2.074,7.266-7.265,20.757-9.34,24.908
			c-1.038,2.075-3.113,3.113-4.15,3.113c-1.039,0-2.076,0-3.115,0c-1.036,0-2.074-1.038-2.074-3.113c0-1.038,0-2.076,0-3.114
			c0-1.037,0-2.074,0-3.112l0,0l0,0c-1.038-8.304-7.266-21.796-13.492-25.946c-5.188-4.151-33.21-30.098-33.21-30.098l0,0
			c-5.188-5.188-12.455-9.341-17.644-13.491l0,0l0,0c0,0,0,0-1.038-1.038l0,0l0,0c0,0,0,0,0-1.037l0,0
			c-1.038-1.038-1.038-2.076-1.038-3.114l0,0v-1.037c-1.038-15.566-10.378-21.795-12.454-23.87
			c-2.075-2.075-5.188-5.188-6.228-6.228c-10.379-14.529-11.416-30.098-11.416-34.249c0-1.037,0-1.037,0-1.037l0,0l0,0
			c0-7.265,0-14.53-2.076-19.719c-1.037-5.189-1.037-12.454,0-21.795l0,0c1.039-2.076,2.076-3.113,2.076-4.151l0,0
			c6.228-1.038,7.266,6.228,7.266,6.228c0,4.15,1.038,5.188,4.15,5.188c3.113,0,6.228-1.038,8.304-2.075c1.036,0,1.036,0,2.075,0
			c1.037,0,1.037,0,2.074-1.037c0,0,0,0,0-1.038c1.038-1.038,2.076-3.113,5.189-6.228c2.076-1.038,4.15-3.114,6.228-4.15l0,0
			c2.075-1.038,4.151-1.038,5.188-2.076h-1.037h1.037c4.152-1.038,5.188,0,6.228,1.037l0,0c0,1.038,1.038,2.075,2.075,3.113l0,0
			c1.038,1.038,3.114,6.229,7.266,6.229c0,0,1.037,0,2.075,0c3.114-1.038,7.265-1.038,12.454-2.076c4.15,0,7.266-1.038,10.379-1.038
			c1.037,0,1.037-1.037,2.075-1.037c3.112-2.076,5.188,0,12.454-1.038l0,0c2.074,0,5.188-2.076,4.15-3.113
			c0-1.037-2.076-3.113-2.076-3.113c-3.112-2.075-5.188-5.188-9.34-7.266c-6.228-4.15-13.492-7.265-22.832-7.265
			c-7.266,1.038-18.682,4.151-28.021,8.303c-2.075,1.038-4.151,2.075-6.227,3.113c-2.076,0-4.151,0-4.151-4.151
			c1.038-6.227,7.265-12.453,11.416-15.566c5.188-3.113,10.378-6.228,15.567-7.266c9.34-1.037,16.604-2.076,22.832,0
			c2.075,1.038,3.113,1.038,4.151,2.075c0,0,1.037,0,1.037,1.038c3.112,2.076,5.188,4.151,5.188,4.151l1.038,1.038
			c4.151,4.15,7.265,5.188,9.341,1.037c1.037-3.113-3.113-7.266-6.228-9.341c0-1.038-1.038-1.038-2.075-1.038l-6.229-4.15
			c0,0,0-3.113,2.076-5.189c2.075-1.037,3.113-1.037,5.188-2.074c1.038,0,3.112,0,4.151,0c2.074,1.037,8.303,3.112,14.529,8.303
			c2.075,2.074,4.15,4.15,5.188,7.265v-1.038c0,0,2.075,6.229,3.114,14.53l0,0c0,0,2.074,17.643,1.037,23.87
			c-2.076,6.227-1.037,9.341,1.037,17.644c1.038,3.113,1.038,7.266,1.038,10.378c0,1.038,0,2.076,0,2.076c0,2.075,0,3.113,0,5.188
			c0,1.038,0,1.038,0,2.076v1.038c0,2.074,0,3.112,0,3.112c0,3.113-1.038,5.188-1.038,8.304c0,3.112,0,5.188-1.037,8.303l0,0
			c0,0-2.076,28.021-5.189,36.324C1630.443,461.838,1637.708,460.8,1638.746,486.746 M1580.627,589.491
			c0,2.076-1.038,6.228-2.075,10.379c0,0,0,1.038-1.038,2.075c-1.037,4.15-3.113,8.303-5.188,11.417
			c-1.038,2.074-2.075,4.15-2.075,5.188v1.038c-1.038,4.151-2.076,6.227-7.265,10.378l0,0c-5.189,5.189-16.605,4.151-18.683,4.151
			l0,0c-1.037,0-2.076-1.037-3.113-1.037c-1.037-1.038-3.112-2.076-4.15-3.113c-3.114-3.114-5.189-7.266-5.189-11.417
			c0,0,0,0,0-1.037c0-2.076,1.039-5.188,1.039-6.228c1.037-1.038,1.037-3.113,2.074-3.113c0,0,0,0,0-1.038
			c2.076-2.075,4.151-3.113,4.151-3.113l0,0c5.188-3.112,11.416-7.265,11.416-7.265l0,0c2.075-1.038,6.228-3.113,3.114-5.189
			c-2.076-2.075-4.151,0-10.379,3.113c-16.605,7.266-36.324,5.189-41.514,6.229c0,0-1.038,0-2.076,0
			c-3.113,0-6.227,1.037-9.34,1.037c-6.229,1.037-10.379,2.076-12.455,4.15l0,0c-6.227,3.114-8.303,0-11.416,1.038
			c-2.075,1.038-5.188,5.189,2.076,7.265c6.227,2.076,11.416,7.267,11.416,7.267l0,0c3.113,4.151,6.227,6.227,8.303,14.529
			c1.038,6.228,2.076,11.416,0,14.529l0,0c-2.076,2.075-5.188,2.075-12.454,0c-17.644-5.188-43.589-15.567-50.854-24.907
			c-3.113-5.189-8.303-12.454-12.453-19.721v-1.037c-1.038-2.075-2.076-3.113-2.076-5.188l0,0
			c-2.075-3.113-2.075-7.265-2.075-10.379l0,0c-1.037-3.113-1.037-13.491,5.188-13.491c6.228,1.038,24.908-3.113,24.908-3.113l0,0
			c3.112-1.037,6.228-2.076,9.341-3.113c2.074-1.037,5.188-1.037,7.265-1.037s7.265,0,10.379,1.037
			c4.15,1.037,11.416,2.076,13.491,2.076c2.076-1.038,4.151-2.076,6.229-2.076c1.037,0,2.074-1.037,2.074-2.075s0-1.038,0-1.038
			c-1.037-1.038-2.074-1.038-3.113-2.075c-3.112-1.038-6.228-1.038-9.341-1.038c-7.265-1.037-13.49-1.037-20.756,1.038l0,0
			c0,0,0,0-1.038,0l0,0c-1.037,0-1.037,0-3.113,1.037c-1.037,0-2.075,0-2.075,1.038l0,0c-6.229,2.076-17.645,4.151-21.795,4.151
			c-1.038,0-2.075,0-2.075,0s0,0-1.038,0c-2.075,0-4.151,0-6.228-1.038c-1.037,0-2.075-1.037-3.113-2.075l0,0c0,0,0,0,0-1.038
			c0,0,0-1.038-1.038-1.038v-1.037c-1.038-3.113,2.076-5.188,4.151-5.188c2.076,0,4.15-1.038,6.228-1.038
			c3.113,0,7.265-1.038,12.454-2.075c1.037,0,3.113-1.038,4.151-1.038c4.15-1.038,7.265-1.038,10.378-2.075
			c8.303-2.075,20.757,1.037,20.757,1.037l0,0c1.038,0,1.038,0,2.075,0c6.228,1.038,15.567,2.076,20.757,2.076
			c5.188,0,12.454-2.076,16.604-3.113h1.038c1.038,0,2.076-1.037,2.076-1.037l0,0c1.037,0,3.113-1.038,4.149-1.038c0,0,0,0,1.039,0
			c4.15,0,8.303-2.075,13.491-3.113c5.189-1.038,14.53-2.076,21.796-3.113c3.112-1.038,7.265-2.076,8.303-2.076
			c3.113,0,6.227-1.038,7.265,0l1.038,1.038l0,0c0,1.038,0,3.113-1.038,4.151s-11.416,3.113-14.529,3.113
			c-1.038,0-5.188,2.075-8.303,2.075s-7.267,1.037-11.417,2.075h-1.038c-2.075,0-4.149,1.038-6.228,1.038
			c-3.112,1.037-5.188,1.037-7.265,2.075l0,0c-2.075,1.038-3.114,1.038-4.151,1.038s-2.075,1.038-2.075,1.038
			c-1.037,0-2.075,1.036-2.075,1.036h-1.038c-1.038,0-2.075,0-2.075,1.038l0,0l0,0c-2.076,0-5.188,0-5.188,0
			c-3.113,0-3.113,3.113-2.075,3.113c1.037,0,5.188,1.038,7.266,1.038l0,0c1.037,0,2.074,0,3.112,0s8.304,0,17.645-2.075
			c7.265-1.038,15.567-3.114,23.87-5.188c1.037,0,2.074-1.038,3.113-1.038c18.681-5.189,23.869-7.265,25.945-7.265l0,0
			c0,0,0,0,1.037,1.037l0,0c0,1.037,1.038,1.037,0,3.113c0,0,0,1.038-1.037,1.038c0,1.037-1.038,1.037-1.038,2.075
			c-1.038,1.038-2.075,3.113-3.112,4.15c-2.076,3.113-4.151,6.229-5.189,8.304c-1.038,3.112-1.038,4.15,0,5.188l0,0l0,0l0,0l0,0l0,0
			l0,0c3.113,1.038,9.341-2.076,9.341,2.075C1580.627,587.416,1580.627,589.491,1580.627,589.491L1580.627,589.491z
			 M1431.179,484.67L1431.179,484.67c0,0,0-5.188,1.037-10.378c1.038-3.114,2.076-6.228,4.151-8.303
			c4.15-5.189,4.15-8.304,2.076-10.379c-1.038-1.037-3.113,0-4.151,2.075l0,0c0,0-5.188,5.188-6.228,10.379l0,0
			c-1.037,3.112,0,7.265-2.075,12.453c-1.038,2.076-2.076,4.151-3.113,6.229l-1.038,2.075l0,0c0,0-1.038,2.076-2.076,3.112
			c-1.037,1.038-2.074,2.076-3.113,3.114l0,0l0,0l0,0c-1.037,2.075-3.112,4.151-5.188,7.266
			c-12.454,16.604-29.06,42.551-32.173,70.571c-1.038,3.114-1.038,7.267-2.075,10.379c0,3.113-1.038,5.189-1.038,8.304
			c-7.265,3.112-12.454,0-16.604-2.076c-4.151-5.188-9.341-10.378-12.454-14.529c-1.038-2.076-4.151-5.188-7.266-10.379
			c-3.113-4.15-5.188-9.34-8.303-13.491c-1.038-3.113-2.076-7.265-2.076-11.416l0,0c-1.037-7.266-2.074-21.795-2.074-21.795
			l-9.342-39.438c0-1.038-1.037-7.267-3.112-10.379l0,0c-1.038-2.075-2.076-8.304-2.076-12.454c0-2.075,0-3.113,0-5.189
			c0-7.265,0-15.567-1.037-23.87c0-2.074,0-5.188,0-8.303c0-18.681,3.113-19.719,1.037-26.983c-1.037-4.15-1.037-8.303-2.075-12.454
			c0-1.037,0-1.037,0-2.074c0-16.605,3.113-32.174,8.303-47.741c3.113-10.378,7.266-20.757,12.454-30.097
			c0-1.038,1.038-2.076,1.038-3.114c7.266-12.454,15.567-24.908,25.945-35.286l0,0l0,0c12.454-12.454,25.945-23.87,41.514-33.211
			c18.682-10.378,38.4-18.681,58.119-22.832c9.341-2.076,18.682-3.114,26.984-4.151c3.113,0,6.227,0,8.303,0
			c3.113,0,4.15-1.038,4.15-4.15c0-1.038,0-3.114,0-4.151v-2.076v-1.037c0-2.076-1.037-3.112-3.113-3.112c-1.038,0-3.113,0-5.189,0
			c-4.15,0-7.265,0-10.378,1.036c-2.075,0-3.113,0-5.188,1.038c-1.038,0-2.075,0-4.151,0c-1.037,0-2.075,0-3.113,0h-1.038l0,0
			c0,0,0-1.038,1.038-1.038l0,0c1.038-1.036,2.076-1.036,3.113-2.075c8.303-3.113,17.644-7.265,28.021-10.378
			c14.53-4.151,28.021-8.304,41.515-11.416c4.151-1.038,7.266-1.038,11.416-2.075c3.114,0,5.188-1.039,8.303-1.039
			c2.076,0,3.114,0,5.188,2.076c1.039,2.076,3.113,3.112,4.151,5.188c15.567,19.719,28.021,40.477,39.438,63.309
			c6.227,12.453,12.453,25.945,16.604,39.438l0,0c0,0,0,1.037,1.037,3.113c1.038,3.113,2.076,6.227,3.114,9.341
			c2.074,6.228,5.188,17.643,3.113,12.454c-2.075-5.189-9.342-7.266-9.342-7.266c-39.438-8.304-61.231,6.228-61.231,6.228l0,0
			c-7.265,5.188-13.492,10.378-19.72,16.604c0,0-20.756,17.644-34.248,21.795c-2.075,1.037-9.34,4.15-10.379,10.379
			c-1.037,7.265,1.039,15.566,2.076,18.681l0,0c3.113,8.303,8.303,18.682,9.34,25.946c2.076,13.492-7.265,40.476,4.151,61.231
			c11.417,21.796,17.644,14.529,15.567,8.304c-1.037-2.076,0-4.151,2.076-4.151l0,0c2.074-1.038,6.227,0,10.378,3.113
			c2.075,2.076,5.188,4.15,6.228,8.303c1.037,2.076,1.037,4.151,2.075,6.228c0,1.037,0,2.075,0,3.113s0,2.075,0,3.113
			c0,4.151-1.038,6.229-1.038,6.229l1.038,1.036c0,1.038,1.038,1.038,2.076,2.076c1.038,1.037,3.112,2.075,4.151,3.113l1.037,1.038
			c1.037,1.037,1.037,1.037,2.075,2.075c7.265,5.188,15.567,13.491,24.908,22.833c3.113,5.188-4.151,7.265-8.303,7.265
			c-5.189,0-23.871-5.188-23.871-5.188l1.038,1.037c-2.075-1.037-3.113-1.037-5.188-2.076c-2.075-1.036-3.114-2.074-4.151-3.112
			c-3.113-3.113-4.15-7.266-4.15-10.378c0-3.114,2.075-6.229,3.113-8.304l0,0c5.188-6.228,6.227-8.303,5.188-9.341c0,0,0,0-1.038,0
			l0,0c-1.037,0-2.074,0-4.15,1.038c-3.113,1.037-6.228-1.038-8.303-2.076c-1.039-1.038-3.113-1.038-4.151-1.038
			s-3.113,0-4.151,1.038c-1.037,1.038-2.074,2.076-3.113,3.113c-1.037,2.076-3.112,4.151-4.15,7.266
			c-2.075,4.151-4.151,7.266-6.229,10.378l-1.037,1.038l0,0l0,0c-1.037,1.038-2.076,2.075-3.112,3.113
			c-1.039,0-1.039,1.038-2.076,1.038c-2.076,1.038-4.151,1.038-5.188,1.038s-1.037,0-2.076,0c-2.075,0-3.113,0-4.15,0
			c-2.076,0-4.15,0-8.303,0c-8.303,0-14.529-12.454-19.719-17.645c-5.19-5.189-11.416-6.228-15.568-2.075
			c-4.15,4.15-1.037,11.416,2.076,11.416h1.038c0,0,2.074,0,6.227-1.037c4.152-1.038,9.341,3.112,11.417,5.188
			c1.037,2.075,4.15,8.302-2.076,10.378c-5.188,1.038-13.492,2.076-22.832,5.189c-8.303,2.074-15.566,6.227-21.795,10.378
			c0,0-6.227,0-11.416,2.076c-4.15,1.037-6.228-1.038-6.228-2.076c8.303-15.567,18.682-28.021,24.907-35.286l0,0
			c2.075-2.076,3.113-4.151,4.151-6.229l0,0l0,0c1.038-1.036,1.038-2.074,1.038-3.112
			C1432.216,488.821,1432.216,486.746,1431.179,484.67 M1240.216,345.6c-3.113-7.265-7.265-14.528-10.378-21.795v-1.037
			c-2.076-4.15-1.038-8.303,0-10.379c0-1.038,0-1.038,0-1.038l1.038-2.074l1.037-1.038c9.341-15.567,19.72-30.098,31.136-43.589
			c3.113-4.151,6.227-7.266,9.34-11.416c3.114,13.49,5.189,23.87,7.266,34.248c2.075,11.417,4.151,21.795,5.188,30.098
			c1.038,7.265,2.076,14.529,3.114,20.757v1.038c1.037,6.228,2.074,12.454,2.074,18.681c1.038,5.189,1.038,10.379,2.076,15.567
			v1.038c0,5.188,1.037,9.341,1.037,14.529c0,3.113,0,5.188,1.038,8.303v3.114c0,7.265,1.038,13.49,1.038,20.757
			c0,3.113,0,7.265,0,10.378c0,2.075,0,4.151,0,6.227c0,1.038,0,2.076,0,3.114v1.037v8.303c0,5.189,0,9.341,0,14.53v1.038
			c0,2.075,0,4.15,0,5.188c0,3.113,0,6.229,0,9.342v1.037c0,1.037,0,1.037,0,2.075l0,0l0,0l0,0c0-1.038-1.038-1.038-1.038-2.075
			c-1.038-1.037-1.038-3.113-1.038-4.15c-8.303-25.946-17.643-51.894-26.982-77.838l0,0
			C1256.821,382.962,1248.52,364.281,1240.216,345.6 M1351.265,108.973c24.908-17.643,53.969-29.06,84.065-33.211
			c6.227-1.037,11.416-1.037,17.643-1.037c-34.248,6.228-68.496,17.644-98.594,33.211
			C1353.341,107.936,1352.303,108.973,1351.265,108.973 M1176.908,647.61c0-5.189,1.038-10.378,1.038-15.567
			c0-6.227,1.036-13.492,2.074-20.757c1.038-9.341,2.076-18.681,3.113-28.021c1.038-8.303,1.038-14.528,2.076-20.757
			c1.038-6.227,1.038-11.416,2.075-17.644v-1.037c1.038-5.189,1.038-11.417,2.076-16.605c0-3.113,1.037-7.266,1.037-10.379
			l1.037-7.265c1.038-4.151,1.038-7.266,2.076-11.416c1.037-5.189,1.037-9.341,2.075-14.53v-1.037
			c1.038-6.228,2.076-12.454,3.113-19.72c2.076-9.34,3.114-20.756,5.188-32.173c2.076-9.34,3.113-20.757,5.189-31.135
			c2.074-10.38,4.15-21.796,6.227-32.173l2.076-9.342c1.038-3.112,1.038-5.188,2.075-8.303v-2.075c0-1.038,0-1.038,1.038-2.075
			c0-1.038,1.038-1.038,1.038-1.038c1.036,0,1.036,0,1.036,1.038c0,1.037,1.038,1.037,1.038,2.075
			c1.038,2.075,2.076,4.151,3.114,6.228c2.075,5.188,5.188,9.341,7.266,14.53c6.227,13.49,12.453,29.059,18.681,43.589l0,0l0,0
			c7.265,16.604,13.492,34.249,18.682,52.93c8.304,26.983,16.605,53.968,22.832,80.951l0,0l0,0
			c3.113,14.53,6.228,26.983,8.304,37.362c2.074,11.416,4.15,22.832,6.227,35.286c1.038,9.341,3.114,19.72,3.114,26.983
			c1.037,7.266,1.037,13.491,2.075,20.757v5.188c1.037,9.341,1.037,17.644,2.075,29.06c0,8.304,1.037,16.605,1.037,24.908v4.151
			c0,10.379,0,20.757,0,31.136v1.037c0,1.038,0,1.038,0,2.076v63.308c-55.005-23.87-104.821-59.156-145.297-102.746L1176.908,647.61
			z M1375.135,697.427c-2.074-6.227-5.188-17.644-5.188-17.644l0,0l0,0l0,0c0-1.037-1.038-5.188,1.038-4.151
			c1.036,1.038,2.074,2.076,3.112,3.114c0,0,14.529,18.681,33.211,33.21l0,0c0,0,12.453,10.379,29.06,19.72
			c8.303,5.188,21.795,11.416,43.59,15.567c6.228,1.038,13.492,2.075,21.795,3.112c6.228,1.038,13.491,1.038,19.72,0
			c26.982-3.112,60.193-23.869,80.95-42.551l-37.362,143.221c-26.982,5.189-53.968,8.304-81.988,8.304
			c-28.021,0-55.006-3.113-80.951-8.304C1397.968,799.135,1388.627,748.281,1375.135,697.427 M1854.616,638.27v-8.302v-56.044
			c0-1.038,0-1.038,0-2.074c0-1.038-1.038-2.076-2.075-2.076v-69.535c0-2.075-1.038-3.113-3.114-3.113h-1.038
			c-2.074,0-3.113,1.038-3.113,3.113v69.535l0,0c-1.037,1.037-2.074,3.112-2.074,4.15v53.969c-3.114-5.189-5.189-9.342-8.303-14.529
			c0-1.038,1.037-2.076,1.037-3.114l0,0v-42.551l0,0c0-1.038-1.037-3.113-2.076-4.151v-12.454c1.039-1.038,2.076-2.076,2.076-4.15
			l0,0v-9.341l0,0c0-1.038-1.037-3.113-2.076-4.151v-15.567c1.039-1.038,1.039-1.038,2.076-2.076c0-1.037,1.037-2.074,1.037-2.074
			v-93.405c0-1.038,0-2.076-1.037-2.076c0-1.037-1.037-1.037-2.076-2.075v-21.795c0-2.075-1.037-3.113-3.112-3.113h-1.038
			c-2.075,0-3.113,1.038-3.113,3.113v22.833h-1.037c-1.039,1.037-2.076,2.075-2.076,4.151v93.404c0,2.075,1.037,3.113,2.076,4.151
			v15.567c-2.076,1.038-3.113,3.113-3.113,5.188v9.34c0,2.076,1.037,4.151,3.113,5.189v11.416c-2.076,1.038-3.113,3.113-3.113,5.188
			v28.021c0-1.038,1.037,1.038,0,1.038c-2.076-3.113-5.189-9.341-7.267-13.492l0,0V446.271c0-2.076-1.036-3.114-2.075-4.152v-10.378
			c0-2.075-1.037-3.113-3.112-3.113h-1.038c-2.076,0-3.113,1.038-3.113,3.113v9.341c0,0-1.038,0-1.038,1.037
			c-1.038,1.038-2.075,2.076-2.075,4.151v17.644v21.795v12.454v62.271c0-1.038-1.039-2.076-1.039-2.076
			c-2.074-4.15-4.149-8.303-6.227-12.453V359.093c0-1.038,0-2.076-1.038-2.076c0-1.037-1.038-1.037-2.075-2.075v-5.188v-11.416
			v-74.726v-1.037v-94.443c0-2.075-1.037-3.113-3.113-3.113h-1.037c-2.076,0-3.114,1.038-3.114,3.113v106.896v1.038v63.31v8.303
			v6.227c-2.075,1.038-2.075,3.113-2.075,4.151v162.94c0-1.038-1.037-2.075-1.037-3.113c-1.039-2.076-1.039-1.038-2.076-3.113
			c-1.037-2.076-3.113-7.266-5.188-11.416V394.38c0-1.038,0-2.075-1.038-3.113c0-1.038-1.037-1.038-2.074-2.076v-91.329l0,0V182.662
			v-14.53v-4.15c0-2.076-1.039-3.112-3.114-3.112h-1.037c-2.076,0-3.114,1.036-3.114,3.112v6.228v11.416v129.729l0,0v79.913
			c-1.038,1.038-3.113,3.113-3.113,4.151v83.026c-3.113-6.228-5.188-12.453-8.303-18.682V370.51c0-1.038,0-1.038,0-2.075
			c0-1.038-1.038-2.076-1.038-2.076s0,0-1.036,0v-31.135l0,0V211.721c0-2.076-1.039-3.113-3.115-3.113h-1.037
			c-2.075,0-3.113,1.037-3.113,3.113v118.313l0,0v34.249c-2.076,1.037-3.113,3.113-3.113,5.188v59.157
			c-3.113-7.266-5.188-13.492-7.266-20.757v-44.627V254.271c0-1.038-1.037-2.076-1.037-3.114l-1.038-1.037V182.66v-22.834v-35.285
			c0-2.075-1.038-3.113-3.112-3.113h-1.039c-2.076,0-3.112,1.038-3.112,3.113v37.361v17.645v69.535
			c-1.038,1.037-2.076,3.112-2.076,4.15v117.275c-2.075-8.303-4.151-17.645-6.228-25.946c0-2.075-1.037-4.151-1.037-6.227l0,0l0,0
			v-58.119v-36.324c0-2.075-1.039-3.113-2.076-4.151l0,0V117.275c0-2.076-1.038-3.113-3.113-3.113h-1.038
			c-2.075,0-3.113,1.037-3.113,3.113V239.74l0,0c-1.038,1.038-2.075,3.113-2.075,4.151v45.665v8.303
			c-1.037-4.15-2.076-7.265-3.113-11.416c0-1.038,0-2.076-1.037-2.076c-2.076-8.303-4.152-16.604-6.229-24.907v-3.113v-28.021
			v-65.384v-5.188v-2.075c0-2.076-1.037-3.113-3.113-3.113h-1.037c-2.076,0-3.113,1.037-3.113,3.113v2.075v5.188v16.605v18.681
			v19.719v5.189c-8.303-52.931-11.417-101.708-12.454-106.897c-1.038-19.719-2.076-39.438-2.076-59.156
			c88.216,43.59,158.789,118.313,199.265,208.605h-1.037h-1.035c-2.076,0-3.114,1.037-3.114,3.113v207.566
			c-1.037,1.038-2.075,3.113-2.075,4.151v142.184C1859.807,627.892,1857.729,633.081,1854.616,638.27"/>
		<path fill="#13110C" d="M667.33,576c-10.379,0-18.682,6.227-18.682,16.605c0,11.416,8.303,16.604,18.682,16.604
			c9.34,0,18.681-5.188,18.681-16.604C686.011,582.227,678.746,576,667.33,576"/>
		<path fill="#13110C" d="M679.784,434.854h-32.173v89.255h-523.07h-4.151h-19.72v-26.983c0-40.476-17.643-61.232-59.157-61.232
			h-5.189v32.174h9.341c16.605,0,24.908,8.303,24.908,25.945v31.135H0v32.174h120.389h4.151h556.281V434.855h-1.037V434.854z"/>
		<path fill="#13110C" d="M623.74,576c-10.378,0-18.682,6.227-18.682,16.605c0,11.416,8.304,16.604,18.682,16.604
			c9.341,0,18.682-5.188,18.682-16.604C642.422,582.227,634.119,576,623.74,576"/>
		<rect x="733.751" y="381.924" fill="#13110C" width="32.173" height="174.357"/>
		<path fill="#13110C" d="M837.535,559.395c0,15.567-7.266,20.758-17.645,20.758c-5.188,0-10.378,0-17.643-1.038l3.113,28.021
			c5.188,1.038,11.416,2.076,17.644,2.076c31.135,0,46.702-12.454,46.702-56.044V434.854h-32.173L837.535,559.395L837.535,559.395z"
			/>
		<path fill="#13110C" d="M853.104,417.211c9.341,0,18.682-5.188,18.682-16.604c0-10.38-8.303-16.605-18.682-16.605
			s-18.682,6.228-18.682,16.605C834.422,410.983,843.762,417.211,853.104,417.211"/>
		<path fill="#13110C" d="M394.378,278.141L394.378,278.141c-13.492,0-22.833,9.34-24.908,22.832
			c-13.492,1.038-20.757,9.342-20.757,23.87v16.605h8.303v-15.567c0-10.379,4.151-15.566,12.454-16.604
			c2.076,13.491,11.417,21.795,24.908,21.795l0,0c14.53,0,24.908-10.379,24.908-25.946l0,0
			C419.286,288.52,408.908,278.141,394.378,278.141 M409.946,304.086c0,10.379-6.229,17.645-15.568,17.645l0,0
			c-9.34,0-15.567-7.266-15.567-17.645l0,0c0-10.378,6.227-17.643,15.567-17.643l0,0
			C403.719,286.443,409.946,293.708,409.946,304.086L409.946,304.086z"/>
		<path fill="#13110C" d="M842.725,312.389c-4.15-6.227-6.228-12.453-6.228-17.643c0-10.379,6.228-16.605,15.567-16.605
			c4.15,0,8.303,1.037,14.529,4.151l3.113-8.303c-7.266-3.114-13.492-4.151-17.645-4.151c-13.49,0-22.832,8.303-22.832,23.87
			c0,5.189,1.039,11.416,4.151,18.681h-9.341h-2.075H458.725v-63.308h-8.303v72.648h371.546h2.075h47.741v-8.304h-29.06V312.389
			L842.725,312.389z"/>
	</g>
</g>
</svg>
