<?xml version="1.0" encoding="utf-8"?>
<!-- Generator: Adobe Illustrator 15.0.0, SVG Export Plug-In . SVG Version: 6.00 Build 0)  -->
<!DOCTYPE svg PUBLIC "-//W3C//DTD SVG 1.1//EN" "http://www.w3.org/Graphics/SVG/1.1/DTD/svg11.dtd">
<svg version="1.1" id="Layer_1" xmlns="http://www.w3.org/2000/svg" xmlns:xlink="http://www.w3.org/1999/xlink" x="0px" y="0px"
	 width="1920px" height="871.783px" viewBox="0 0 1920 871.783" enable-background="new 0 0 1920 871.783" xml:space="preserve">
<g>
	<path fill="#1D1D1B" d="M385.038,332.107c-1.038-1.037-1.038-2.075-2.076-3.113l0,0c-1.038-1.038-4.151-2.075-9.34-4.151h-1.038
		c-2.076-1.038-5.189-2.075-7.265-2.075c-10.378-3.113-15.567-3.113-15.567-3.113c-9.341,1.038-20.757,2.076-31.135,3.113
		c-6.227,1.037-20.757,5.188-32.173,13.491l0,0l0,0c0,0-1.038,1.038-3.114,2.076l-1.038,1.038l0,0l0,0
		c-4.151,3.113-9.341,8.303-12.454,12.454c0,0-1.038,1.037-1.038,4.151v1.036l0,0v1.038c0,1.038,0,2.076,0,4.151v1.038
		c0,7.265,1.038,17.643,2.076,19.719c1.038,3.113,1.038,6.227,3.114,6.227c1.038,0,2.076-1.036,2.076-1.036
		c1.038-1.038,1.038-3.113,1.038-4.151c0-3.114,1.038-6.229,1.038-10.379c1.038-5.188,3.113-7.266,3.113-7.266
		c5.189-6.227,11.417-11.416,12.454-12.453h1.038c2.076,0,5.189,0,7.265-1.038c2.076,0,4.151,0,2.076,2.076
		c-4.151,4.15-7.265,7.265-10.378,12.454c-1.038,1.037-2.076,3.112-2.076,5.188c-1.038,4.151-2.076,9.34-2.076,13.491l0,0
		c0,1.038,0,1.038,0,3.113l0,0c0,0,0,0,0,1.037l0,0c0,1.038,1.038,1.038,2.076,1.038c0,0,1.038,0,1.038-1.038
		c1.038,0,1.038-1.037,2.076-1.037c1.038-1.037,1.038,0,1.038,0c0,4.15,4.151,2.075,7.265-2.075
		c2.076-2.076,4.151-3.113,6.227-4.151c4.151-2.076,7.265-4.15,11.416-7.265c1.038,0,2.076,0,2.076-1.038h1.038
		c1.038,0,5.189,2.076,6.227,7.265c0,2.076,1.038,3.113,2.076,4.151c0,0,0,1.038,2.076,1.038c2.076,1.038,5.189,2.075,12.454,1.038
		c7.265-1.038,11.417-1.038,14.53-3.114c1.038-1.037,2.076-2.075,3.114-3.113l0,0c0,0,0,0,0-1.038l0,0
		c1.038-2.074,1.038-2.074,3.113,0c2.076,3.114,6.227,2.076,6.227,2.076h1.038c1.038-1.038,3.113-2.076,3.113-3.113l0,0
		c0,0,1.038-2.076,1.038-3.112c0-1.038-1.038-3.114-3.114-3.114c-2.076,0-1.038-3.113,0-3.113c1.038,0,3.114-3.113,6.227-11.416l0,0
		c0-1.038,1.038-2.076,1.038-2.076c2.076-5.188,5.189-14.529,3.114-17.643C387.113,336.259,386.076,334.184,385.038,332.107
		 M345.6,359.092c-3.114,1.038-9.341,2.075-9.341,2.075c-2.076,0-5.189,1.038-9.34,3.114c-2.076,1.037-3.113,1.037-5.189,2.074
		c-8.302,3.113-13.492,9.342-16.605,13.492l0,0c0,0-2.076,2.075-4.151,0c-1.038-1.038,0-4.15,0-6.228
		c3.113-6.228,6.227-9.34,6.227-9.34c4.151-4.151,9.34-6.229,12.454-7.267c4.151-1.037,7.265-2.074,9.34-2.074
		c2.075,0,4.151,0,5.189,0l0,0c0,0,9.341,1.037,11.417,3.112C346.638,358.054,345.6,358.054,345.6,359.092 M378.811,327.956
		C376.735,327.956,377.773,327.956,378.811,327.956L378.811,327.956z"/>
	<path fill="#1D1D1B" d="M513.729,380.886c-2.074,0-4.15-1.037-5.188-2.075l0,0c-1.038,0-1.038-1.037-1.038-1.037
		c-1.038,0-1.038-1.037-2.076-1.037c-1.037-1.038-3.112-2.076-3.112-3.114c-1.038-3.113-2.075,2.076-7.266,2.076
		c-1.038,0-3.113,0-4.15,1.038h-1.038c-2.075,1.037-3.113,2.074-3.113,3.113c1.038,2.074,1.038,3.112,4.151,3.112
		c1.037,0,1.037,0,2.074,0c3.114,0,8.304-1.038,11.417-1.038c0,0,0,0,1.037,0l0,0c1.038,0,8.304,2.076,9.341,1.038
		C514.768,381.924,513.729,380.886,513.729,380.886"/>
	<path fill="#1D1D1B" d="M435.892,0C196.151,0,0,195.113,0,435.892c0,240.779,196.151,435.893,435.892,435.893
		c240.778,0,435.894-195.113,435.894-435.893C871.785,195.113,676.67,0,435.892,0 M845.838,511.653l-1.038-1.037v-6.229v-7.265
		c0-2.075-1.038-3.113-3.112-3.113h-1.039c-2.074,0-3.112,1.038-3.112,3.113v8.303v4.151l0,0l0,0
		c-1.038,1.038-2.076,3.112-2.076,4.15v42.553v18.681c-2.075,6.227-5.188,13.492-7.265,19.719V480.518c0-1.037,0-1.037,0-2.074
		c0-1.038-1.037-2.076-2.075-3.114V269.838c5.188,11.416,9.341,22.832,12.454,34.248v104.822v6.227c0,2.076,1.038,3.113,3.113,3.113
		h1.037c2.075,0,3.113-1.037,3.113-3.113v-7.265v-80.951c9.341,35.286,14.529,71.61,14.529,108.974
		c0,34.248-4.15,67.459-12.453,99.633v-20.757C846.876,513.729,845.838,512.691,845.838,511.653 M695.352,769.037
		c3.113-21.794,5.189-42.551,7.266-63.309c2.075-24.907,3.113-50.854,3.113-79.912c0-28.022-1.039-56.044-3.113-84.065
		c-2.075-29.06-5.189-58.119-10.378-86.141c14.528,36.323,31.135,72.647,50.854,106.896c16.605,31.135,35.287,62.271,55.006,91.33
		C771.113,698.465,735.827,737.902,695.352,769.037 M535.523,846.875l70.573-272.951c3.113,4.151,14.529,37.362,18.682,46.703
		c0,0,0,1.038,1.038,1.038c2.074,4.151,4.15,8.302,5.188,11.416c1.037,2.075,2.075,3.113,3.113,5.188
		c9.34,17.644,16.604,36.324,22.832,55.006c5.188,15.566,9.341,32.173,12.454,48.777c2.074,10.378,3.112,19.719,4.15,28.021
		c0,2.076,0,5.188,1.038,7.265c0,2.076,0,5.189,1.038,7.265C632.043,813.665,585.341,834.421,535.523,846.875 M283.33,829.232
		c0-1.038,0-3.114,0-3.114c0-3.113,0-6.228,0-10.378v-19.719c0-23.87,1.038-47.74,0-71.611v-1.037c0-7.266,0-13.492-1.038-20.757
		c0-8.303-1.038-15.567-1.038-23.87c0-7.266-1.038-13.492-2.076-20.757c-1.038-6.229-1.038-12.454-2.076-18.683
		c0-5.188-1.038-10.378-1.038-15.566c0,0,0,0,0-1.038c0-4.151,1.038-7.265,4.151-7.265c2.076,0,3.113,1.037,4.151,1.037l0,0
		c6.227,8.304,9.34,18.682,12.454,28.021c3.113,8.303,6.227,17.645,9.34,26.983c1.038,2.075,1.038,3.113,2.076,5.188
		c15.568,55.006,26.984,112.087,32.173,169.168C321.73,842.724,302.011,836.497,283.33,829.232 M92.368,680.821V458.723
		c0-2.074-1.038-3.112-2.076-4.15l0,0v-5.188v-4.15l0,0c0-2.076-1.038-3.114-3.114-3.114H86.14l0,0
		c-2.076,0-3.113,1.038-3.113,3.114v9.34c-2.076,1.038-3.114,3.114-3.114,5.188v203.416c-3.114-4.15-5.189-9.34-8.303-13.49l0,0
		v-25.946v-8.304V363.244c0-2.076-1.038-3.113-2.076-4.151l-1.038-1.038V227.287c6.227-10.378,11.416-19.719,18.681-29.061
		c9.341,13.492,18.681,25.946,28.022,39.438c2.076,3.113,3.113,5.188,5.189,8.303l2.076,3.113c0,0,0,0,0,1.037c0,0,0,0,0,1.038
		l10.378,15.566c2.076,3.114,3.114,6.229,5.189,8.304c3.114,5.188,6.228,10.379,9.341,15.567
		c3.113,6.228,7.265,12.454,10.378,18.682c1.038,2.074,3.113,5.188,4.151,7.265v1.038c0,0,0,1.038,1.038,1.038
		c1.038,2.075,1.038,3.112,1.038,6.227c0,1.038,0,1.038,0,2.076c0,1.037-1.038,2.075-1.038,4.151
		c-1.038,5.188-2.076,10.378-3.113,16.604c-2.076,11.416-5.189,23.87-7.265,36.324c-2.076,11.416-4.151,22.832-6.227,33.211
		c-2.075,9.34-3.113,19.719-5.189,26.983c-2.076,10.378-3.114,20.757-5.189,33.211c-1.038,5.188-2.076,11.416-2.076,16.604
		l-1.038,5.189c-17.643,140.106-18.681,182.659-18.681,183.696c0,2.075,0,5.188,0,8.304v-57.081l0,0
		c0-2.076-1.038-3.114-2.076-4.151l0,0v-95.48v-4.151v-4.151v-2.075v-7.266c0-2.075-1.038-3.113-3.113-3.113h-1.038
		c-2.076,0-3.113,1.038-3.113,3.113v84.065v6.227v7.266v17.644c-2.076,1.038-3.114,3.113-3.114,5.189v59.155
		C97.557,688.086,94.443,683.936,92.368,680.821 M50.854,610.248V445.232v-15.567c0-1.038-1.038-3.114-2.076-4.151l0,0v-2.076
		v-12.453c0-2.075-1.038-3.113-3.113-3.113h-1.038c-2.076,0-3.113,1.038-3.113,3.113v14.529c-2.076,1.037-3.114,3.113-3.114,5.188
		v147.373c-16.605-44.627-24.908-93.405-24.908-143.222c0-70.572,17.643-136.994,47.74-195.113v117.274
		c-1.038,1.038-2.076,3.114-2.076,5.189v65.384v197.189C56.043,620.627,53.968,615.438,50.854,610.248 M435.892,13.492
		c62.271,0,121.429,13.49,175.396,38.398c0,6.229,0,11.416,0,17.645c0,11.416,1.038,23.87,1.038,35.286
		c1.038,18.681,3.112,36.323,4.151,55.005v3.114c1.037,12.454,3.112,28.021,5.188,43.589c0,0,0,3.113-2.076-2.075
		c-1.037-3.114-3.112-6.228-4.151-9.341c0,0,0-1.038-1.036-1.038c-1.038-2.075-2.076-4.151-3.114-6.228
		c0-1.037-1.037-2.075-1.037-3.113l-1.038-8.303l1.038-3.113c0-1.037,1.037-3.113,1.037-4.15c1.038-3.114,1.038-7.266,1.038-11.417
		c0-2.075,0-4.151,0-7.265c0-2.076-1.038-4.151-1.038-6.228c-4.151-17.644-14.529-31.136-30.097-39.438
		c-2.076-1.038-5.189-2.075-8.304-3.113c-3.113-1.038-6.228-2.075-9.341-2.075c-2.075-1.039-4.151-3.113-5.188-5.188
		c-12.454-19.72-44.627-20.759-60.194-22.833c-6.228-1.038-12.454-1.038-19.719-2.075c-4.151,0-10.379-1.038-14.529-1.038
		c-2.076,0-4.152,1.038-6.228,0c-5.189-1.038-9.342-2.075-14.53-3.113c-3.113-1.037-7.265-1.037-10.378-2.076
		c-8.303-1.037-15.567-1.037-23.87-1.037c-48.778,0-94.443,18.682-130.768,50.854c-8.303,7.266-15.567,15.567-22.833,23.87
		c-7.265,8.303-21.794,14.529-30.097,21.795c-10.378,8.303-19.719,16.605-29.06,25.945c-13.492,14.53-44.627,46.703-31.135,68.498
		v1.038c0,0,0,1.037,0,2.074c-1.038,1.038-1.038,2.075-1.038,3.113c-3.114,8.303-4.151,15.567-3.114,23.87c0,1.038,0,1.038,0,2.076
		l-13.492-21.795l-21.794-35.286l0,0c-3.114-4.151-5.189-8.303-8.303-12.454c-6.227-9.341-13.492-19.719-21.795-30.098
		C172.281,81.988,296.822,13.492,435.892,13.492 M639.309,290.595c3.113,14.529,7.266,29.06,11.416,43.589
		c-3.112,7.266-7.266,14.529-11.416,23.87c-7.266,16.605-14.529,32.173-19.72,46.703c-3.112,7.265-5.188,13.491-7.265,20.757
		c-1.038,3.113-2.075,6.228-4.151,10.378c-1.038,1.038-1.038,3.113-2.075,4.151c0,0,0,1.038-1.037,1.038c0,0,0,0-1.039,0l0,0
		c0-1.038,0-1.038,0-2.076c0-1.037,0-3.113,0-4.151v-2.074c0-7.266,1.039-14.53,2.076-24.908
		c1.037-10.379,3.113-21.795,5.188-33.211c3.114-19.719,8.303-39.438,15.567-58.119c4.151-10.378,7.266-20.757,12.454-31.135
		C638.271,287.48,639.309,288.52,639.309,290.595 M664.217,378.811c6.228,25.946,11.416,52.931,15.567,79.913
		c8.303,55.007,12.454,111.05,12.454,168.13c0,43.591-2.076,79.914-6.229,119.353c0,3.113-1.038,7.265-1.038,10.379l-1.037-9.341
		l-9.341-39.438l0,0c-4.15-17.644-10.378-34.248-17.644-49.815c-4.151-10.379-9.341-19.72-12.454-26.984
		c-2.075-5.188-5.188-10.378-8.303-17.643c-8.304-18.682-14.529-38.4-19.72-58.119c-3.112-10.379-5.188-21.795-7.265-32.173
		c-1.038-8.303-3.113-17.645-4.151-28.021c0-1.037,0-1.037,0-2.075s0-1.038,0-2.075c0-2.076,0-3.114,1.038-5.189
		c1.037-2.076,1.037-5.188,2.075-7.265c1.038-4.151,2.076-8.303,4.151-12.454c6.227-18.682,12.454-37.361,20.757-56.044
		c7.265-18.681,15.567-37.362,23.87-53.967c0,0,0,0,0-1.038C659.027,362.205,661.104,370.508,664.217,378.811 M617.514,298.896
		c-4.15,10.379-7.265,21.795-10.379,32.174c0,1.037,0,2.074-1.037,2.074c0,1.038,0,1.038-1.038,1.038c0,0,0,0-1.038,0
		c0,0,0,0-1.037-1.038c0-1.037-1.037-1.037-1.037-2.074c0-2.076-1.038-4.151-1.038-6.229v-2.075
		c-2.076-13.491-5.189-28.021-9.341-41.514c-6.228-23.87-15.567-46.703-26.983-68.497c-5.189-11.417-11.416-21.795-18.683-32.173
		c-6.227-10.379-13.49-20.758-21.793-30.098c-2.076-2.076-4.151-5.189-7.266-6.228c-1.038,0-2.076-1.039-2.076-1.039
		c-4.15-1.037-9.341,0-13.492,0c-5.188,1.039-10.377,2.076-15.566,3.114c-12.454,3.113-24.908,6.228-37.362,9.341
		c-4.15,1.037-7.265,2.075-11.416,3.113c-3.112,1.037-7.265,2.076-11.416,4.15c-14.528,5.188-29.06,11.416-42.551,18.682
		c-22.833,11.416-44.627,24.908-64.346,40.476c-11.416,9.341-22.832,18.683-33.21,29.061l0,0
		c-7.265,7.265-14.53,14.53-20.757,21.795c-1.038,1.038-2.076,2.075-2.076,3.113s0,2.075,2.076,3.112
		c1.038,1.038,1.038,1.038,2.076,2.076c1.038,1.038,1.038,2.075,1.038,3.113l0,0c0,1.038-1.038,2.076-1.038,2.076
		c-5.189,9.34-9.341,19.719-13.492,31.135l0,0c0,1.038,0,1.038-1.038,2.075c0,0,0,1.038-1.038,1.038c0,0,0,0-1.038,0l0,0
		c-1.038-1.038-1.038-2.075-1.038-3.113c0-2.076-1.038-4.151-1.038-6.229c0-2.074-1.038-4.15-1.038-6.227l0,0
		c-2.076-10.378-4.151-20.757-6.228-31.135c-2.075-12.454-5.189-24.908-8.302-36.324c5.189-5.189,9.34-9.341,14.53-14.53
		c12.454-11.416,24.908-20.757,38.4-30.098c58.119-39.438,127.654-61.232,201.34-61.232c3.112,0,6.227-3.112,6.227-6.227l0,0
		c25.946,5.188,50.854,15.566,73.688,31.135c8.302,5.188,16.604,11.416,23.87,17.644c1.036,0,1.036,1.038,2.075,1.038
		c12.453,29.061,23.869,58.119,34.248,87.179C626.854,277.104,621.665,287.48,617.514,298.896 M590.529,486.746
		c0,3.113,0,5.188,1.038,7.265v1.038l0,0c0,0,1.038,10.378,0,18.682c-1.038,4.15-2.075,7.265-2.075,10.378
		c0,1.038,0,1.038-1.038,2.075c0,1.038,0,1.038,0,1.038c-2.075,7.266-7.265,20.757-9.341,24.908
		c-1.037,2.075-3.113,3.113-4.151,3.113s-2.075,0-3.113,0s-2.075-1.038-2.075-3.113c0-1.038,0-2.076,0-3.114
		c0-1.037,0-2.074,0-3.112l0,0l0,0c-1.037-8.304-7.266-21.796-13.491-25.946c-5.189-4.151-33.211-30.098-33.211-30.098l0,0
		c-5.189-5.188-12.454-9.341-17.645-13.491l0,0l0,0c0,0,0,0-1.038-1.038l0,0l0,0c0,0,0,0,0-1.037l0,0
		c-1.037-1.038-1.037-2.076-1.037-3.114l0,0l0,0c-1.037-15.566-10.379-21.794-12.453-23.87c-2.076-2.074-5.189-5.188-6.229-6.227
		c-10.378-14.53-11.416-30.098-11.416-34.249c0-1.038,0-1.038,0-1.038l0,0l0,0c0-7.265,0-14.529-1.037-19.719
		c-1.038-5.188-1.038-12.454,0-21.794l0,0c1.037-2.076,2.075-3.114,2.075-4.151l0,0c6.228-1.038,7.265,6.228,7.265,6.228
		c0,4.15,1.038,5.188,4.151,5.188c3.114,0,6.228-1.038,8.303-2.076c1.038,0,1.038,0,2.076,0c1.037,0,1.037,0,2.075-1.037
		c0,0,0,0,0-1.037c1.038-1.038,2.076-3.113,5.189-6.229c2.074-1.037,4.15-3.113,6.227-4.151l0,0c2.076-1.036,4.15-1.036,5.189-2.074
		h-1.039h1.039c4.15-1.038,5.188,0,6.227,1.038l0,0c0,1.036,1.038,2.074,2.076,3.112l0,0c1.038,1.038,3.112,6.228,7.265,6.228
		c0,0,1.038,0,2.076,0c3.112-1.037,7.265-1.037,12.454-2.075c4.15,0,7.265-1.038,10.378-1.038c1.038,0,1.038-1.038,2.076-1.038
		c3.112-2.075,5.188,0,12.454-1.037l0,0c2.074,0,5.188-2.075,4.15-3.113c0-1.037-2.076-3.113-2.076-3.113
		c-3.112-2.075-5.188-5.189-9.341-7.265c-6.227-4.151-13.491-7.266-22.832-7.266c-7.265,1.037-18.681,4.151-28.021,8.303
		c-2.076,1.037-4.151,2.075-6.229,3.113c-2.075,0-4.15,0-4.15-4.15c1.037-6.229,7.266-12.454,11.416-15.567
		c5.188-3.113,10.379-6.229,15.567-7.265c9.34-1.038,16.605-2.076,22.832,0c2.076,1.036,3.113,1.036,4.151,2.074
		c0,0,1.038,0,1.038,1.038c3.112,2.075,5.188,4.151,5.188,4.151l1.037,1.037c4.151,4.15,7.266,5.188,9.341,1.037
		c1.038-3.112-3.112-7.265-6.227-9.34c0-1.037-1.038-1.037-2.076-1.037l-6.227-4.151c0,0,0-3.113,2.075-5.189
		c2.075-1.038,3.112-1.038,5.188-2.074c1.038,0,3.113,0,4.151,0c2.074,1.036,8.303,3.112,14.528,8.302
		c2.076,2.076,4.151,4.15,5.189,7.266v-1.038c0,0,2.076,6.228,3.112,14.529l0,0c0,0,2.076,17.645,1.039,23.871
		c-2.075,6.228-1.039,9.34,1.037,17.643c1.038,3.114,1.038,7.266,1.038,10.38c0,1.036,0,2.074,0,2.074c0,2.076,0,3.113,0,5.189
		c0,1.038,0,1.038,0,2.074v1.038c0,2.076,0,3.113,0,3.113c0,3.114-1.038,5.189-1.038,8.303c0,3.114,0,5.189-1.037,8.304l0,0
		c0,0-2.075,28.021-5.189,36.323C582.227,461.838,589.492,460.8,590.529,486.746 M533.449,589.491c0,2.076-1.038,6.228-2.076,10.379
		c0,0,0,1.038-1.038,2.075c-1.038,4.15-3.113,8.303-5.188,11.417c-1.037,2.074-2.075,4.15-2.075,5.188v1.038
		c-1.038,4.151-2.076,6.227-7.266,10.378l0,0c-5.188,5.189-16.604,4.151-18.682,4.151l0,0c-1.037,0-2.075-1.037-3.113-1.037
		c-1.038-1.038-3.112-2.076-4.15-3.113c-3.113-3.114-5.189-7.266-5.189-11.417c0,0,0,0,0-1.037c0-2.076,1.038-5.188,1.038-6.228
		c1.038-1.038,1.038-3.113,2.076-3.113c0,0,0,0,0-1.038c2.075-2.075,4.15-3.113,4.15-3.113l0,0
		c5.188-3.112,11.416-7.265,11.416-7.265l0,0c2.075-1.038,6.228-3.113,3.113-5.189c-2.076-2.075-4.15,0-10.378,3.113
		c-16.604,7.266-36.325,5.189-41.514,6.229c0,0-1.038,0-2.076,0c-3.113,0-6.228,1.037-9.341,1.037
		c-6.228,1.037-10.378,2.076-12.453,4.15l0,0c-6.229,3.114-8.303,0-11.417,1.038c-2.075,1.038-5.188,5.189,2.076,7.265
		c6.227,2.076,11.416,7.267,11.416,7.267l0,0c3.112,4.151,6.228,6.227,8.303,14.529c1.038,6.228,2.075,11.416,0,14.529l0,0
		c-2.075,2.075-5.189,2.075-12.454,0c-17.645-5.188-43.589-15.567-50.854-24.907c-3.114-5.189-8.303-12.454-12.454-19.721v-1.037
		c-1.038-2.075-2.076-3.113-2.076-5.188l0,0c-2.076-3.113-2.076-7.265-2.076-10.379l0,0c-1.038-3.113-1.038-13.491,5.189-13.491
		c6.228,1.038,24.908-3.113,24.908-3.113l0,0c3.114-1.037,6.229-2.076,9.342-3.113c2.074-1.037,5.188-1.037,7.265-1.037
		s7.265,0,10.379,1.037c4.151,1.037,11.416,2.076,13.491,2.076c2.076-1.038,4.15-2.076,6.228-2.076c1.038,0,2.075-1.037,2.075-2.075
		s0-1.038,0-1.038c-1.037-1.038-2.075-1.038-3.113-2.075c-3.112-1.038-6.227-1.038-9.341-1.038
		c-7.265-1.037-13.491-1.037-20.757,1.038l0,0c0,0,0,0-1.037,0l0,0c-1.038,0-1.038,0-2.076,1.037c-1.038,0-2.075,0-2.075,1.038l0,0
		c-6.228,2.076-17.644,4.151-21.794,4.151c-1.038,0-2.076,0-2.076,0s0,0-1.038,0c-2.076,0-4.151,0-6.227-1.038
		c-1.038,0-2.076-1.037-3.114-2.075l0,0c0,0,0,0,0-1.038c0,0,0-1.038-1.038-1.038v-1.037c-1.038-3.113,2.076-5.188,4.151-5.188
		c2.075,0,4.151-1.038,6.227-1.038c3.113,0,7.265-1.038,12.454-2.075c1.038,0,3.113,0,4.151-1.038
		c4.151-1.038,7.265-1.038,10.378-2.075c8.303-2.075,20.757,1.037,20.757,1.037l0,0c1.038,0,1.038,0,2.076,0
		c6.228,1.038,15.567,2.076,20.757,2.076c5.188,0,12.453-2.076,16.605-3.113h1.037c1.038,0,2.076-1.037,2.076-1.037l0,0
		c1.036,0,3.112-1.038,4.15-1.038c0,0,0,0,1.038,0c4.15,0,8.302-2.075,13.491-3.113c5.188-1.038,14.529-2.076,21.795-3.113
		c3.113-1.038,7.265-2.076,8.303-2.076c3.113,0,6.228-1.038,7.266,0l1.037,1.038l0,0c0,1.038,0,3.113-1.037,4.151
		c-1.038,1.038-11.416,3.113-14.529,3.113c-1.038,0-5.189,2.075-8.303,2.075c-3.114,0-7.267,1.037-11.417,2.075h-1.037
		c-2.076,0-4.151,1.038-6.229,1.038c-3.112,1.037-5.188,1.037-7.265,2.075l0,0c-5.189,2.076-6.229,2.076-7.266,3.113
		c-1.037,0-2.075,1.038-2.075,1.038c-1.037,0-2.075,1.037-2.075,1.037h-1.038c-1.038,0-2.076,0-2.076,1.037l0,0l0,0
		c-2.075,0-5.188,0-5.188,0c-3.114,0-3.114,3.114-2.076,3.114s5.188,1.037,7.265,1.037l0,0c1.038,0,2.076,0,3.114,0
		s8.303,0,17.643-2.075c7.267-1.038,15.568-3.113,23.87-5.188c1.038,0,2.076-1.038,3.114-1.038
		c18.681-5.188,23.87-7.266,25.945-7.266l0,0c0,0,0,0,1.038,1.038l0,0c0,1.038,1.037,1.038,0,3.113c0,0,0,1.038-1.038,1.038
		c0,1.038-1.037,1.038-1.037,2.075c-1.038,1.038-2.076,3.113-3.114,4.15c-2.075,3.114-4.15,6.229-5.188,8.304
		c-1.038,3.113-1.038,4.15,0,5.188l0,0l0,0l0,0l0,0l0,0l0,0c3.112,1.038,9.341-2.075,9.341,2.076
		C533.449,587.416,533.449,589.491,533.449,589.491L533.449,589.491z M384,484.67L384,484.67c0,0,0-5.188,1.038-10.378
		c1.038-3.114,2.075-6.228,4.151-8.303c4.151-5.189,4.151-8.304,2.075-10.379c-1.038-1.037-3.113,0-4.151,2.075l0,0
		c0,0-5.189,5.188-6.228,10.379l0,0c-1.038,3.112,0,7.265-2.076,13.491c-1.038,2.075-2.076,4.151-3.114,6.228l-1.038,2.076
		c0,0-1.038,2.074-2.076,3.113c-1.038,1.037-2.076,2.075-3.114,3.112l0,0l0,0l0,0c-1.038,2.076-3.113,4.151-5.188,7.267
		c-12.454,16.604-29.061,42.551-32.173,70.571c-1.038,3.113-1.038,7.266-2.076,10.38c0,3.112-1.038,5.188-1.038,8.303
		c-7.265,3.113-12.454,0-16.605-2.076c-4.151-5.189-9.34-10.378-12.454-14.529c-1.038-2.076-4.151-5.188-7.265-10.379
		c-3.114-4.151-5.189-9.341-8.303-13.491c-1.038-3.114-2.076-7.266-2.076-11.417l0,0c-1.038-7.265-2.076-21.794-2.076-21.794
		l-12.454-41.514c0-1.038-1.038-7.265-3.114-10.379l0,0c-1.038-2.075-2.075-8.304-2.075-12.454c0-2.075,0-3.113,0-5.188
		c0-7.266,0-15.566-1.038-23.87c0-2.075,0-5.188,0-8.303c0-18.682,3.113-19.72,1.038-26.983c-1.038-4.151-1.038-8.304-2.076-12.454
		c0-1.037,0-1.037,0-2.075c0-16.604,3.114-32.173,8.303-47.741c3.114-10.378,7.265-20.756,12.454-30.097
		c0-1.038,1.038-2.076,1.038-3.113c7.265-12.454,15.567-24.908,25.946-35.287l0,0l0,0c12.454-12.454,25.946-23.87,41.514-33.211
		c18.681-10.378,38.4-18.681,58.119-22.832c9.341-2.076,18.682-3.112,26.982-3.112c3.114,0,6.229,0,8.304,0
		c3.113,0,4.151-1.038,4.151-4.151c0-1.038,0-3.114,0-4.151v-2.076v-1.037c0-2.075-1.038-3.112-3.113-3.112
		c-1.038,0-3.113,0-5.188,0c-4.152,0-7.266,0-10.379,1.037c-2.075,0-3.113,0-5.189,1.038c-1.036,0-2.074,0-4.15,0
		c-1.037,0-2.075,0-3.113,0h-1.038l0,0c0,0,0-1.038,1.038-1.038l0,0c1.038-1.037,2.076-1.037,3.113-2.076
		c8.303-3.113,17.644-7.265,28.021-10.378c14.529-4.151,28.021-8.304,41.514-11.416c4.15-1.038,7.265-1.038,11.417-2.075
		c3.112,0,5.188-1.039,8.303-1.039c2.075,0,3.113,0,5.188,2.076c1.037,2.076,3.112,3.113,4.15,5.188
		c15.567,19.72,28.021,40.477,39.438,63.309c6.228,12.454,12.454,25.945,16.604,39.438l0,0c0,0,0,1.037,1.038,3.113
		c1.038,3.113,2.076,6.227,3.113,9.341c2.075,6.228,5.188,17.644,3.114,12.454c-2.076-5.189-9.342-7.266-9.342-7.266
		c-39.438-8.304-61.231,6.228-61.231,6.228l0,0c-7.266,5.189-13.492,10.378-19.72,16.605c0,0-20.757,17.643-34.248,21.794
		c-2.075,1.037-9.342,4.15-10.379,10.379c-1.037,7.265,1.037,15.566,2.075,18.681l0,0c3.113,8.303,8.304,17.645,9.341,25.946
		c2.075,13.492-7.265,40.476,4.151,61.232c11.416,21.795,17.644,14.528,15.567,8.303c-1.038-2.076,0-4.151,2.074-4.151l0,0
		c2.076-1.038,6.229,0,10.38,3.113c2.075,2.076,5.188,4.151,6.227,8.303c1.038,2.076,1.038,4.151,2.076,6.229
		c0,1.036,0,2.074,0,3.112s0,2.075,0,3.113c0,4.151-1.038,6.229-1.038,6.229l1.038,1.037c0,1.037,1.038,1.037,2.076,2.075
		c1.036,1.037,3.112,2.075,4.149,3.113l1.038,1.038c1.038,1.037,1.038,1.037,2.076,2.075c7.265,5.188,15.567,13.491,24.908,22.833
		c3.112,5.188-4.151,7.265-8.304,7.265c-5.188,0-23.869-5.188-23.869-5.188l1.037,1.037c-2.075-1.037-3.113-1.037-5.189-2.075
		c-2.075-1.037-3.113-2.075-4.15-3.113c-3.113-3.113-4.151-7.265-4.151-10.378c0-3.114,2.075-6.229,3.114-8.303l0,0
		c5.188-6.229,6.227-8.304,5.188-9.342c0,0,0,0-1.037,0l0,0c-1.038,0-2.076,0-4.15,1.038c-3.114,1.037-6.229-1.038-8.304-2.076
		c-1.038-1.038-3.114-1.038-4.151-1.038s-2.075,0-4.15,1.038c-1.038,1.038-2.076,2.076-3.114,3.113
		c-1.037,2.076-3.112,4.151-4.149,7.267c-2.076,4.15-4.152,7.265-6.229,10.378l-1.038,1.038l0,0l0,0
		c-1.037,1.037-2.075,2.074-3.112,3.112c-1.038,0-1.038,1.038-2.075,1.038c-2.076,1.038-4.151,1.038-5.189,1.038s-1.038,0-2.076,0
		c-2.075,0-3.112,0-4.15,0l0,0c-2.075,0-4.151,0-8.304,0c-8.303,0-14.528-12.454-19.719-17.644
		c-5.189-5.19-11.416-6.229-15.566-2.076c-4.151,4.151-1.038,11.417,2.075,11.417h1.037c0,0,2.076,0,6.229-1.038
		c4.151-1.038,9.34,3.113,11.416,5.188c1.038,2.075,4.15,8.302-2.076,10.378c-5.188,1.038-13.491,2.076-22.832,5.189
		c-8.303,2.075-15.567,6.227-21.794,10.378c0,0-6.227,0-11.417,2.076c-4.151,1.037-6.227-1.038-6.227-2.076
		c8.302-15.567,18.681-28.021,24.908-35.286l0,0c2.076-2.076,3.114-4.15,4.151-6.228l0,0l0,0c1.038-1.037,1.038-2.075,1.038-3.113
		C384,488.821,384,486.746,384,484.67 M192,345.6c-3.113-7.265-7.265-14.528-10.378-21.795v-1.037c-2.076-4.15-1.038-8.303,0-10.379
		c0-1.038,0-1.038,0-1.038l1.038-2.074l1.038-1.038c9.341-15.567,19.719-30.098,31.135-43.589c3.113-4.151,6.227-7.266,9.34-11.416
		c3.114,13.49,5.189,23.87,7.265,34.248c2.076,11.417,4.151,21.795,5.189,31.136c1.038,7.265,2.076,14.529,3.114,20.757v1.037
		c1.038,6.228,2.076,12.454,2.076,18.682c1.038,5.188,1.038,10.378,2.076,15.567v1.038c0,5.188,1.038,9.34,1.038,14.528
		c0,3.113,0,5.189,1.038,8.304v3.112c0,7.267,1.038,13.492,1.038,20.758c0,3.112,0,7.266,0,10.379c0,2.074,0,4.15,0,6.227
		c0,1.038,0,2.076,0,3.113v1.038v8.303c0,5.189,0,9.341,0,14.53v1.037c0,2.076,0,4.15,0,5.188c0,3.113,0,6.228,0,9.341v1.037
		c0,1.038,0,1.038,0,2.076l0,0l0,0l0,0c0-1.038-1.038-1.038-1.038-2.076c-1.038-1.037-1.038-3.113-1.038-4.15
		c-8.303-25.945-17.643-51.893-26.983-77.838l0,0C209.644,382.962,201.341,364.281,192,345.6 M303.049,108.973
		c24.908-17.643,53.967-29.06,84.065-33.211c6.227-1.037,11.416-1.037,17.643-1.037c-34.249,6.228-68.497,17.644-98.595,33.211
		C305.125,107.936,304.086,108.973,303.049,108.973 M128.692,647.61c0-5.189,1.038-10.378,1.038-15.567
		c0-6.227,1.038-13.492,2.076-20.757c1.038-9.341,2.075-18.681,3.113-28.021c1.038-8.303,1.038-14.528,2.076-20.757
		c1.038-6.227,1.038-11.416,2.076-17.644v-1.037c1.038-5.189,1.038-11.417,2.076-16.605c0-3.113,1.038-7.266,1.038-10.379
		l1.038-7.265c1.038-4.151,1.038-7.266,2.076-11.416c1.038-5.189,1.038-9.341,2.076-14.53v-1.037
		c1.038-6.228,2.076-12.454,3.113-19.72c2.076-9.34,3.114-20.756,5.188-32.173c2.076-9.34,3.113-20.757,5.189-31.135
		c2.076-10.38,4.151-21.796,6.227-32.173l2.076-9.342c1.038-3.112,1.038-5.188,2.076-8.303v-2.075c0-1.038,0-1.038,1.038-2.075
		c0-1.038,1.038-1.038,1.038-1.038c1.038,0,1.038,0,1.038,1.038c0,1.037,1.038,1.037,1.038,2.075
		c1.038,2.075,2.076,4.151,3.114,6.228c2.076,5.188,4.151,9.341,7.265,14.53c6.227,13.49,12.454,29.059,18.681,43.589l0,0l0,0
		c7.265,16.604,13.492,34.249,18.681,52.93c8.303,26.983,16.605,53.968,22.833,80.951l0,0l0,0
		c3.113,14.53,6.227,26.983,8.303,37.362c2.076,11.416,4.151,22.832,6.227,35.286c1.038,9.341,3.113,19.72,3.113,26.983
		c1.038,7.266,1.038,13.491,2.076,20.757v5.188c1.038,9.341,1.038,17.644,2.076,29.06c0,8.304,1.038,16.605,1.038,24.908v4.151
		c0,10.379,0,20.757,0,31.136v1.037c0,1.038,0,1.038,0,2.076v63.308c-55.005-23.87-104.822-59.156-145.297-102.746L128.692,647.61z
		 M327.957,697.427c-2.076-6.227-5.189-17.644-5.189-17.644l0,0l0,0l0,0c0-1.037-1.038-5.188,1.038-4.151
		c1.038,1.038,2.076,2.076,3.113,3.114c0,0,14.53,18.681,33.211,33.21l0,0c0,0,12.454,10.379,29.06,19.72
		c8.303,5.188,21.794,11.416,43.589,15.567c6.228,1.038,13.492,2.075,21.795,3.112c6.227,1.038,13.49,1.038,19.719,0
		c26.983-3.112,60.194-23.869,80.951-42.551l-37.362,143.221c-26.982,5.189-53.967,8.304-81.989,8.304
		c-28.021,0-55.004-3.113-80.951-8.304C349.751,799.135,341.449,748.281,327.957,697.427 M807.438,638.27v-8.302v-56.044
		c0-1.038,0-1.038,0-2.074c0-1.038-1.036-2.076-2.074-2.076v-69.535c0-2.075-1.038-3.113-3.113-3.113h-1.038
		c-2.076,0-3.113,1.038-3.113,3.113v69.535l0,0c-1.038,1.037-2.075,3.112-2.075,4.15v53.969c-3.113-5.189-5.189-9.342-8.304-14.529
		c0-1.038,1.038-2.076,1.038-3.114l0,0v-42.551l0,0c0-1.038-1.038-3.113-2.074-4.151v-12.454c1.036-1.038,2.074-2.076,2.074-4.15
		l0,0v-9.341l0,0c0-1.038-1.038-3.113-2.074-4.151v-15.567c1.036,0,1.036-1.038,2.074-2.076c0-1.037,1.038-2.074,1.038-2.074
		v-93.405c0-1.038,0-2.076-1.038-2.076c0-1.037-1.038-1.037-2.074-2.075v-21.795c0-2.075-1.039-3.113-3.114-3.113h-1.038
		c-2.075,0-3.113,1.038-3.113,3.113v22.833h-1.037c-1.038,1.037-2.076,2.075-2.076,4.151v93.404c0,2.075,1.038,3.113,2.076,4.151
		v15.567c-2.076,1.038-3.113,3.113-3.113,5.188v9.34c0,2.076,1.037,4.151,3.113,5.189v11.416c-2.076,1.038-3.113,3.113-3.113,5.188
		v28.021c0-1.038,1.037,1.038,0,1.038c-2.075-8.304-5.188-14.53-7.266-18.683l0,0V446.27c0-2.076-1.038-3.113-2.075-4.151V431.74
		c0-2.075-1.038-3.113-3.114-3.113h-1.036c-2.076,0-3.114,1.038-3.114,3.113v9.341c0,0-1.037,0-1.037,1.037
		c-1.038,1.038-2.076,2.075-2.076,4.151v17.644v21.795v12.454v62.271c0-1.038-1.038-2.076-1.038-2.076
		c-2.075-4.15-4.15-8.303-7.265-12.454V359.092c0-1.038,0-2.076-1.038-2.076c0-1.037-1.037-1.037-2.075-2.075v-5.188v-11.416V263.61
		v-1.038V168.13c0-2.075-1.038-3.113-3.113-3.113h-1.037c-2.076,0-3.113,1.038-3.113,3.113v106.896v1.038v63.31v8.303v6.227
		c-2.076,1.038-2.076,3.113-2.076,4.151v162.939c0-1.037-1.037-2.074-1.037-3.112c-1.038-2.076-1.038-1.038-2.076-3.113
		c-1.038-2.076-3.112-7.266-5.188-11.416V394.379c0-1.038,0-2.075-1.037-3.113c0-1.038-1.038-1.038-2.076-2.076V297.86l0,0v-115.2
		v-14.529v-4.15c0-2.076-1.038-3.113-3.113-3.113h-1.038c-2.074,0-3.112,1.037-3.112,3.113v6.227v11.416v129.73l0,0v79.913
		c-1.038,1.038-3.113,3.113-3.113,4.151v83.026c-3.114-6.228-5.188-12.454-8.303-18.682v-89.254c0-1.038,0-1.038,0-2.075
		c0-1.038-1.038-2.076-1.038-2.076s0,0-1.038,0v-31.135l0,0V211.72c0-2.076-1.038-3.113-3.113-3.113h-1.038
		c-2.074,0-3.112,1.037-3.112,3.113v118.313l0,0v34.249c-2.076,1.037-3.113,3.113-3.113,5.188v59.156
		c-3.114-7.265-5.189-13.491-7.267-20.757v-44.627V254.27c0-1.038-1.036-2.076-1.036-3.114l-1.038-1.038v-67.459v-22.833v-35.286
		c0-2.074-1.038-3.112-3.113-3.112h-1.038c-2.076,0-3.112,1.038-3.112,3.112v37.362v17.644v69.535
		c-1.039,1.037-2.076,3.113-2.076,4.151v117.275c-2.075-8.304-4.151-17.645-6.228-25.946c0-2.075-1.038-4.151-1.038-6.228l0,0l0,0
		v-58.118v-36.324c0-2.075-1.038-3.113-2.074-4.151l0,0V117.274c0-2.076-1.039-3.113-3.114-3.113h-1.037
		c-2.076,0-3.114,1.037-3.114,3.113v122.465l0,0c-1.037,1.038-2.075,3.113-2.075,4.151v45.665v8.303
		c-1.038-4.151-2.075-7.265-3.112-11.416c0-1.038,0-2.076-1.038-3.114c-2.076-8.303-4.151-16.604-6.228-24.908v-3.112v-26.983
		V162.94v-5.189v-2.074c0-2.076-1.038-3.113-3.113-3.113h-1.039c-2.074,0-3.112,1.037-3.112,3.113v2.074v5.189v16.604v18.682v19.719
		v5.189c-8.304-52.931-11.416-101.709-12.454-106.897c-1.037-19.719-2.075-39.438-2.075-59.156
		c88.216,43.589,158.789,118.313,199.265,208.605h-1.037h-1.037c-2.076,0-3.114,1.037-3.114,3.112v207.567
		c-1.037,1.038-2.075,3.113-2.075,4.151v142.184C812.627,627.892,809.514,633.081,807.438,638.27"/>
	<polygon fill="#13110C" points="1105.297,270.875 1080.389,313.427 1080.389,339.373 1073.124,339.373 1073.124,313.427 
		1048.216,270.875 1056.52,270.875 1077.275,305.124 1096.994,270.875 	"/>
	<polygon fill="#13110C" points="1139.546,270.875 1180.021,270.875 1180.021,279.178 1146.811,279.178 1146.811,299.936 
		1176.908,299.936 1176.908,308.237 1146.811,308.237 1146.811,332.107 1180.021,332.107 1180.021,339.373 1139.546,339.373 	"/>
	<path fill="#13110C" d="M1256.821,319.653h-29.061l-7.265,20.757h-8.303l25.945-68.497h10.379l25.945,68.497h-8.303
		L1256.821,319.653z M1229.838,312.389h23.87l-11.416-32.173v-1.038v1.038L1229.838,312.389z"/>
	<path fill="#13110C" d="M1329.471,311.352h-15.567v28.021h-8.304v-68.498h25.946c16.605,0,23.87,8.303,23.87,19.72l0,0
		c0,10.378-6.227,17.644-16.605,19.72l18.683,29.06h-9.341L1329.471,311.352z M1314.939,304.086h18.682
		c9.341,0,14.53-5.188,14.53-12.454l0,0c0-8.303-6.229-12.454-14.53-12.454h-18.682V304.086z"/>
	<path fill="#13110C" d="M1432.216,305.124L1432.216,305.124c0-19.719,12.454-35.286,33.211-35.286l0,0
		c20.757,0,33.211,15.567,33.211,35.286l0,0c0,19.719-12.454,35.286-33.211,35.286l0,0
		C1444.67,340.41,1432.216,324.843,1432.216,305.124 M1465.427,332.107c14.53,0,24.908-11.416,24.908-26.983l0,0
		c0-15.567-10.378-26.983-24.908-26.983l0,0c-14.528,0-24.907,11.416-24.907,26.983l0,0
		C1440.52,320.691,1450.896,332.107,1465.427,332.107L1465.427,332.107z"/>
	<polygon fill="#13110C" points="1529.773,270.875 1570.249,270.875 1570.249,279.178 1538.076,279.178 1538.076,299.936 
		1567.135,299.936 1567.135,308.237 1538.076,308.237 1538.076,339.373 1529.773,339.373 	"/>
	<polygon fill="#13110C" points="1181.061,570.811 1181.061,601.945 1048.216,601.945 1048.216,570.811 1139.546,458.724 
		1053.405,458.724 1053.405,427.589 1181.061,427.589 1181.061,458.724 1088.691,570.811 	"/>
	<path fill="#13110C" d="M1344,559.395h-68.497l-14.53,42.552h-34.248l63.309-174.356h40.476l63.31,174.356h-34.25L1344,559.395z
		 M1285.881,529.297h47.74l-23.87-66.422l-1.037-2.075l-1.038,2.075L1285.881,529.297z"/>
	<polygon fill="#13110C" points="1562.984,427.589 1499.676,536.563 1499.676,601.945 1466.465,601.945 1466.465,536.563 
		1402.119,427.589 1439.48,427.589 1483.07,504.389 1525.621,427.589 	"/>
	<polygon fill="#13110C" points="1602.422,427.589 1710.355,427.589 1710.355,458.724 1635.633,458.724 1635.633,497.124 
		1703.092,497.124 1703.092,528.259 1635.633,528.259 1635.633,570.811 1711.395,570.811 1711.395,601.945 1602.422,601.945 	"/>
	<path fill="#13110C" d="M1920,513.729L1920,513.729c0,55.007-37.362,88.217-96.52,88.217h-52.931V427.589h52.931
		C1883.676,427.589,1920,460.8,1920,513.729 M1883.676,513.729c0-35.285-19.719-53.968-56.043-53.968h-23.871V570.81h23.871
		C1863.957,570.811,1883.676,551.092,1883.676,513.729L1883.676,513.729z"/>
</g>
</svg>
